<svg xmlns="http://www.w3.org/2000/svg" width="300" height="80" viewBox="0 0 300 80"><defs><style>.cls-1{fill:#fff;opacity:0}.cls-2{fill:#034ea0}.cls-2,.cls-5{fill-rule:evenodd}.cls-3{fill:#08509e}.cls-4,.cls-5{fill:#f19f1d}</style></defs><g id="LOGO" transform="translate(15865 -14335)"><rect id="Rectangle_920" width="300" height="80" class="cls-1" data-name="Rectangle 920" transform="translate(-15865 14335)"/><g id="BKTH_Logo" transform="translate(-15858.098 14344.572)"><g id="Group_3445" data-name="Group 3445" transform="translate(0 0.012)"><path id="Path_6399" d="M171.259,292.007H158.93v-2.542c-7.468-.8-12.744-5.668-12.744-12.031,0-6.418,4.727-12.049,12.744-12.809v-3.478c-9.083.907-14.841,6.552-16.051,13.4V232.535h28.381v59.472Zm-35.669-18c-1.207-7.182-6.959-12.247-16.892-12.667V232.535H135.59v41.474Zm7.288,5.928v12.07h12.247c-6.55-1.61-11.189-6.217-12.247-12.07Zm-7.288-.268v12.338H121.962c7.5-1.351,12.52-5.979,13.628-12.338ZM118.7,264.836v24.378c8.618,0,13.572-5.172,13.572-12.147s-4.221-12.231-13.572-12.231Zm53.376-32.972H111.5v60.809h60.574Z" class="cls-2" data-name="Path 6399" transform="translate(-111.5 -231.864)"/></g><g id="Group_3446" data-name="Group 3446" transform="translate(79.134 17.689)"><path id="Path_6400" d="M282.626,271.013h24.319v3.627l-1.706,1.92h-6.613v24.319h-7.679V276.56h-8.321Z" class="cls-3" data-name="Path 6400" transform="translate(-282.626 -270.586)"/><path id="Path_6401" d="M362.588,274.64l-1.705,1.92H348.935v6.4h9.813v5.545h-9.813v6.827h13.653v5.546H341.256V271.013h21.332Z" class="cls-3" data-name="Path 6401" transform="translate(-314.144 -270.586)"/><path id="Path_6402" d="M415.2,295.332v5.546H400.483c-4.1,0-6.826-2.774-6.826-6.4V277.413c0-3.626,2.73-6.4,6.826-6.4H415.2v3.627l-1.706,1.92H402.83a1.458,1.458,0,0,0-1.494,1.493V293.84a1.458,1.458,0,0,0,1.494,1.493Z" class="cls-3" data-name="Path 6402" transform="translate(-342.313 -270.586)"/><path id="Path_6403" d="M516.653,300.809c-4.095,0-6.826-2.773-6.826-6.4V276.491c0-3.627,2.731-6.4,6.826-6.4h10.239c4.266,0,6.827,2.987,6.827,6.4V294.41c0,3.626-2.731,6.4-6.827,6.4Zm7.892-5.546a1.46,1.46,0,0,0,1.495-1.494V277.13a1.459,1.459,0,0,0-1.495-1.493H519a1.457,1.457,0,0,0-1.492,1.493v16.639A1.458,1.458,0,0,0,519,295.263Z" class="cls-3" data-name="Path 6403" transform="translate(-404.762 -270.09)"/><path id="Path_6404" d="M576.654,301.305c-4.1,0-6.826-2.773-6.826-6.4V271.013h7.68v23.252A1.459,1.459,0,0,0,579,295.759h5.546a1.459,1.459,0,0,0,1.495-1.494V271.013h7.68v23.893c0,3.626-2.731,6.4-6.826,6.4Z" class="cls-3" data-name="Path 6404" transform="translate(-437.017 -270.586)"/><path id="Path_6405" d="M628.428,277.413c0-3.626,2.729-6.4,6.826-6.4h14.507v3.627l-1.708,1.92H637.6a1.457,1.457,0,0,0-1.492,1.493v2.133a1.807,1.807,0,0,0,1.705,1.921l7.893,1.706a6.446,6.446,0,0,1,5.333,6.4v4.266c0,3.626-2.73,6.4-6.826,6.4H628.428v-5.546h13.439a1.458,1.458,0,0,0,1.494-1.493v-2.774a1.807,1.807,0,0,0-1.707-1.92l-7.894-1.706a6.447,6.447,0,0,1-5.332-6.4Z" class="cls-3" data-name="Path 6405" transform="translate(-468.518 -270.586)"/><path id="Path_6406" d="M705.592,274.64l-1.705,1.92H691.94v6.4h9.813v5.545H691.94v6.827h13.652v5.546H684.261V271.013h21.332Z" class="cls-3" data-name="Path 6406" transform="translate(-498.532 -270.586)"/><path id="Path_6407" d="M457.2,300.879H447.182V271.013h9.894v11.245h6.283V271.013h9.893v29.866h-9.638v-10.64H457.2Z" class="cls-4" data-name="Path 6407" transform="translate(-371.086 -270.586)"/></g><g id="Group_3447" data-name="Group 3447" transform="translate(79.17 51.556)"><path id="Path_6408" d="M282.7,343.812h3.113a3.651,3.651,0,0,1,1.4.231,2.383,2.383,0,0,1,.869.588,1.989,1.989,0,0,1,.444.8,3,3,0,0,1,0,1.713,1.988,1.988,0,0,1-.444.8,2.365,2.365,0,0,1-.869.587,3.624,3.624,0,0,1-1.4.232H283.9v3.9h-1.2Zm1.2,3.9h1.575a4.253,4.253,0,0,0,.694-.056,1.859,1.859,0,0,0,.612-.206,1.12,1.12,0,0,0,.431-.431,1.718,1.718,0,0,0,0-1.462,1.124,1.124,0,0,0-.431-.432,1.868,1.868,0,0,0-.612-.206,4.253,4.253,0,0,0-.694-.056H283.9Z" class="cls-4" data-name="Path 6408" transform="translate(-282.704 -343.587)"/><path id="Path_6409" d="M309.291,352.626a4.771,4.771,0,0,1-1.863-.357,4.344,4.344,0,0,1-1.456-.981,4.539,4.539,0,0,1-.95-1.475,5.087,5.087,0,0,1,0-3.675,4.533,4.533,0,0,1,.95-1.475,4.337,4.337,0,0,1,1.456-.981,5.044,5.044,0,0,1,3.725,0,4.331,4.331,0,0,1,1.456.981,4.518,4.518,0,0,1,.95,1.475,5.08,5.08,0,0,1,0,3.675,4.525,4.525,0,0,1-.95,1.475,4.337,4.337,0,0,1-1.456.981A4.767,4.767,0,0,1,309.291,352.626Zm0-1.126a3.22,3.22,0,0,0,2.424-1.037,3.344,3.344,0,0,0,.676-1.119,4.069,4.069,0,0,0,0-2.738,3.346,3.346,0,0,0-.676-1.119,3.316,3.316,0,0,0-4.849,0,3.336,3.336,0,0,0-.675,1.119,4.054,4.054,0,0,0,0,2.738,3.334,3.334,0,0,0,.675,1.119,3.22,3.22,0,0,0,2.425,1.037Z" class="cls-4" data-name="Path 6409" transform="translate(-294.517 -343.326)"/><path id="Path_6410" d="M332.569,343.812h1.25l1.956,7.075h.025l2.081-7.075h1.375l2.081,7.075h.025l1.957-7.075h1.249l-2.575,8.85H340.72l-2.138-7.225h-.025l-2.125,7.225h-1.275Z" class="cls-4" data-name="Path 6410" transform="translate(-309.51 -343.587)"/><path id="Path_6411" d="M368.059,343.812h5.713v1.125h-4.513v2.637h4.2V348.7h-4.2v2.837H374v1.125h-5.938Z" class="cls-4" data-name="Path 6411" transform="translate(-328.588 -343.587)"/><path id="Path_6412" d="M391.325,343.812h3.113a3.651,3.651,0,0,1,1.4.231,2.383,2.383,0,0,1,.869.588,1.989,1.989,0,0,1,.444.8,3.18,3.18,0,0,1,.125.856,2.284,2.284,0,0,1-.15.819,2.331,2.331,0,0,1-.431.713,2.468,2.468,0,0,1-.688.537,2.385,2.385,0,0,1-.905.269l2.512,4.038h-1.5l-2.25-3.9h-1.337v3.9h-1.2Zm1.2,3.9H394.1a4.257,4.257,0,0,0,.694-.056,1.852,1.852,0,0,0,.612-.206,1.117,1.117,0,0,0,.431-.431,1.722,1.722,0,0,0,0-1.462,1.122,1.122,0,0,0-.431-.432,1.862,1.862,0,0,0-.612-.206,4.257,4.257,0,0,0-.694-.056h-1.575Z" class="cls-4" data-name="Path 6412" transform="translate(-341.095 -343.587)"/><path id="Path_6413" d="M414.89,343.812h1.2v8.85h-1.2Z" class="cls-4" data-name="Path 6413" transform="translate(-353.763 -343.587)"/><path id="Path_6414" d="M429.3,343.812h1.576l4.875,7.275h.025v-7.275h1.2v8.85h-1.525l-4.924-7.275H430.5v7.275h-1.2Z" class="cls-4" data-name="Path 6414" transform="translate(-361.507 -343.587)"/><path id="Path_6415" d="M464.674,347.451v4.363a4.019,4.019,0,0,1-.738.351,7.955,7.955,0,0,1-.856.256,7.277,7.277,0,0,1-.9.156,7.9,7.9,0,0,1-.856.05,5.076,5.076,0,0,1-2.006-.375,4.306,4.306,0,0,1-2.413-2.493,5.008,5.008,0,0,1-.319-1.782,4.852,4.852,0,0,1,.344-1.837,4.516,4.516,0,0,1,.95-1.475,4.333,4.333,0,0,1,1.456-.981,4.771,4.771,0,0,1,1.863-.357,5.509,5.509,0,0,1,2,.306,3.673,3.673,0,0,1,1.3.843l-.85.913a3.138,3.138,0,0,0-1.162-.732,4,4,0,0,0-1.287-.207,3.223,3.223,0,0,0-2.425,1.038,3.329,3.329,0,0,0-.675,1.119,3.919,3.919,0,0,0-.238,1.369,3.654,3.654,0,0,0,.263,1.393,3.452,3.452,0,0,0,.725,1.12,3.338,3.338,0,0,0,1.088.744,3.408,3.408,0,0,0,1.363.269,5.907,5.907,0,0,0,1.206-.118,3.416,3.416,0,0,0,.968-.344v-2.463h-1.963v-1.125Z" class="cls-4" data-name="Path 6415" transform="translate(-376.177 -343.326)"/><path id="Path_6416" d="M500.486,343.812h1.2v8.85h-1.2Z" class="cls-4" data-name="Path 6416" transform="translate(-399.777 -343.587)"/><path id="Path_6417" d="M514.892,343.812h1.576l4.875,7.275h.025v-7.275h1.2v8.85h-1.525l-4.925-7.275h-.025v7.275h-1.2Z" class="cls-4" data-name="Path 6417" transform="translate(-407.521 -343.587)"/><path id="Path_6418" d="M543.315,343.812h1.576l4.874,7.275h.025v-7.275h1.2v8.85h-1.525l-4.925-7.275h-.025v7.275h-1.2Z" class="cls-4" data-name="Path 6418" transform="translate(-422.8 -343.587)"/><path id="Path_6419" d="M575.218,352.626a4.769,4.769,0,0,1-1.863-.357,4.34,4.34,0,0,1-1.456-.981,4.532,4.532,0,0,1-.95-1.475,5.074,5.074,0,0,1,0-3.675,4.525,4.525,0,0,1,.95-1.475,4.334,4.334,0,0,1,1.456-.981,5.045,5.045,0,0,1,3.726,0,4.338,4.338,0,0,1,1.456.981,4.524,4.524,0,0,1,.95,1.475,5.073,5.073,0,0,1,0,3.675,4.531,4.531,0,0,1-.95,1.475,4.344,4.344,0,0,1-1.456.981A4.769,4.769,0,0,1,575.218,352.626Zm0-1.126a3.222,3.222,0,0,0,2.425-1.037,3.366,3.366,0,0,0,.676-1.119,4.077,4.077,0,0,0,0-2.738,3.368,3.368,0,0,0-.676-1.119,3.317,3.317,0,0,0-4.85,0,3.344,3.344,0,0,0-.675,1.119,4.062,4.062,0,0,0,0,2.738,3.342,3.342,0,0,0,.675,1.119,3.22,3.22,0,0,0,2.425,1.037Z" class="cls-4" data-name="Path 6419" transform="translate(-437.47 -343.326)"/><path id="Path_6420" d="M598.075,343.812h1.387l2.6,7.2h.025l2.7-7.2H606.1l-3.488,8.85h-1.125Z" class="cls-4" data-name="Path 6420" transform="translate(-452.238 -343.587)"/><path id="Path_6421" d="M624.819,343.812h1.088l3.788,8.85h-1.4l-.886-2.187h-4.213l-.875,2.187h-1.4Zm2.15,5.612-1.65-4.062h-.025l-1.675,4.062Z" class="cls-4" data-name="Path 6421" transform="translate(-464.518 -343.587)"/><path id="Path_6422" d="M648.1,344.937h-2.85v-1.125h6.9v1.125H649.3v7.725h-1.2Z" class="cls-4" data-name="Path 6422" transform="translate(-477.599 -343.587)"/><path id="Path_6423" d="M669.846,343.812h1.2v8.85h-1.2Z" class="cls-4" data-name="Path 6423" transform="translate(-490.819 -343.587)"/><path id="Path_6424" d="M687.775,352.626a4.771,4.771,0,0,1-1.863-.357,4.334,4.334,0,0,1-1.456-.981,4.522,4.522,0,0,1-.95-1.475,5.074,5.074,0,0,1,0-3.675,4.515,4.515,0,0,1,.95-1.475,4.328,4.328,0,0,1,1.456-.981,5.046,5.046,0,0,1,3.726,0,4.337,4.337,0,0,1,1.456.981,4.525,4.525,0,0,1,.95,1.475,5.087,5.087,0,0,1,0,3.675,4.532,4.532,0,0,1-.95,1.475,4.344,4.344,0,0,1-1.456.981A4.77,4.77,0,0,1,687.775,352.626Zm0-1.126a3.222,3.222,0,0,0,2.425-1.037,3.367,3.367,0,0,0,.676-1.119,4.077,4.077,0,0,0,0-2.738,3.369,3.369,0,0,0-.676-1.119,3.318,3.318,0,0,0-4.85,0,3.335,3.335,0,0,0-.674,1.119,4.053,4.053,0,0,0,0,2.738,3.333,3.333,0,0,0,.674,1.119,3.224,3.224,0,0,0,2.425,1.037Z" class="cls-4" data-name="Path 6424" transform="translate(-497.978 -343.326)"/><path id="Path_6425" d="M713.792,343.812h1.576l4.875,7.275h.025v-7.275h1.2v8.85h-1.525l-4.925-7.275h-.025v7.275h-1.2Z" class="cls-4" data-name="Path 6425" transform="translate(-514.443 -343.587)"/></g><g id="Group_3448" data-name="Group 3448" transform="translate(150.38)"><path id="Path_6426" d="M472.444,246.345h-35.75l17.862-14.507v.027Z" class="cls-5" data-name="Path 6426" transform="translate(-436.694 -231.838)"/></g></g></g></svg>