<svg xmlns="http://www.w3.org/2000/svg" width="1059" height="922" fill="none" viewBox="0 0 1059 922"><g filter="url(#filter0_f_102_652)"><circle cx="567" cy="430" r="162" fill="#EBFFDB"/></g><g filter="url(#filter1_f_102_652)"><circle cx="268" cy="455" r="107" fill="#FEF4DB"/></g><path stroke="#E6E6E6" d="M621.5 564.255V606C621.5 611.247 617.247 615.5 612 615.5H569C563.753 615.5 559.5 611.247 559.5 606V564.255C559.5 559.008 563.753 554.755 569 554.755H587.5C593.299 554.755 598 550.054 598 544.255V505C598 499.753 602.253 495.5 607.5 495.5H669C674.247 495.5 678.5 499.753 678.5 505V544.255C678.5 549.502 674.247 553.755 669 553.755H632C626.201 553.755 621.5 558.456 621.5 564.255Z"/><rect width="101" height="61" x="458.5" y="554.5" stroke="#E6E6E6" rx="9.5"/><path stroke="#E6E6E6" d="M338.591 625.248L338.254 666.078C338.211 671.294 333.97 675.5 328.754 675.5H285.5C280.253 675.5 276 671.247 276 666V623.831C276 618.584 280.253 614.331 285.5 614.331H327.168C332.967 614.331 337.668 609.63 337.668 603.831V504C337.668 498.753 341.921 494.5 347.168 494.5H448.999C454.245 494.5 458.499 498.753 458.499 504L458.5 605.335C458.5 610.582 454.247 614.835 449 614.835H349.091C343.326 614.835 338.639 619.483 338.591 625.248Z"/><path stroke="#E6E6E6" d="M400.091 225.752L399.754 184.922C399.711 179.706 395.47 175.5 390.254 175.5H347C341.753 175.5 337.5 179.753 337.5 185V227.169C337.5 232.416 341.753 236.669 347 236.669H388.166C393.965 236.669 398.666 241.37 398.666 247.169V351.507C398.666 356.754 402.92 361.007 408.166 361.007H510.538C515.77 361.007 520.017 356.777 520.038 351.545L520.46 245.703C520.481 240.441 516.222 236.165 510.96 236.165H410.591C404.826 236.165 400.139 231.517 400.091 225.752Z"/><rect width="25" height="25" x="636.5" y="575.007" stroke="#E6E6E6" rx="5.5"/><path fill="#000" fill-rule="evenodd" d="M425.353 204.271C422.568 201.982 420.311 199.256 418.616 196.08C418.277 195.447 417.488 195.206 416.848 195.545C416.216 195.884 415.974 196.673 416.314 197.312C418.179 200.789 420.644 203.776 423.696 206.286C424.251 206.743 425.079 206.665 425.535 206.11C425.992 205.549 425.907 204.728 425.353 204.271Z" clip-rule="evenodd"/><path fill="#000" fill-rule="evenodd" d="M423.868 195.356C424.011 197.991 424.142 200.626 424.305 203.26C424.35 203.978 424.97 204.526 425.687 204.48C426.405 204.434 426.952 203.815 426.907 203.097C426.744 200.469 426.613 197.841 426.47 195.206C426.431 194.491 425.811 193.939 425.094 193.98C424.376 194.02 423.822 194.637 423.868 195.356Z" clip-rule="evenodd"/><path fill="#000" fill-rule="evenodd" d="M433.55 195.891C431.88 198.408 429.989 200.73 428.085 203.078C427.628 203.639 427.713 204.46 428.274 204.91C428.835 205.367 429.657 205.282 430.107 204.721C432.063 202.315 434.007 199.921 435.728 197.332C436.126 196.732 435.957 195.923 435.357 195.526C434.763 195.128 433.948 195.291 433.55 195.891Z" clip-rule="evenodd"/><path fill="#000" fill-rule="evenodd" d="M440.017 205.249C435.491 205.452 430.685 205.458 426.158 205.171C425.441 205.132 424.822 205.673 424.776 206.397C424.73 207.115 425.278 207.734 425.995 207.78C430.613 208.067 435.517 208.06 440.135 207.858C440.852 207.826 441.413 207.213 441.38 206.495C441.348 205.778 440.735 205.217 440.017 205.249Z" clip-rule="evenodd"/><path fill="#000" fill-rule="evenodd" d="M423.693 206.078C426.484 209.495 429.373 212.847 431.962 216.421C432.386 217.002 433.201 217.132 433.788 216.708C434.369 216.284 434.499 215.469 434.075 214.889C431.454 211.275 428.532 207.884 425.708 204.428C425.251 203.873 424.43 203.789 423.875 204.245C423.314 204.702 423.236 205.523 423.693 206.078Z" clip-rule="evenodd"/><path fill="#000" fill-rule="evenodd" d="M424.538 207.069C425.268 210.63 425.471 214.034 425.523 217.641C425.529 218.358 426.123 218.932 426.84 218.926C427.564 218.913 428.138 218.326 428.125 217.602C428.073 213.826 427.858 210.271 427.095 206.541C426.945 205.837 426.26 205.38 425.549 205.53C424.845 205.673 424.388 206.365 424.538 207.069Z" clip-rule="evenodd"/><path fill="#000" fill-rule="evenodd" d="M424.656 206.782C422.543 211.008 421.454 215.704 419.191 219.839C418.845 220.465 419.08 221.261 419.712 221.606C420.345 221.952 421.134 221.717 421.48 221.091C423.756 216.93 424.858 212.208 426.991 207.95C427.31 207.304 427.049 206.522 426.41 206.195C425.764 205.876 424.982 206.137 424.656 206.782Z" clip-rule="evenodd"/><path fill="#000" fill-rule="evenodd" d="M425.819 205.823C421.612 206.567 417.412 206.906 413.18 207.408C412.462 207.493 411.953 208.139 412.038 208.856C412.123 209.573 412.769 210.082 413.486 209.997C417.764 209.495 422.017 209.143 426.275 208.393C426.98 208.262 427.456 207.584 427.332 206.88C427.201 206.169 426.53 205.693 425.819 205.823Z" clip-rule="evenodd"/><path fill="#000" fill-rule="evenodd" d="M428.746 203.841C427.878 203.802 427.057 203.743 426.209 203.619C425.491 203.515 424.833 204.011 424.728 204.722C424.624 205.432 425.119 206.098 425.83 206.202C426.769 206.339 427.676 206.404 428.628 206.443C429.346 206.476 429.959 205.922 429.985 205.198C430.017 204.48 429.463 203.874 428.746 203.841Z" clip-rule="evenodd"/><rect width="124" height="61" x="398.5" y="237.007" stroke="#E6E6E6" rx="9.5" transform="rotate(90 398.5 237.007)"/><rect width="59" height="61" x="398.5" y="361.007" stroke="#E6E6E6" rx="9.5" transform="rotate(90 398.5 361.007)"/><rect width="59" height="61" x="677.5" y="298.007" stroke="#E6E6E6" rx="9.5" transform="rotate(-180 677.5 298.007)"/><rect width="98" height="178" x="618.5" y="390.007" stroke="#E6E6E6" rx="9.5" transform="rotate(-180 618.5 390.007)"/><rect width="59" height="117" x="677.5" y="415.007" stroke="#E6E6E6" rx="9.5" transform="rotate(-180 677.5 415.007)"/><rect width="61" height="61" x="436.5" y="615.5" stroke="#E6E6E6" rx="9.5"/><rect width="61" height="61" x="559.5" y="615.5" stroke="#E6E6E6" rx="9.5"/><rect width="61" height="61" x="589.5" y="758.5" fill="#C5B6F0" stroke="#000" rx="9.5"/><g clip-path="url(#clip0_102_652)"><path fill="#000" d="M628.544 779.536C628.164 779.536 627.793 779.649 627.477 779.86C627.162 780.071 626.915 780.37 626.77 780.721C626.625 781.072 626.587 781.458 626.661 781.831C626.735 782.203 626.918 782.545 627.186 782.814C627.455 783.082 627.797 783.265 628.169 783.339C628.542 783.413 628.928 783.375 629.279 783.23C629.63 783.085 629.929 782.838 630.14 782.523C630.351 782.207 630.464 781.836 630.464 781.456C630.464 780.947 630.262 780.458 629.902 780.098C629.542 779.738 629.053 779.536 628.544 779.536ZM635.904 783.408C635.873 782.08 635.624 780.767 635.168 779.52C634.761 778.453 634.128 777.487 633.312 776.688C632.52 775.868 631.551 775.239 630.48 774.848C629.236 774.378 627.921 774.124 626.592 774.096C624.896 774 624.352 774 620 774C615.648 774 615.104 774 613.408 774.096C612.079 774.124 610.764 774.378 609.52 774.848C608.451 775.243 607.483 775.871 606.688 776.688C605.868 777.48 605.239 778.449 604.848 779.52C604.378 780.764 604.124 782.079 604.096 783.408C604 785.104 604 785.648 604 790C604 794.352 604 794.896 604.096 796.592C604.124 797.921 604.378 799.236 604.848 800.48C605.239 801.551 605.868 802.52 606.688 803.312C607.483 804.129 608.451 804.757 609.52 805.152C610.764 805.622 612.079 805.876 613.408 805.904C615.104 806 615.648 806 620 806C624.352 806 624.896 806 626.592 805.904C627.921 805.876 629.236 805.622 630.48 805.152C631.551 804.761 632.52 804.132 633.312 803.312C634.132 802.516 634.765 801.549 635.168 800.48C635.624 799.233 635.873 797.92 635.904 796.592C635.904 794.896 636 794.352 636 790C636 785.648 636 785.104 635.904 783.408ZM633.024 796.4C633.012 797.416 632.828 798.422 632.48 799.376C632.225 800.072 631.814 800.701 631.28 801.216C630.761 801.745 630.133 802.154 629.44 802.416C628.486 802.764 627.48 802.948 626.464 802.96C624.864 803.04 624.272 803.056 620.064 803.056C615.856 803.056 615.264 803.056 613.664 802.96C612.609 802.98 611.559 802.817 610.56 802.48C609.897 802.205 609.298 801.796 608.8 801.28C608.269 800.766 607.864 800.136 607.616 799.44C607.225 798.472 607.009 797.443 606.976 796.4C606.976 794.8 606.88 794.208 606.88 790C606.88 785.792 606.88 785.2 606.976 783.6C606.983 782.562 607.173 781.533 607.536 780.56C607.818 779.885 608.25 779.283 608.8 778.8C609.286 778.25 609.887 777.813 610.56 777.52C611.535 777.168 612.563 776.984 613.6 776.976C615.2 776.976 615.792 776.88 620 776.88C624.208 776.88 624.8 776.88 626.4 776.976C627.416 776.988 628.422 777.172 629.376 777.52C630.103 777.79 630.756 778.229 631.28 778.8C631.804 779.291 632.214 779.892 632.48 780.56C632.836 781.534 633.02 782.563 633.024 783.6C633.104 785.2 633.12 785.792 633.12 790C633.12 794.208 633.104 794.8 633.024 796.4ZM620 781.792C618.377 781.795 616.792 782.279 615.444 783.183C614.097 784.087 613.047 785.37 612.428 786.87C611.809 788.37 611.649 790.02 611.968 791.611C612.286 793.202 613.069 794.663 614.218 795.81C615.366 796.956 616.829 797.736 618.421 798.051C620.012 798.367 621.662 798.203 623.161 797.582C624.66 796.96 625.941 795.908 626.842 794.558C627.743 793.209 628.224 791.623 628.224 790C628.226 788.92 628.015 787.851 627.602 786.853C627.189 785.855 626.583 784.948 625.819 784.186C625.055 783.423 624.147 782.819 623.148 782.408C622.15 781.997 621.08 781.788 620 781.792ZM620 795.328C618.946 795.328 617.916 795.016 617.04 794.43C616.164 793.845 615.481 793.013 615.078 792.039C614.674 791.065 614.569 789.994 614.774 788.961C614.98 787.927 615.487 786.978 616.233 786.233C616.978 785.487 617.927 784.98 618.961 784.774C619.994 784.569 621.065 784.674 622.039 785.078C623.013 785.481 623.845 786.164 624.43 787.04C625.016 787.916 625.328 788.946 625.328 790C625.328 790.7 625.19 791.393 624.922 792.039C624.655 792.685 624.262 793.273 623.767 793.767C623.273 794.262 622.685 794.655 622.039 794.922C621.393 795.19 620.7 795.328 620 795.328Z"/></g><defs><filter id="filter0_f_102_652" width="984" height="984" x="75" y="-62" color-interpolation-filters="sRGB" filterUnits="userSpaceOnUse"><feFlood flood-opacity="0" result="BackgroundImageFix"/><feBlend in="SourceGraphic" in2="BackgroundImageFix" mode="normal" result="shape"/><feGaussianBlur result="effect1_foregroundBlur_102_652" stdDeviation="165"/></filter><filter id="filter1_f_102_652" width="574" height="574" x="-19" y="168" color-interpolation-filters="sRGB" filterUnits="userSpaceOnUse"><feFlood flood-opacity="0" result="BackgroundImageFix"/><feBlend in="SourceGraphic" in2="BackgroundImageFix" mode="normal" result="shape"/><feGaussianBlur result="effect1_foregroundBlur_102_652" stdDeviation="90"/></filter><clipPath id="clip0_102_652"><rect width="32" height="32" fill="#fff" transform="translate(604 773.507)"/></clipPath></defs></svg>