<svg width="1200" height="400" viewBox="0 0 1200 400" fill="none" xmlns="http://www.w3.org/2000/svg">
<path d="M484.7 222.8C492.7 222.8 499.8 220.2 506 215L518 233.3C513.5 236.8 508.2 239.55 502.1 241.55C496.1 243.45 490.25 244.4 484.55 244.4C468.65 244.4 455.05 239 443.75 228.2C432.45 217.4 426.8 204.4 426.8 189.2C426.8 174 432.45 161 443.75 150.2C455.05 139.4 468.65 134 484.55 134C490.25 134 496.1 135 502.1 137C508.2 138.9 513.5 141.6 518 145.1L506 163.4C499.8 158.2 492.7 155.6 484.7 155.6C475.4 155.6 467.4 158.9 460.7 165.5C454.1 172 450.8 179.9 450.8 189.2C450.8 198.5 454.1 206.45 460.7 213.05C467.4 219.55 475.4 222.8 484.7 222.8ZM563.366 223.4C570.466 223.4 576.466 221.1 581.366 216.5L593.666 232.55C585.466 240.45 575.666 244.4 564.266 244.4C552.066 244.4 542.316 240.75 535.016 233.45C527.716 226.15 524.066 217 524.066 206C524.066 195 527.716 185.85 535.016 178.55C542.316 171.25 552.066 167.6 564.266 167.6C567.266 167.6 570.266 168 573.266 168.8C576.366 169.6 579.616 171 583.016 173C586.516 174.9 589.616 177.85 592.316 181.85C595.116 185.85 597.166 190.7 598.466 196.4L555.866 221.9C557.566 222.9 560.066 223.4 563.366 223.4ZM564.266 188.6C559.066 188.6 554.716 190.4 551.216 194C547.716 197.5 546.366 201.95 547.166 207.35L572.066 192.5C570.466 189.9 567.866 188.6 564.266 188.6ZM632.114 170V183.35C634.514 178.25 637.764 174.5 641.864 172.1C646.064 169.6 651.614 168.1 658.514 167.6V194C654.214 192.8 649.814 192.8 645.314 194C641.614 195 638.464 197.4 635.864 201.2C633.364 205 632.114 209.75 632.114 215.45V242H608.114V170H632.114ZM681.232 242V191.6H669.232V170H681.232V148.4L705.232 141.2V170H724.432V191.6H705.232V242H681.232ZM772.434 167.6C783.834 167.6 793.484 171.35 801.384 178.85C809.284 186.25 813.234 195.3 813.234 206C813.234 216.7 809.284 225.8 801.384 233.3C793.584 240.7 783.934 244.4 772.434 244.4C760.634 244.4 750.884 240.7 743.184 233.3C735.484 225.9 731.634 216.8 731.634 206C731.634 195.1 735.434 186 743.034 178.7C750.634 171.3 760.434 167.6 772.434 167.6ZM760.584 217.85C763.884 221.15 767.834 222.8 772.434 222.8C777.034 222.8 780.984 221.15 784.284 217.85C787.584 214.55 789.234 210.6 789.234 206C789.234 201.4 787.584 197.45 784.284 194.15C780.984 190.85 777.034 189.2 772.434 189.2C767.834 189.2 763.884 190.85 760.584 194.15C757.284 197.45 755.634 201.4 755.634 206C755.634 210.6 757.284 214.55 760.584 217.85ZM849.35 170V177.2C854.75 170.8 861.9 167.6 870.8 167.6C881 167.6 889.55 171.35 896.45 178.85C903.45 186.25 906.95 195.3 906.95 206C906.95 216.7 903.45 225.8 896.45 233.3C889.55 240.7 881 244.4 870.8 244.4C861.9 244.4 854.75 241.2 849.35 234.8V280.4H825.35V170H849.35ZM854.3 217.85C857.6 221.15 861.55 222.8 866.15 222.8C870.75 222.8 874.7 221.15 878 217.85C881.3 214.55 882.95 210.6 882.95 206C882.95 201.4 881.3 197.45 878 194.15C874.7 190.85 870.75 189.2 866.15 189.2C861.55 189.2 857.6 190.85 854.3 194.15C851 197.45 849.35 201.4 849.35 206C849.35 210.6 851 214.55 854.3 217.85ZM946.525 244.4C938.525 244.4 931.725 241.45 926.125 235.55C920.525 229.65 917.725 221.4 917.725 210.8V170H941.725V208.4C941.725 218 945.725 222.8 953.725 222.8C956.625 222.8 959.325 221.4 961.825 218.6C964.425 215.8 965.725 211.6 965.725 206V170H989.725V242H965.725V234.8C961.525 241.2 955.125 244.4 946.525 244.4ZM1038.02 194.45C1057.82 197.75 1067.72 206 1067.72 219.2C1067.72 226.5 1064.82 232.55 1059.02 237.35C1053.32 242.05 1045.12 244.4 1034.42 244.4C1027.22 244.4 1020.77 243.2 1015.07 240.8C1009.47 238.3 1005.42 235.8 1002.92 233.3L1012.52 215.3C1018.72 220.3 1024.87 223.1 1030.97 223.7C1039.47 224.7 1043.72 223.55 1043.72 220.25C1043.72 218.75 1043.07 217.75 1041.77 217.25C1040.47 216.65 1037.97 216 1034.27 215.3C1034.07 215.3 1033.92 215.3 1033.82 215.3C1033.72 215.2 1033.57 215.15 1033.37 215.15C1033.17 215.05 1032.97 215 1032.77 215C1027.07 213.9 1022.37 212.45 1018.67 210.65C1014.97 208.75 1012.27 206.65 1010.57 204.35C1008.97 201.95 1007.87 199.75 1007.27 197.75C1006.77 195.75 1006.52 193.5 1006.52 191C1006.52 184.5 1009.22 179 1014.62 174.5C1020.02 169.9 1027.47 167.6 1036.97 167.6C1039.57 167.7 1042.32 168 1045.22 168.5C1051.62 169.9 1057.17 172.1 1061.87 175.1L1052.72 192.95C1048.32 189.75 1043.62 187.95 1038.62 187.55C1033.22 187.05 1030.52 187.95 1030.52 190.25C1030.52 191.45 1031.02 192.35 1032.02 192.95C1033.02 193.45 1035.02 193.95 1038.02 194.45Z" fill="#2C353D"/>
<path d="M1102.24 240.65C1099.74 243.15 1096.64 244.4 1092.94 244.4C1089.24 244.4 1086.09 243.15 1083.49 240.65C1080.99 238.05 1079.74 234.9 1079.74 231.2C1079.74 227.5 1080.99 224.4 1083.49 221.9C1086.09 219.3 1089.24 218 1092.94 218C1096.64 218 1099.74 219.3 1102.24 221.9C1104.84 224.4 1106.14 227.5 1106.14 231.2C1106.14 234.9 1104.84 238.05 1102.24 240.65Z" fill="#FF6E30"/>
<circle cx="235" cy="200" r="150" fill="white"/>
<path fill-rule="evenodd" clip-rule="evenodd" d="M385 200C385 282.843 317.843 350 235 350C152.157 350 85 282.843 85 200C85 117.157 152.157 50 235 50C317.843 50 385 117.157 385 200ZM345 200C345 260.751 295.751 310 235 310C174.249 310 125 260.751 125 200C125 139.249 174.249 90 235 90C295.751 90 345 139.249 345 200Z" fill="#FF6E30"/>
<path d="M166.759 234.256C164.57 234.247 163.044 231.947 162.163 230.58C158.755 225.289 159.199 219.192 159.403 216.793C159.784 212.222 161.255 207.81 163.692 203.925C166.649 199.368 170.315 197.14 175.64 193.814C178.877 191.829 182.257 190.088 185.752 188.605C194.563 185.032 282.539 186.769 285.938 190.75C291.777 197.587 293.387 209.796 291.454 219.856C289.927 227.795 285.663 235.153 284.407 237.321C283.67 238.591 283.799 238.267 275.215 250.801C269.426 259.253 268.495 260.677 267.556 262.137C264.142 267.454 263.989 268.091 260.815 272.861C257.431 277.946 257.006 278.125 255.3 281.133C252.996 285.198 251.7 287.487 250.705 290.937C249.381 295.536 249.782 298.085 247.64 299.517C246.071 300.566 244.195 300.305 243.045 300.13C237.865 299.338 234.556 294.73 230.177 288.49C227.557 284.756 226.022 282.568 224.662 278.992C222.979 274.6 222.248 269.901 222.517 265.205C222.877 260.947 224.019 256.792 225.887 252.949C228.185 248.12 231.421 244.549 237.836 237.63C241.338 233.85 240.728 234.783 248.262 226.925C249.13 226.021 253.676 221.258 258.977 214.651C263.254 209.321 263.483 208.448 263.266 208.218C262.986 207.918 261.8 208.492 255.913 212.507C249.781 216.688 245.496 219.86 245.496 219.86C241.504 222.815 238.426 225.093 234.16 228.44C227.253 233.856 223.799 236.565 222.52 237.938C220.6 239.996 214.232 247.209 211.796 257.24C211.074 260.265 210.562 263.336 210.265 266.431C209.842 271.557 209.63 274.119 209.651 274.398C209.761 275.803 209.957 276.781 209.345 277.461C208.096 278.849 204.672 277.671 203.218 277.155C195.934 274.57 191.212 269.028 189.43 266.738C186.413 262.785 184.13 258.323 182.69 253.563C181.752 250.508 180.091 245.103 180.851 238.55C182.285 226.195 191.34 218.299 193.413 216.491C196.462 213.832 201.573 210.94 211.796 205.155C216.673 202.395 220.561 200.362 220.376 199.947C220.171 199.489 215.351 201.701 206.896 203.929C200.439 205.631 199.94 205.213 195.559 206.689C192.193 207.822 188.305 209.161 183.919 212.204C179.005 215.612 176.239 219.234 174.115 222.009C172.351 224.316 171.461 225.504 171.051 227.217C170.477 229.617 171.102 231.195 169.825 232.732C169.441 233.177 168.973 233.542 168.446 233.804C167.919 234.066 167.346 234.22 166.759 234.256Z" fill="#2C353D"/>
<path fill-rule="evenodd" clip-rule="evenodd" d="M218.87 102.512C224.358 100.972 230.022 100.148 235.722 100.061V100.058C244.964 99.6229 254.157 101.63 262.377 105.878C266.232 107.643 269.838 109.91 273.1 112.619C275.593 114.745 277.258 116.679 280.759 121.199C283.968 125.339 285.752 127.819 287.568 130.344C288.655 131.855 289.754 133.383 291.177 135.292C293.687 138.66 295.594 141.051 298.334 144.487C300.444 147.133 303.048 150.399 306.802 155.207C315.037 165.753 313.94 164.683 312.899 163.52C313.561 164.334 314.089 165.251 314.462 166.237C315.384 168.986 314.538 171.559 314.155 172.671C313.26 175.275 311.772 176.839 309.866 178.799C307.682 181.055 305.21 183.012 302.513 184.619C298.247 187.063 293.577 188.724 288.726 189.521C287.473 189.732 286.137 189.936 284.725 190.133C286.839 189.044 289.926 179.617 289.926 179.617C290.451 177.329 290.826 175.009 291.049 172.672C291.21 171.248 291.279 169.816 291.254 168.383C291.199 166.813 291.034 165.249 290.76 163.703C290.471 161.762 290.075 159.839 289.572 157.943C288.837 155.301 287.911 152.716 286.801 150.209C285.329 146.659 284.486 144.625 282.83 142.013C281.688 140.201 280.39 138.492 278.949 136.906L278.948 136.904C277.057 134.84 274.827 132.406 271.188 130.779C268.702 129.575 265.955 129.013 263.196 129.145C260.6 129.311 258.816 130.141 255.256 131.8C253.651 132.548 252.919 132.986 251.894 133.598C250.856 134.219 249.519 135.018 246.676 136.498C246.676 136.498 243.832 137.978 239.935 139.562C238.691 140.111 237.389 140.522 236.055 140.787C234.574 141.07 233.061 141.139 231.561 140.992C229.863 140.77 228.209 140.288 226.659 139.562C225.675 139.149 224.719 138.672 223.798 138.134C221.095 136.562 219.094 135.366 217.53 134.432C214.32 132.513 212.952 131.696 211.134 130.986C207.784 129.576 204.118 129.083 200.514 129.556C194.929 130.396 191.298 133.689 188.874 135.887C184.413 139.93 182.357 144.268 180.908 147.326C179.384 150.504 178.285 153.869 177.64 157.334C177.107 160.437 176.97 163.594 177.231 166.73C177.424 170.561 177.956 174.367 178.822 178.104C180.15 183.309 181.581 188.307 183.255 189.699C181.841 189.37 180.436 189.004 179.04 188.602C173.451 187.053 169.581 185.948 165.253 183.087C160.926 180.226 158.916 177.439 157.9 175.733C156.717 174.035 156.058 172.028 156.004 169.959C155.949 167.891 156.502 165.851 157.594 164.093C158.879 161.533 160.445 159.993 161.706 158.752C161.873 158.587 162.034 158.429 162.189 158.273C163.964 156.494 164.587 155.46 166.118 152.923C166.966 151.517 168.093 149.649 169.849 146.937C171.09 145.021 175.048 138.93 179.959 132.537C183.432 128.018 186.765 123.714 191.908 118.75L191.937 118.723C195.567 115.222 198.999 111.912 204.47 108.639C208.99 105.992 213.829 103.933 218.87 102.512ZM312.384 162.936C312.369 162.918 312.354 162.901 312.34 162.886C312.209 162.735 312.171 162.691 312.317 162.866C312.34 162.889 312.362 162.913 312.384 162.936Z" fill="#2C353D"/>
<path d="M209.78 158.171C210.27 156.098 212.231 154.29 212.232 154.29C211.736 153.813 211.193 153.386 210.612 153.017C209.776 152.636 208.847 152.511 207.94 152.657C206.533 152.738 205.183 153.236 204.059 154.087C202.331 155.41 201.106 157.283 200.587 159.397C199.955 161.6 199.955 163.935 200.587 166.138C201.141 168.095 202.117 169.908 203.446 171.448C204.748 173.177 206.515 174.499 208.541 175.258C210.567 176.018 212.768 176.184 214.885 175.738C216.526 175.441 218.111 174.89 219.583 174.104C221.917 172.997 222.303 172.339 222.442 172.064C222.922 171.109 222.73 170.144 222.442 168.796C222.147 167.186 221.521 165.656 220.604 164.302C219.866 163.246 219.539 162.673 219.539 162.673C218.822 163.333 218.011 163.882 217.132 164.302C216.002 164.783 214.742 164.868 213.557 164.542L213.455 164.509C212.372 164.135 211.439 163.419 210.8 162.469C210.596 162.171 209.285 160.273 209.78 158.171Z" fill="#2C353D"/>
<path d="M260.7 158.171C260.211 156.098 258.249 154.29 258.249 154.29C258.745 153.813 259.287 153.387 259.866 153.017C260.702 152.636 261.632 152.511 262.539 152.657C263.946 152.738 265.296 153.236 266.42 154.087C268.148 155.41 269.373 157.283 269.892 159.397C270.524 161.599 270.524 163.935 269.892 166.138C269.338 168.095 268.362 169.908 267.032 171.448C265.731 173.177 263.964 174.499 261.938 175.259C259.912 176.018 257.711 176.184 255.594 175.738C253.952 175.441 252.367 174.89 250.896 174.104C248.562 172.997 248.175 172.339 248.037 172.064C247.557 171.109 247.749 170.144 248.037 168.796C248.332 167.186 248.958 165.656 249.875 164.302C250.612 163.246 250.939 162.673 250.939 162.673C251.656 163.333 252.468 163.882 253.347 164.302C254.477 164.783 255.737 164.868 256.921 164.542C256.966 164.528 257 164.516 257.024 164.509C258.107 164.135 259.039 163.419 259.679 162.469C259.884 162.171 261.195 160.273 260.7 158.171Z" fill="#2C353D"/>
</svg>
