<svg width="39" height="42" viewBox="0 0 39 42" fill="none" xmlns="http://www.w3.org/2000/svg">
<g clip-path="url(#clip0_102_222)">
<path d="M20.6503 0.035C22.9428 0 25.2178 0.0175 27.4928 0C27.6328 2.6775 28.5953 5.4075 30.5553 7.2975C32.5153 9.24 35.2803 10.1325 37.9753 10.43V17.4825C35.4553 17.395 32.9178 16.87 30.6253 15.785C29.6278 15.33 28.7003 14.7525 27.7903 14.1575C27.7728 19.2675 27.8078 24.3775 27.7553 29.47C27.6153 31.92 26.8103 34.3525 25.3928 36.365C23.1003 39.725 19.1278 41.9125 15.0504 41.9825C12.5479 42.1225 10.0454 41.44 7.9104 40.18C4.3754 38.0975 1.89041 34.2825 1.52291 30.1875C1.48791 29.3125 1.47041 28.4375 1.50541 27.58C1.82041 24.255 3.4654 21.07 6.0204 18.9C8.9254 16.38 12.9854 15.1725 16.7829 15.89C16.8179 18.48 16.7129 21.07 16.7129 23.66C14.9804 23.1 12.9504 23.2575 11.4279 24.3075C10.3254 25.025 9.4854 26.1275 9.0479 27.37C8.6804 28.2625 8.7854 29.2425 8.8029 30.1875C9.2229 33.0575 11.9879 35.4725 14.9279 35.21C16.8879 35.1925 18.7603 34.055 19.7753 32.3925C20.1078 31.815 20.4753 31.22 20.4928 30.5375C20.6678 27.405 20.5978 24.29 20.6153 21.1575C20.6328 14.105 20.5978 7.07 20.6503 0.035Z" fill="#0A0F0D"/>
</g>
<defs>
<clipPath id="clip0_102_222">
<rect width="38.5" height="42" fill="white" transform="translate(0.25)"/>
</clipPath>
</defs>
</svg>
