<svg width="39" height="42" viewBox="0 0 39 42" fill="none" xmlns="http://www.w3.org/2000/svg">
<path d="M25.3214 41.9633L37.9494 39.2315C37.9494 39.2315 33.3924 8.40875 33.3557 8.204C33.3242 8.001 33.1562 7.868 32.9864 7.868C32.8167 7.868 29.6107 7.63 29.6107 7.63C29.6107 7.63 27.3794 5.4005 27.0924 5.16075C27.0137 5.096 26.9612 5.061 26.8807 5.03125L25.2812 41.9633H25.3214ZM18.9742 19.7838C18.9742 19.7838 17.5567 19.0417 15.8696 19.0417C13.3374 19.0417 13.2376 20.6273 13.2376 21.0385C13.2376 23.1945 18.9077 24.0397 18.9077 29.1392C18.9077 33.1555 16.3876 35.7192 12.9471 35.7192C8.82763 35.7192 6.75213 33.1555 6.75213 33.1555L7.88263 29.505C7.88263 29.505 10.0614 31.3705 11.8726 31.3705C13.0539 31.3705 13.5789 30.4167 13.5789 29.7395C13.5789 26.9062 8.93438 26.775 8.93438 22.1113C8.87488 18.1965 11.6836 14.3832 17.3816 14.3832C19.5814 14.3832 20.6629 15.015 20.6629 15.015L19.0092 19.7663L18.9742 19.7838ZM18.0292 1.4525C18.2672 1.4525 18.5034 1.519 18.7379 1.68875C17.0159 2.5025 15.1259 4.557 14.3489 8.67475C13.2009 9.0475 12.0861 9.3835 11.0431 9.68625C11.9514 6.5625 14.1459 1.47 18.0292 1.47V1.4525ZM20.1904 6.61325V6.8495C18.8709 7.2555 17.4201 7.6965 16.0009 8.1375C16.8164 5.02775 18.3337 3.50875 19.6497 2.93825C19.9874 3.815 20.1904 4.99625 20.1904 6.61325ZM21.1337 2.70375C22.3482 2.83325 23.1304 4.221 23.6344 5.775C23.0237 5.9745 22.3482 6.17925 21.6079 6.4155V5.9745C21.6079 4.6585 21.4399 3.57525 21.1337 2.70025V2.70375ZM26.3697 4.9595C26.3347 4.9595 26.2647 4.99625 26.2332 4.99625C26.2017 4.99625 25.7274 5.1275 24.9837 5.36375C24.2434 3.206 22.9257 1.21625 20.5947 1.21625H20.3934C19.7179 0.36575 18.9024 0 18.1954 0C12.7599 0 10.1629 6.78475 9.34913 10.2305C7.25963 10.8693 5.73888 11.3435 5.56913 11.41C4.38788 11.7827 4.35463 11.816 4.21813 12.9325C4.08688 13.741 1.01562 37.5427 1.01562 37.5427L24.7474 42L26.3697 4.9595Z" fill="#0A0F0D"/>
</svg>
