<svg width="45" height="42" viewBox="0 0 45 42" fill="none" xmlns="http://www.w3.org/2000/svg">
<g clip-path="url(#clip0_102_224)">
<path d="M22.0927 1.38774C23.8252 1.38774 29.7 1.87073 32.4702 8.07448C33.396 10.1622 33.1755 13.7077 32.9935 16.5567L32.9882 16.6617C32.9672 16.9767 32.9497 17.2655 32.9357 17.5542C33.067 17.633 33.291 17.7117 33.6375 17.7117C34.1625 17.6837 34.7907 17.5017 35.4452 17.185C35.734 17.031 36.0472 17.003 36.2572 17.003C36.5757 17.003 36.8855 17.0537 37.148 17.1605C37.9355 17.4212 38.4325 17.9987 38.4325 18.627C38.4587 19.4127 37.75 20.0952 36.3097 20.671C36.154 20.7217 35.944 20.8022 35.7077 20.8792C34.9202 21.1155 33.7145 21.5092 33.375 22.2967C33.2175 22.6887 33.2682 23.2137 33.585 23.8157L33.6112 23.842C33.7162 24.08 36.2817 29.9232 41.9955 30.8665C42.4417 30.9435 42.7567 31.339 42.7305 31.7572C42.7305 31.8885 42.7042 32.018 42.6517 32.151C42.2317 33.1467 40.424 33.88 37.1462 34.3752C37.043 34.5345 36.9362 35.0315 36.8592 35.3727C36.8085 35.686 36.7297 36.0027 36.6247 36.3405C36.4917 36.8147 36.1522 37.0492 35.6535 37.0492H35.601C35.3647 37.0492 35.0532 36.995 34.6595 36.9197C34.0295 36.7885 33.3207 36.6835 32.4317 36.6835C31.9067 36.6835 31.3835 36.7097 30.834 36.813C29.784 36.995 28.8687 37.625 27.8187 38.36C26.326 39.4082 24.6232 40.614 22.0542 40.614C21.9492 40.614 21.846 40.5877 21.7392 40.5877H21.4785C18.9095 40.5877 17.2312 39.4065 15.7402 38.3337C14.6919 37.5987 13.8029 36.9705 12.7529 36.7867C12.2034 36.708 11.6522 36.6572 11.1289 36.6572C10.1839 36.6572 9.45244 36.813 8.90294 36.918C8.53369 36.9932 8.21871 37.0475 7.95794 37.0475C7.30344 37.0475 7.04269 36.6555 6.93769 36.3125C6.83094 35.9765 6.78021 35.6317 6.70144 35.3202C6.62094 35.0035 6.51769 34.4557 6.41094 34.3227C3.05444 33.9342 1.24845 33.1992 0.830198 32.1772C0.775948 32.067 0.739198 31.9147 0.733948 31.7835C0.707698 31.3582 1.0227 30.9697 1.46895 30.8927C7.18094 29.9477 9.74644 24.1045 9.85319 23.8577L9.88119 23.807C10.1962 23.2032 10.2732 22.6782 10.0894 22.2862C9.74819 21.5267 8.54244 21.1347 7.75844 20.8705C7.54669 20.8197 7.33844 20.741 7.15294 20.6622C5.21569 19.901 4.95319 19.0347 5.05819 18.4345C5.21569 17.5962 6.23771 17.0467 7.10221 17.0467C7.35769 17.0467 7.57469 17.0975 7.77244 17.1762C8.50744 17.5157 9.15319 17.7012 9.70444 17.7012C10.1139 17.7012 10.3764 17.5962 10.5182 17.5175L10.4377 16.5217C10.2662 13.6762 10.0439 10.1325 10.9749 8.05698C13.6682 1.88473 19.5255 1.41224 21.2545 1.41224L21.9877 1.38599H22.0927V1.38774Z" fill="#0A0F0D"/>
</g>
<defs>
<clipPath id="clip0_102_224">
<rect width="43.75" height="42" fill="white" transform="translate(0.5)"/>
</clipPath>
</defs>
</svg>
