<svg width="39" height="42" viewBox="0 0 39 42" fill="none" xmlns="http://www.w3.org/2000/svg">
<g clip-path="url(#clip0_102_218)">
<path d="M38.4537 5.24704V36.7448C38.4688 39.6275 36.1442 41.9767 33.2615 41.992C33.0464 41.9932 32.8315 41.9809 32.618 41.9556C29.944 41.5601 27.9845 39.2329 28.0496 36.5306V5.46089C27.985 2.75574 29.9494 0.427539 32.6271 0.0358886C35.4903 -0.299236 38.0832 1.75019 38.4184 4.61354C38.4429 4.82372 38.4548 5.03529 38.4537 5.24687V5.24704ZM5.71572 31.5961C2.84275 31.5961 0.513672 33.9253 0.513672 36.7981C0.513672 39.6711 2.84275 42.0002 5.71572 42.0002C8.5887 42.0002 10.9178 39.6711 10.9178 36.7981C10.9178 33.9252 8.58852 31.5961 5.71572 31.5961ZM19.4932 15.8289C19.4632 15.8289 19.4333 15.8289 19.4034 15.8295C16.5167 15.9877 14.2771 18.409 14.3441 21.2993V35.2723C14.3441 39.0646 16.0127 41.3667 18.4575 41.8576C21.2782 42.4291 24.0281 40.606 24.5997 37.7853C24.6697 37.4399 24.7047 37.0883 24.7034 36.7357V21.0583C24.7087 18.1753 22.3759 15.8342 19.4932 15.8289Z" fill="#0A0F0D"/>
</g>
<defs>
<clipPath id="clip0_102_218">
<rect width="38.5" height="42" fill="white"/>
</clipPath>
</defs>
</svg>
