<svg width="45" height="42" viewBox="0 0 45 42" fill="none" xmlns="http://www.w3.org/2000/svg">
<g clip-path="url(#clip0_102_206)">
<path fill-rule="evenodd" clip-rule="evenodd" d="M42.7827 20.9844C42.7827 32.5619 33.3974 41.9471 21.8201 41.9471C10.2427 41.9471 0.857422 32.5619 0.857422 20.9844C0.857422 9.40716 10.2427 0.0218811 21.8201 0.0218811C33.3974 0.0218811 42.7827 9.40716 42.7827 20.9844ZM13.4312 29.278H23.8207C23.9803 29.278 24.0601 29.0792 23.9803 28.9399L15.5849 18.5391C15.4652 18.4 15.2658 18.4595 15.2259 18.6186L13.2118 29.0195C13.1919 29.1588 13.2916 29.278 13.4312 29.278ZM13.2359 13.5782H23.6254C23.7651 13.5782 23.8648 13.6976 23.8449 13.8368L21.8306 24.2377C21.7907 24.3969 21.5914 24.4564 21.4717 24.3173L13.0764 13.8964C12.9766 13.7771 13.0564 13.5782 13.2359 13.5782ZM24.6817 13.7373C24.7017 13.6578 24.7815 13.5782 24.8812 13.5782H32.3593C32.479 13.5782 32.5987 13.6975 32.5786 13.8169L31.1826 20.5784C31.1629 20.6778 31.0831 20.7375 30.9833 20.7375H30.764C27.0748 20.7375 24.1434 17.3368 24.6817 13.7373Z" fill="#0A0F0D"/>
</g>
<defs>
<clipPath id="clip0_102_206">
<rect width="43.75" height="42" fill="white" transform="translate(0.625)"/>
</clipPath>
</defs>
</svg>
