<svg width="66" height="42" viewBox="0 0 66 42" fill="none" xmlns="http://www.w3.org/2000/svg">
<path d="M2.04888 18.6713L30.2954 0.920756C30.8976 0.588567 31.5817 0.413574 32.2781 0.413574C32.9748 0.413574 33.6589 0.588567 34.2608 0.920756L62.5076 18.6713C62.8882 18.8464 63.209 19.1196 63.4337 19.4597C63.6581 19.7997 63.7773 20.1929 63.7773 20.5942C63.7773 20.9955 63.6581 21.3887 63.4337 21.7287C63.209 22.0688 62.8882 22.342 62.5076 22.5171L58.7205 24.8839C55.8955 20.6504 51.9879 17.1633 47.3608 14.747C42.7337 12.3306 37.5378 11.0636 32.2558 11.0636C26.974 11.0636 21.778 12.3306 17.1509 14.747C12.5239 17.1633 8.61622 20.6504 5.7913 24.8839L2.00425 22.5171C1.62982 22.3347 1.31636 22.0569 1.09899 21.715C0.881622 21.373 0.768942 20.9804 0.773575 20.5811C0.778208 20.1818 0.899974 19.7917 1.12523 19.4543C1.35048 19.117 1.67031 18.8458 2.04888 18.6713ZM32.2561 18.4599C28.2671 18.4685 24.3454 19.434 20.8556 21.2665C17.3658 23.0991 14.4213 25.7391 12.2961 28.941L18.8008 33.0408C20.1941 30.8486 22.1609 29.035 24.5105 27.7763C26.8601 26.5174 29.5129 25.8559 32.2114 25.8559C34.9097 25.8559 37.5625 26.5174 39.9121 27.7763C42.2618 29.035 44.2284 30.8486 45.6218 33.0408L52.1265 28.941C50.0323 25.7312 47.1067 23.0829 43.6286 21.2483C40.1507 19.4137 36.2356 18.4539 32.2561 18.4599ZM32.2561 33.2943C30.8501 33.3033 29.4715 33.6634 28.2592 34.3386C27.0467 35.0137 26.0434 35.98 25.3501 37.1402L29.7164 39.845C30.4267 40.4149 31.3258 40.7291 32.2561 40.7325C33.1874 40.7365 34.0894 40.4212 34.7955 39.845L39.1616 37.1402C38.4742 35.9753 37.4722 35.0051 36.2584 34.3291C35.0449 33.6532 33.6633 33.2962 32.2561 33.2943Z" fill="#0A0F0D"/>
</svg>
