<svg width="43" height="42" viewBox="0 0 43 42" fill="none" xmlns="http://www.w3.org/2000/svg">
<g clip-path="url(#clip0_102_220)">
<path d="M42.75 21.1277C42.75 9.5305 33.3472 0.127747 21.75 0.127747C10.1528 0.127747 0.75 9.5305 0.75 21.1277C0.75 31.6102 8.429 40.2972 18.4688 41.8722V27.1985H13.1365V21.126H18.4688V16.5025C18.4688 11.2402 21.6048 8.33175 26.4015 8.33175C28.6975 8.33175 31.102 8.743 31.102 8.743V13.9107H28.4525C25.8432 13.9107 25.0295 15.5295 25.0295 17.1902V21.1277H30.8535L29.9225 27.2002H25.0295V41.874C35.071 40.2972 42.75 31.6085 42.75 21.1277Z" fill="#0A0F0D"/>
</g>
<defs>
<clipPath id="clip0_102_220">
<rect width="42" height="42" fill="white" transform="translate(0.75)"/>
</clipPath>
</defs>
</svg>
