<svg width="34" height="23" viewBox="0 0 34 23" fill="none" xmlns="http://www.w3.org/2000/svg">
<ellipse cx="17" cy="11.6853" rx="16" ry="10.396" stroke="#0A0F0D" stroke-opacity="0.8"/>
<path d="M26.2419 8.16884C25.5905 8.34631 24.9139 8.48814 24.2099 8.54161C24.9586 8.24755 25.5175 7.78681 25.7825 7.24507C25.0892 7.51732 24.3287 7.70951 23.5345 7.81314C23.1982 7.57855 22.7914 7.39127 22.3393 7.26291C21.8872 7.13454 21.3993 7.06782 20.9059 7.06686C18.9288 7.06686 17.3585 8.11537 17.3585 9.39408C17.3585 9.5723 17.3848 9.74977 17.4385 9.92725C14.4876 9.83814 11.8602 8.89656 10.1265 7.49384C9.81097 7.8505 9.64322 8.25424 9.63963 8.66562C9.63963 9.48245 10.2625 10.1938 11.2099 10.6022C10.6514 10.586 10.1055 10.4888 9.6122 10.3178V10.3535C9.6122 11.4896 10.8305 12.4319 12.4556 12.6451C12.1469 12.702 11.8279 12.732 11.5071 12.7342C11.2911 12.7342 11.0476 12.7156 10.8305 12.6985C11.0563 13.1603 11.4991 13.5645 12.0966 13.8543C12.6941 14.1441 13.4164 14.305 14.1619 14.3144C12.9033 14.9579 11.3486 15.3083 9.74706 15.3094C9.46668 15.307 9.18669 15.2951 8.9082 15.2738C10.5374 15.9431 12.4241 16.3004 14.3516 16.3045C20.9059 16.3045 24.4808 12.7513 24.4808 9.66066V9.35844C25.167 9.02962 25.7622 8.62735 26.2408 8.16884H26.2419Z" fill="#0A0F0D" fill-opacity="0.8"/>
</svg>
