<svg width="34" height="23" viewBox="0 0 34 23" fill="none" xmlns="http://www.w3.org/2000/svg">
<ellipse cx="17" cy="11.6853" rx="16" ry="10.396" stroke="#0A0F0D" stroke-opacity="0.8"/>
<path d="M17.9529 6.69131C19.2329 6.6935 19.5192 6.70062 20.1904 6.72086C21.4072 6.75752 22.4758 6.9534 23.3331 7.51807C24.1904 8.08274 24.4885 8.78584 24.544 9.58633C24.5752 10.0312 24.5861 10.2199 24.5887 11.0779V12.158C24.5853 13.0159 24.5752 13.2041 24.544 13.649C24.4885 14.45 24.1904 15.1537 23.3331 15.7178C22.475 16.2825 21.4064 16.4783 20.1904 16.515C19.392 16.5391 19.1377 16.5446 17.1049 16.5446H16.8691C15.0501 16.5446 14.7857 16.538 14.0186 16.515C12.8017 16.4783 11.7339 16.2825 10.8767 15.7178C10.0186 15.1531 9.7213 14.45 9.66488 13.6495C9.63457 13.2041 9.62362 13.0159 9.62109 12.158V11.0779C9.62362 10.2194 9.63457 10.0312 9.66488 9.58633C9.7213 8.78584 10.0186 8.08219 10.8767 7.51807C11.7339 6.95286 12.8026 6.75752 14.0186 6.72086C14.6897 6.70062 14.9769 6.6935 16.256 6.69131H17.9529ZM17.7516 7.57881H16.4573C15.0417 7.58045 14.7748 7.58647 14.0809 7.60726C13.2287 7.63298 12.4388 7.74514 11.8299 8.14566C11.2219 8.54618 11.051 9.06653 11.0131 9.62737C10.9811 10.0842 10.971 10.2599 10.9693 11.1922V12.0442C10.971 12.976 10.9811 13.1516 11.0123 13.609C11.051 14.1693 11.2228 14.6897 11.8299 15.0902C12.4379 15.4902 13.2287 15.6029 14.0809 15.6281C14.7748 15.6489 15.0409 15.6554 16.4573 15.6565H17.7516C19.168 15.6554 19.4341 15.6489 20.1289 15.6281C20.9803 15.6029 21.771 15.4902 22.379 15.0902C22.987 14.6897 23.1579 14.1693 23.1967 13.6085C23.2287 13.1516 23.2388 12.976 23.2396 12.0436V11.1922C23.2379 10.2604 23.2287 10.0848 23.1975 9.62737C23.1579 9.06708 22.987 8.54673 22.379 8.14621C21.771 7.74569 20.9811 7.63352 20.1289 7.60781C19.4341 7.58701 19.168 7.58045 17.7516 7.57935V7.57881ZM17.1049 9.08787C19.227 9.08787 20.9474 10.2205 20.9474 11.6179C20.9474 13.0148 19.227 14.1475 17.1049 14.1475C14.9828 14.1475 13.2615 13.0148 13.2615 11.6179C13.2615 10.221 14.9819 9.08787 17.1049 9.08787V9.08787ZM17.1049 9.97591C15.7272 9.97591 14.6097 10.7107 14.6097 11.6174C14.6097 12.5246 15.7264 13.26 17.1049 13.26C18.4826 13.26 19.5992 12.5251 19.5992 11.6179C19.5992 10.7107 18.4834 9.97591 17.1049 9.97591V9.97591ZM21.0998 8.39681C21.5958 8.39681 21.9984 8.66109 21.9984 8.98774C21.9984 9.3144 21.5958 9.57867 21.0998 9.57867C20.8603 9.57752 20.6312 9.51464 20.4629 9.40385C20.2946 9.29306 20.2008 9.14341 20.2021 8.98774C20.2021 8.66109 20.6038 8.39681 21.0998 8.39681Z" fill="#0A0F0D" fill-opacity="0.8"/>
</svg>
