<svg width="1170" height="22" viewBox="0 0 1170 22" fill="none" xmlns="http://www.w3.org/2000/svg">
<path d="M1169.99 15.5296C1169.6 15.8244 1169.28 16.1952 1168.81 16.3988C1167.73 16.8608 1166.64 16.6075 1165.68 15.7606C1161.7 16.8983 1158.28 16.4211 1156.09 14.4223C1155.12 13.5252 1154.61 12.4335 1154.66 11.3203C1154.7 10.2071 1155.3 9.13635 1156.35 8.27788C1157.47 7.37473 1159.02 6.76881 1160.74 6.56869C1162.45 6.36857 1164.22 6.58733 1165.72 7.18576C1166.87 6.37529 1167.8 6.17976 1168.84 6.63768C1169.31 6.84536 1169.62 7.22122 1170 7.5211L1169.99 15.5296ZM1158.54 11.4833C1158.56 12.0976 1158.93 12.6826 1159.58 13.1119C1160.23 13.5413 1161.11 13.7805 1162.02 13.778C1163.9 13.7689 1165.5 12.7051 1165.48 11.46C1165.47 10.2149 1163.88 9.13597 1162.02 9.12989C1161.1 9.13177 1160.22 9.38035 1159.56 9.82132C1158.91 10.2623 1158.54 10.8598 1158.54 11.4833V11.4833ZM1141.51 16.3036V19.2011C1141.51 19.4543 1141.52 19.7076 1141.51 19.9609C1141.44 20.8271 1140.5 21.4319 1139.21 21.442C1137.93 21.4522 1136.93 20.8524 1136.84 20.0105C1136.79 19.4726 1136.82 18.9296 1136.82 18.3896C1136.82 15.0464 1136.83 11.7032 1136.81 8.35994C1136.81 7.61126 1137.04 6.97504 1138.08 6.61134C1139.08 6.26284 1140 6.38745 1140.87 6.86765C1141 6.94161 1141.37 6.88994 1141.58 6.82713C1146.07 5.51011 1151.25 7.25769 1152.23 10.454C1152.82 12.3688 1152.06 14.0556 1149.91 15.3766C1147.73 16.7251 1145.15 17.0614 1142.31 16.4779C1142.09 16.4282 1141.88 16.3806 1141.51 16.3036ZM1144.76 9.11064C1144.28 9.10757 1143.8 9.16875 1143.36 9.29066C1142.91 9.41257 1142.5 9.5928 1142.16 9.82097C1141.82 10.0491 1141.55 10.3207 1141.36 10.6201C1141.18 10.9195 1141.08 11.2408 1141.08 11.5654C1141.08 12.0528 1141.29 12.5299 1141.68 12.9364C1142.08 13.343 1142.65 13.6608 1143.32 13.8497C1143.98 14.0385 1144.72 14.09 1145.43 13.9976C1146.13 13.9052 1146.79 13.673 1147.3 13.3304C1147.81 12.9878 1148.17 12.5502 1148.31 12.0728C1148.46 11.5954 1148.39 11.0996 1148.12 10.648C1147.85 10.1965 1147.38 9.80948 1146.78 9.53585C1146.19 9.26222 1145.48 9.11425 1144.76 9.11064V9.11064ZM1123 16.3036C1123 17.5629 1123.01 18.7432 1122.99 19.9234C1122.99 20.2387 1122.85 20.5463 1122.57 20.8024C1122.3 21.0585 1121.92 21.2501 1121.47 21.3498C1120.52 21.5525 1119.57 21.4755 1118.95 20.9243C1118.58 20.5932 1118.36 20.1932 1118.33 19.7775C1118.29 15.8781 1118.31 11.9767 1118.3 8.07931C1118.3 7.41472 1118.69 6.89602 1119.58 6.59209C1120.47 6.28816 1121.4 6.34084 1122.17 6.78863C1122.56 7.0186 1122.84 6.88386 1123.18 6.78863C1127.64 5.54252 1132.63 7.23338 1133.67 10.373C1134.32 12.3262 1133.55 14.0302 1131.36 15.3787C1129.17 16.7271 1126.63 17.0442 1123.83 16.4809C1123.59 16.4343 1123.36 16.3837 1123 16.3036ZM1126.17 14.016C1126.89 14.0183 1127.6 13.8764 1128.2 13.6083C1128.8 13.3403 1129.27 12.9582 1129.54 12.5103C1129.82 12.0624 1129.9 11.5689 1129.76 11.0923C1129.62 10.6156 1129.28 10.1771 1128.77 9.83241C1128.26 9.48768 1127.62 9.25214 1126.91 9.15561C1126.21 9.05907 1125.47 9.10587 1124.81 9.29009C1124.14 9.47431 1123.57 9.78766 1123.17 10.1905C1122.77 10.5934 1122.55 11.0676 1122.55 11.5532C1122.55 12.8763 1124.21 14.011 1126.17 14.0201V14.016ZM1099.92 8.33157V3.00979C1099.93 1.97846 1100.87 1.30981 1102.29 1.30981C1103.71 1.30981 1104.63 2.00176 1104.63 3.02498C1104.63 6.31957 1104.64 9.6101 1104.62 12.9087C1104.62 13.3403 1104.74 13.6179 1105.41 13.7992C1106.51 14.1032 1106.99 14.9005 1106.66 15.6461C1106.5 16.015 1106.16 16.3342 1105.68 16.5465C1105.21 16.7588 1104.64 16.8501 1104.08 16.8041C1101.57 16.6197 1099.95 15.406 1099.93 13.6534C1099.91 11.8794 1099.92 10.1055 1099.92 8.33157ZM1091.58 11.5948L1095.28 13.8833C1096.44 14.6016 1096.59 15.5985 1095.64 16.2996C1094.68 17.0006 1093.2 16.9854 1092.03 16.2682C1090.18 15.1375 1088.33 14.0063 1086.48 12.8743C1085.28 12.1388 1085.27 11.0983 1086.46 10.3557C1088.33 9.19135 1090.21 8.03136 1092.1 6.87576C1093.21 6.19597 1094.72 6.21927 1095.65 6.90919C1096.58 7.59911 1096.46 8.56965 1095.38 9.25552C1094.14 10.0356 1092.88 10.7985 1091.58 11.5948V11.5948ZM1109.78 11.5613C1109.78 10.3973 1109.78 9.2312 1109.78 8.06918C1109.79 7.06926 1110.78 6.39859 1112.21 6.40467C1113.59 6.40973 1114.56 7.08446 1114.57 8.06209C1114.58 10.4084 1114.58 12.7541 1114.57 15.099C1114.57 16.0929 1113.53 16.8213 1112.18 16.8142C1110.79 16.8031 1109.79 16.0959 1109.78 15.1051C1109.78 13.9239 1109.78 12.7426 1109.78 11.5613V11.5613ZM1080.02 5.38651C1080.02 4.61048 1080 3.83445 1080.02 3.05639C1080.05 1.97542 1080.98 1.30981 1082.4 1.30981C1083.86 1.31488 1084.8 2.01898 1084.81 3.09995C1084.81 4.68646 1084.82 6.27297 1084.81 7.8615C1084.82 8.20146 1084.67 8.53459 1084.38 8.81207C1084.09 9.08955 1083.67 9.29679 1083.19 9.40343C1082.23 9.61719 1081.11 9.44395 1080.57 8.88776C1080.26 8.54861 1080.08 8.16306 1080.04 7.76526C1079.96 6.97605 1080.02 6.17976 1080.02 5.38651Z" fill="#0A0F0D" fill-opacity="0.8"/>
<path d="M1084.69 15.1295C1084.69 16.1052 1083.8 16.7302 1082.4 16.7292C1081.06 16.7292 1080.11 16.0788 1080.11 15.164C1080.1 14.2492 1081.11 13.5349 1082.42 13.543C1083.73 13.5511 1084.69 14.2137 1084.69 15.1295Z" fill="#0A0F0D" fill-opacity="0.8"/>
<path d="M856 2.7229H859.454L864.721 12.114L869.874 2.7229H873.328V19.9649H869.874V8.8083L866.023 16.3211H863.305L859.454 8.8083V20.0024H856V2.7229ZM880.803 2.7229H885.447L890.373 19.9649H886.692L885.673 16.246H881.029L881.483 14.781C881.652 14.2551 882.049 13.9922 882.728 13.9922H885.05L883.068 6.74226L879.387 19.9649H875.706L880.803 2.7229ZM892.921 2.7229H896.262L902.322 13.3911V2.7229H905.833V19.9649H902.718L896.432 8.92099V20.0024H892.921V2.7229ZM909.457 16.5841L909.4 15.0064H913.194L913.251 16.6968C913.251 17.4857 914.1 17.8988 915.289 17.8988H916.026C917.271 17.8988 918.064 17.4857 918.064 16.6968V15.0439C918.064 13.4287 916.648 13.1657 913.591 12.0013C909.74 10.6865 909.457 9.86009 909.457 8.01945V6.1788C909.457 3.81226 911.722 2.57264 914.893 2.6102H916.026C919.197 2.6102 921.632 3.81226 921.632 6.1788V7.6438C921.632 8.13214 921.179 8.39509 920.386 8.47022L917.894 8.8083V6.02855C917.894 5.2397 917.045 4.82649 915.856 4.82649H915.12C913.874 4.82649 913.194 5.2397 913.194 6.02855V8.01945C913.194 9.14638 914.044 9.52202 915.233 10.0103L918.404 11.0622C921.405 12.0389 921.802 13.1657 921.802 14.781V16.5841C921.802 18.9507 919.423 20.1527 916.195 20.1527H915.063C911.835 20.1151 909.457 18.9131 909.457 16.5841ZM925.369 16.5841V6.1788C925.369 3.81226 927.578 2.57264 930.805 2.6102H931.938C935.109 2.6102 937.374 3.69957 937.374 6.02855V7.83162C937.374 8.31996 936.921 8.58291 936.128 8.65804L933.637 9.03368V6.02855C933.637 5.2397 932.957 4.82649 931.711 4.82649H930.975C929.729 4.82649 929.107 5.2397 929.107 6.02855V16.7343C929.107 17.5232 929.729 17.9364 930.975 17.9364H931.711C932.957 17.9364 933.637 17.5232 933.637 16.7343V15.0064H937.431L937.374 16.5465C937.374 18.913 935.166 20.1151 931.938 20.1151H930.805C927.578 20.1151 925.369 18.9131 925.369 16.5841ZM944.453 2.7229H949.096L954.023 19.9649H950.342L949.323 16.246H944.679L945.132 14.781C945.302 14.2551 945.642 13.9922 946.378 13.9922H948.7L946.718 6.74226L943.037 19.9649H939.356L944.453 2.7229ZM956.628 2.7229H963.536C966.708 2.68533 968.973 3.88739 968.973 6.2915V10.5363C968.973 12.9028 966.764 14.1424 963.536 14.0673H960.931V12.6774C960.931 12.0013 961.271 11.8134 962.234 11.8134H963.31C964.556 11.8134 965.178 11.4002 965.178 10.6114V6.14124C965.178 5.35239 964.556 4.93919 963.31 4.93919H960.422V20.0024H956.628V2.7229ZM972.484 2.7229H983.016V5.08944H976.164V17.5983H982.96V19.9649H972.427L972.484 2.7229ZM976.731 10.8368C976.731 10.1606 977.07 9.97276 978.033 9.97276H982.394V12.3394H976.731V10.8368ZM986.584 2.7229H993.492C996.664 2.68533 998.929 3.88739 998.929 6.2915V16.4714C998.929 18.8379 996.72 20.0775 993.492 20.04H986.584V2.7229ZM993.266 17.7486C994.511 17.7486 995.135 17.3354 995.135 16.5465V6.14124C995.135 5.35239 994.511 4.93919 993.266 4.93919H990.378V17.7862H993.266V17.7486ZM999.382 2.83559H998.872V2.7229H1000.12V2.83559H999.608V3.88739H999.382V2.83559ZM1000.29 2.7229H1000.57L1001.08 3.62443L1001.59 2.7229H1001.87V3.88739H1001.65V2.91072L1001.08 3.88739H1001.02L1000.4 2.91072V3.88739H1000.23L1000.29 2.7229Z" fill="#0A0F0D" fill-opacity="0.8"/>
<path d="M722.487 9.97492L714.664 4.79935V4.76348C714.188 4.46526 713.558 4.30278 712.907 4.31031C712.256 4.31784 711.635 4.49479 711.175 4.80385C710.715 5.1129 710.451 5.52991 710.44 5.96691C710.429 6.40392 710.671 6.82677 711.115 7.14629L711.168 7.17704L718.877 12.4243H722.525V9.97492H722.487Z" fill="#0A0F0D" fill-opacity="0.8"/>
<path d="M723.824 15.7453L731.632 20.9209L731.685 20.9568C732.156 21.2721 732.794 21.4489 733.459 21.4484C734.124 21.448 734.761 21.2702 735.231 20.9542C735.7 20.6382 735.964 20.2099 735.963 19.7635C735.962 19.3172 735.697 18.8893 735.227 18.574L735.181 18.5432L727.472 13.2959H723.824V15.7453Z" fill="#0A0F0D" fill-opacity="0.8"/>
<path d="M727.45 12.4243L735.158 7.17704L735.211 7.14629C735.656 6.82677 735.898 6.40392 735.886 5.96691C735.875 5.52991 735.612 5.1129 735.151 4.80385C734.691 4.49479 734.07 4.31784 733.419 4.31031C732.768 4.30278 732.138 4.46526 731.662 4.76348L731.617 4.79935L723.824 9.97492V12.4243H727.45Z" fill="#0A0F0D" fill-opacity="0.8"/>
<path d="M718.84 13.2957L711.139 18.5378L711.086 18.5686C710.615 18.8873 710.353 19.3184 710.355 19.7672C710.357 19.9895 710.424 20.2093 710.551 20.4142C710.679 20.6192 710.866 20.8052 711.101 20.9616C711.336 21.1181 711.615 21.2419 711.921 21.3261C712.228 21.4103 712.556 21.4531 712.887 21.4521C713.555 21.4502 714.195 21.2701 714.666 20.9514L714.711 20.9155L722.527 15.7451V13.2905H718.871L718.84 13.2957Z" fill="#0A0F0D" fill-opacity="0.8"/>
<path d="M653.676 18.8965L652.752 10.0212C652.645 8.99631 652.577 8.13542 652.577 7.24891C652.287 8.20716 652.073 8.78621 651.645 9.81108L647.73 18.8965H643.502L639.976 10.1852C639.655 9.37038 639.213 8.20204 638.976 7.24379C638.976 8.22766 638.907 9.20641 638.8 10.2313L637.946 18.8965H633L635.29 2.28857H641.663L644.899 10.6053C645.253 11.4708 645.538 12.3483 645.753 13.2341C645.99 12.324 646.295 11.4227 646.669 10.5336L650.012 2.28857H656.347L658.553 18.8965H653.676ZM675.336 19.5165C674.254 19.2339 673.349 18.7113 672.771 18.0356C672.43 18.2696 672.063 18.4855 671.672 18.6813C670.58 19.1529 669.299 19.3873 668.001 19.3526C663.949 19.3526 661.743 17.9639 661.743 15.5298C661.743 12.6602 664.696 11.3228 670.497 11.3228H671.565V10.8103C671.565 9.44725 671.169 8.99118 669.428 8.99118C667.902 8.99118 666.116 9.50362 664.162 10.3799L662.132 8.08418C663.067 7.68112 664.055 7.33798 665.086 7.05931C666.654 6.5898 668.352 6.34544 670.07 6.34191C673.122 6.34191 675.229 7.10543 675.939 8.4685C676.262 9.1797 676.371 9.92704 676.259 10.6668L676.152 14.7663C676.152 16.1037 676.259 16.6777 677.862 17.4924L675.336 19.5165ZM671.275 13.5416C667.971 13.5416 666.826 13.9515 666.826 15.4068C666.795 15.6062 666.826 15.8077 666.917 15.9987C667.008 16.1896 667.157 16.3659 667.354 16.5165C667.551 16.6671 667.792 16.7887 668.062 16.8738C668.333 16.9588 668.626 17.0055 668.925 17.0108C669.405 16.9952 669.875 16.9124 670.305 16.7677C670.735 16.6229 671.115 16.4195 671.42 16.1704L671.489 13.5416H671.275ZM686.425 19.1835C684.006 19.1835 682.083 18.4661 681.518 17.39C681.208 16.7844 681.099 16.141 681.197 15.5042V8.84258H679.381V6.66474H681.197C681.159 5.69811 681.217 4.73084 681.373 3.7695L686.212 2.95985C686.025 4.19087 685.931 5.42739 685.929 6.66474H690.196L688.99 8.86308H685.937V15.0123C685.937 16.5496 686.364 16.9698 687.998 16.9698C688.581 16.9441 689.156 16.8648 689.707 16.734L690.31 18.6454C689.081 18.9957 687.761 19.1786 686.425 19.1835ZM701.331 9.4575C700.909 9.29473 700.428 9.21317 699.942 9.22178C699.373 9.23573 698.816 9.33502 698.311 9.51236C697.807 9.6897 697.368 9.94059 697.026 10.2466V18.8965H692.256V10.7232C692.325 9.51096 692.098 8.29935 691.585 7.13618L695.851 6.37265C696.307 6.90476 696.568 7.50184 696.614 8.11492C697.645 7.1823 699.11 6.37265 700.888 6.37265C701.504 6.35814 702.116 6.44802 702.667 6.634L701.331 9.4575ZM706.345 5.27605C705.959 5.27471 705.578 5.22235 705.222 5.12196C704.866 5.02157 704.543 4.87512 704.272 4.69097C704.001 4.50682 703.786 4.28858 703.64 4.0487C703.494 3.80883 703.42 3.55202 703.422 3.29294C703.43 2.76422 703.749 2.25907 704.31 1.88759C704.87 1.51612 705.626 1.30844 706.414 1.30982C706.799 1.31048 707.181 1.36244 707.536 1.46272C707.892 1.56299 708.214 1.70958 708.484 1.89401C708.755 2.07843 708.968 2.29703 709.112 2.53715C709.255 2.77727 709.327 3.03416 709.322 3.29294C709.323 3.55485 709.246 3.8143 709.097 4.05622C708.947 4.29814 708.728 4.51772 708.451 4.70221C708.174 4.88669 707.845 5.03242 707.484 5.13093C707.122 5.22944 706.735 5.27876 706.345 5.27605ZM703.979 18.8965V6.87484L708.749 6.36241V18.8965H703.979ZM739.927 5.27605C739.541 5.27471 739.16 5.22231 738.805 5.12186C738.449 5.02141 738.127 4.87488 737.856 4.69066C737.585 4.50644 737.371 4.28816 737.226 4.04831C737.081 3.80847 737.008 3.55177 737.011 3.29294C737.017 2.76468 737.335 2.25953 737.894 1.88791C738.453 1.51629 739.209 1.30845 739.996 1.30982C740.381 1.31048 740.762 1.36244 741.118 1.46272C741.473 1.56299 741.795 1.70958 742.066 1.89401C742.336 2.07843 742.55 2.29703 742.693 2.53715C742.837 2.77727 742.908 3.03416 742.903 3.29294C742.904 3.55485 742.828 3.8143 742.679 4.05622C742.529 4.29814 742.309 4.51772 742.033 4.70221C741.756 4.88669 741.427 5.03242 741.065 5.13093C740.704 5.22944 740.317 5.27876 739.927 5.27605ZM737.561 18.8965V6.87484L742.323 6.36241V18.8965H737.561ZM758.397 19.5165C757.315 19.2339 756.41 18.7113 755.832 18.0356C755.493 18.2708 755.126 18.4868 754.733 18.6813C753.641 19.1529 752.36 19.3873 751.062 19.3526C747.01 19.3526 744.804 17.9639 744.804 15.5298C744.804 12.6602 747.758 11.3228 753.558 11.3228H754.626V10.8103C754.626 9.44725 754.23 8.99118 752.489 8.99118C750.963 8.99118 749.177 9.50362 747.223 10.3799L745.193 8.12005C746.128 7.71699 747.116 7.37385 748.147 7.09518C749.715 6.62567 751.413 6.38131 753.131 6.37778C756.183 6.37778 758.29 7.1413 759 8.50437C759.323 9.21557 759.432 9.96291 759.32 10.7027L759.213 14.8022C759.213 16.1396 759.32 16.7135 760.923 17.5283L758.397 19.5165ZM754.352 13.5416C751.047 13.5416 749.91 13.9515 749.91 15.4068C749.878 15.6064 749.908 15.8082 749.999 15.9995C750.089 16.1907 750.238 16.3674 750.435 16.5181C750.632 16.6689 750.874 16.7905 751.145 16.8753C751.416 16.9601 751.71 17.0062 752.009 17.0108C752.485 16.9931 752.951 16.9093 753.376 16.7646C753.802 16.62 754.178 16.4176 754.481 16.1704L754.55 13.5416H754.352ZM772.883 18.8965V10.9384C772.883 9.55486 772.524 9.14491 771.28 9.14491C770.021 9.24797 768.852 9.63668 767.968 10.2466V18.8965H763.197V10.0212C763.22 9.04746 763.004 8.07787 762.556 7.15155L766.792 6.34191C767.214 6.80597 767.448 7.33583 767.471 7.87921C768.144 7.54917 768.844 7.2463 769.57 6.9722C770.59 6.63796 771.71 6.46279 772.844 6.45977C774.875 6.45977 776.661 7.17205 777.225 8.22766C777.495 8.78997 777.613 9.37982 777.576 9.96993V18.8965H772.883Z" fill="#0A0F0D" fill-opacity="0.8"/>
<path d="M554.027 1.30981H477.013V3.12H554.027V1.30981ZM554.027 19.655H477.013V21.4521H554.027V19.655ZM551.287 11.3574C551.287 9.78787 551.054 8.82785 549.431 8.82785H548.074V13.866H549.431C551.054 13.866 551.287 12.9086 551.287 11.3339V11.3574ZM554.027 11.3339C554.027 13.7719 552.97 15.5926 549.431 15.5926H545.634C545.601 15.5941 545.567 15.5904 545.536 15.5817C545.505 15.5731 545.476 15.5596 545.452 15.5423C545.429 15.525 545.41 15.5042 545.398 15.4813C545.387 15.4584 545.381 15.4339 545.384 15.4094V7.26878C545.381 7.24434 545.387 7.21984 545.398 7.19697C545.41 7.17406 545.429 7.15326 545.452 7.13589C545.476 7.11858 545.505 7.10514 545.536 7.09648C545.567 7.08782 545.601 7.08418 545.634 7.0857H549.431C552.97 7.0857 554.027 8.9168 554.027 11.3443V11.3339ZM539.896 14.057V15.4199C539.898 15.4443 539.893 15.4688 539.881 15.4917C539.869 15.5147 539.851 15.5355 539.827 15.5528C539.803 15.5701 539.775 15.5835 539.744 15.5922C539.712 15.6008 539.679 15.6045 539.645 15.603H532.341C532.308 15.6045 532.274 15.6008 532.243 15.5922C532.212 15.5835 532.183 15.5701 532.159 15.5528C532.136 15.5355 532.117 15.5147 532.105 15.4917C532.094 15.4688 532.089 15.4443 532.091 15.4199V7.26878C532.089 7.24434 532.094 7.21984 532.105 7.19697C532.117 7.17406 532.136 7.15326 532.159 7.13589C532.183 7.11858 532.212 7.10514 532.243 7.09648C532.274 7.08782 532.308 7.08418 532.341 7.0857H539.631C539.664 7.08418 539.698 7.08782 539.729 7.09648C539.761 7.10514 539.789 7.11858 539.813 7.13589C539.837 7.15326 539.855 7.17406 539.867 7.19697C539.879 7.21984 539.884 7.24434 539.882 7.26878V8.63426C539.884 8.65871 539.879 8.6832 539.867 8.70612C539.855 8.72904 539.837 8.74984 539.813 8.76715C539.789 8.78451 539.761 8.79791 539.729 8.80656C539.698 8.81527 539.664 8.81892 539.631 8.8174H534.784V10.4654H539.222C539.256 10.4639 539.289 10.4675 539.321 10.4762C539.352 10.4849 539.381 10.4983 539.404 10.5156C539.428 10.533 539.447 10.5538 539.458 10.5767C539.47 10.5996 539.475 10.6241 539.473 10.6485V12.0114C539.475 12.0359 539.47 12.0603 539.458 12.0832C539.447 12.1061 539.428 12.1269 539.404 12.1443C539.381 12.1616 539.352 12.175 539.321 12.1837C539.289 12.1924 539.256 12.196 539.222 12.1945H534.784V13.8922H539.649C539.682 13.8898 539.715 13.8928 539.746 13.9008C539.777 13.9089 539.806 13.9218 539.829 13.9388C539.853 13.9558 539.871 13.9764 539.883 13.999C539.894 14.0217 539.899 14.046 539.896 14.0701V14.057ZM526.725 13.1885C526.725 15.0196 525.224 15.8044 522.287 15.8044C519.546 15.8044 518.199 15.1243 517.988 13.4214C517.981 13.3965 517.982 13.3708 517.99 13.3461C517.999 13.3215 518.015 13.2987 518.037 13.2792C518.06 13.2599 518.088 13.2444 518.12 13.2341C518.152 13.2239 518.186 13.219 518.221 13.22H520.227C520.377 13.22 520.435 13.288 520.478 13.3847C520.696 13.8216 521.226 14.0361 522.269 14.0361C523.386 14.0361 524.078 13.8059 524.078 13.2513C524.078 12.6967 523.827 12.3829 522.211 12.15C520.145 11.8518 518.146 11.2266 518.146 9.51062C518.146 7.9411 519.453 6.97318 522.211 6.97318C524.669 6.97318 526.152 7.65333 526.359 9.29613C526.367 9.32199 526.367 9.34883 526.359 9.37474C526.352 9.40065 526.336 9.42493 526.314 9.44589C526.291 9.4669 526.263 9.48405 526.231 9.49614C526.198 9.50822 526.163 9.51492 526.127 9.51584H524.296C524.146 9.51584 524.088 9.4295 524.045 9.33271C523.888 8.97957 523.361 8.72583 522.279 8.72583C521.287 8.72583 520.789 9.06068 520.789 9.51062C520.789 9.87421 520.757 10.2535 522.24 10.4602C524.425 10.7558 526.732 11.3156 526.732 13.1833L526.725 13.1885ZM507.414 11.1063H509.169C510.176 11.1063 510.57 10.9781 510.57 9.95794C510.57 8.9377 510.179 8.81478 509.169 8.81478H507.414V11.1063ZM513.016 15.603H510.949C510.886 15.6065 510.824 15.5945 510.771 15.5689C510.718 15.5433 510.679 15.5056 510.659 15.4617L509.069 12.8459H507.41V15.4303C507.413 15.4548 507.407 15.4793 507.396 15.5022C507.384 15.5251 507.365 15.5459 507.342 15.5632C507.318 15.5806 507.289 15.594 507.258 15.6026C507.227 15.6113 507.193 15.615 507.16 15.6135H504.953C504.919 15.6149 504.885 15.6112 504.854 15.6026C504.822 15.594 504.793 15.5807 504.769 15.5634C504.745 15.5462 504.725 15.5255 504.713 15.5026C504.7 15.4797 504.694 15.455 504.695 15.4303V7.26878C504.694 7.24412 504.7 7.21951 504.713 7.19659C504.725 7.17367 504.745 7.15293 504.769 7.13573C504.793 7.11847 504.822 7.10514 504.854 7.09653C504.885 7.08793 504.919 7.08423 504.953 7.0857H509.151C512.3 7.0857 513.124 8.13201 513.124 9.96317C513.124 11.2397 512.723 12.1291 511.433 12.5529L513.192 15.3859C513.271 15.5167 513.192 15.603 513.002 15.603H513.016ZM499.179 14.057V15.4199C499.181 15.4443 499.176 15.4688 499.164 15.4917C499.152 15.5147 499.134 15.5355 499.11 15.5528C499.086 15.5701 499.058 15.5835 499.027 15.5922C498.995 15.6008 498.962 15.6045 498.928 15.603H491.624C491.591 15.6045 491.557 15.6008 491.526 15.5922C491.495 15.5835 491.466 15.5701 491.442 15.5528C491.419 15.5355 491.4 15.5147 491.388 15.4917C491.377 15.4688 491.371 15.4443 491.374 15.4199V7.26878C491.371 7.24434 491.377 7.21984 491.388 7.19697C491.4 7.17406 491.419 7.15326 491.442 7.13589C491.466 7.11858 491.495 7.10514 491.526 7.09648C491.557 7.08782 491.591 7.08418 491.624 7.0857H498.914C498.947 7.08418 498.981 7.08782 499.012 7.09648C499.044 7.10514 499.072 7.11858 499.096 7.13589C499.119 7.15326 499.138 7.17406 499.15 7.19697C499.162 7.21984 499.167 7.24434 499.165 7.26878V8.63426C499.167 8.65871 499.162 8.6832 499.15 8.70612C499.138 8.72904 499.119 8.74984 499.096 8.76715C499.072 8.78451 499.044 8.79791 499.012 8.80656C498.981 8.81527 498.947 8.81892 498.914 8.8174H494.064V10.4654H498.505C498.539 10.4639 498.572 10.4675 498.604 10.4762C498.635 10.4849 498.664 10.4983 498.687 10.5156C498.711 10.533 498.73 10.5538 498.741 10.5767C498.753 10.5996 498.758 10.6241 498.756 10.6485V12.0114C498.758 12.0359 498.753 12.0603 498.741 12.0832C498.73 12.1061 498.711 12.1269 498.687 12.1443C498.664 12.1616 498.635 12.175 498.604 12.1837C498.572 12.1924 498.539 12.196 498.505 12.1945H494.064V13.8922H498.928C498.961 13.8899 498.995 13.8928 499.026 13.9009C499.057 13.9089 499.086 13.9218 499.11 13.9388C499.134 13.9557 499.152 13.9762 499.164 13.9989C499.176 14.0216 499.181 14.0458 499.179 14.0701V14.057ZM483.855 7.0857H486.094C486.276 7.0857 486.326 7.17199 486.294 7.29235L483.611 15.4539C483.595 15.4985 483.558 15.5376 483.506 15.5643C483.454 15.591 483.391 15.6038 483.328 15.6004H479.979C479.916 15.6038 479.853 15.591 479.802 15.5643C479.75 15.5376 479.713 15.4985 479.696 15.4539L477.013 7.29235C476.97 7.17199 477.031 7.0857 477.214 7.0857H479.445C479.509 7.07944 479.574 7.09104 479.626 7.11826C479.679 7.14542 479.715 7.18614 479.728 7.2322L481.519 13.5574H481.77L483.561 7.2322C483.574 7.18614 483.611 7.14542 483.663 7.11826C483.716 7.09104 483.78 7.07944 483.844 7.0857" fill="#0A0F0D" fill-opacity="0.8"/>
<path d="M306.568 3.99807V4.45858C305.737 4.518 305.175 4.60713 304.838 4.71112C304.501 4.8151 304.322 5.05279 304.322 5.4093C304.322 5.57271 304.367 5.73612 304.434 5.88467C304.501 6.03322 304.614 6.25605 304.793 6.55316L309.802 14.5155L314.046 7.47417C314.248 7.13251 314.428 6.76113 314.608 6.38975C314.787 6.00351 314.877 5.72127 314.877 5.52815C314.877 5.12706 314.585 4.82995 314.024 4.65169C313.665 4.54771 313.193 4.48829 312.586 4.45858V3.99807H319.212V4.45858C318.448 4.50314 317.887 4.66655 317.55 4.97851C317.213 5.27561 316.719 5.95895 316.068 7.04337L309.24 18.3333C309.105 18.5264 309.016 18.6601 308.926 18.7344C308.836 18.8087 308.746 18.8532 308.611 18.8532C308.454 18.8532 308.319 18.7938 308.207 18.6749C308.095 18.5561 307.982 18.4076 307.848 18.2293L300.593 6.73142C300.01 5.79554 299.381 5.17162 298.729 4.82995C298.325 4.63684 297.764 4.518 297 4.45858V3.99807H306.568ZM327.948 3.9535V13.9807C327.948 14.6938 328.106 15.2583 328.398 15.6891C328.982 16.4764 330.082 16.8775 331.654 16.8775C332.732 16.8775 333.788 16.6398 334.843 16.1793C335.427 15.9268 336.034 15.5554 336.64 15.0949V6.50859C336.64 5.69156 336.393 5.17162 335.921 4.91909C335.45 4.66655 334.506 4.518 333.092 4.45858V3.93865H340.66V15.0949C340.66 15.7782 340.84 16.2536 341.222 16.5209C341.603 16.7884 342.39 16.8923 343.58 16.8626V17.3232C342.726 17.4717 342.098 17.5905 341.693 17.6648C341.289 17.7391 340.615 17.8877 339.672 18.0808C339.268 18.1699 338.392 18.3927 337.022 18.7492C336.932 18.7492 336.91 18.7195 336.887 18.6749C336.865 18.6304 336.865 18.571 336.865 18.4967V15.9268C335.787 16.7735 334.798 17.3974 333.9 17.8134C332.553 18.4372 331.115 18.7492 329.61 18.7492C328.24 18.7492 326.938 18.4225 325.703 17.7837C324.467 17.1449 323.838 16.0753 323.838 14.575V6.44917C323.838 5.61728 323.591 5.05279 323.052 4.77053C322.715 4.59227 321.997 4.47343 320.896 4.39916V3.93865H327.948V3.9535ZM348.903 6.01837C350.857 4.60713 353.372 3.90894 356.449 3.90894C359.503 3.90894 362.041 4.57742 364.062 5.91438C366.061 7.25135 367.072 9.01911 367.072 11.2474C367.072 13.2825 366.106 15.0651 364.152 16.5656C362.198 18.0659 359.683 18.8235 356.584 18.8235C353.619 18.8235 351.104 18.0956 349.037 16.6547C346.971 15.2137 345.96 13.3865 345.96 11.2028C345.96 9.1528 346.926 7.42961 348.903 6.01837ZM352.586 5.58757C351.036 6.52345 350.25 8.14265 350.25 10.4303C350.25 12.2576 350.879 13.9658 352.137 15.5405C353.394 17.13 355.124 17.9173 357.347 17.9173C359.099 17.9173 360.424 17.3826 361.367 16.3279C362.311 15.2731 362.782 13.8768 362.782 12.1684C362.782 10.3858 362.176 8.72201 360.986 7.14736C359.795 5.57271 358.043 4.78539 355.775 4.78539C354.54 4.78539 353.484 5.05279 352.586 5.58757ZM369.408 18.2293C370.867 18.155 371.833 17.9767 372.305 17.7094C372.776 17.4568 373.024 16.9072 373.024 16.0604V8.94483C373.024 7.91983 372.866 7.17707 372.574 6.73142C372.282 6.28576 371.743 6.06293 370.957 6.06293C370.8 6.06293 370.575 6.07778 370.328 6.1075C370.059 6.13721 369.789 6.16692 369.497 6.21148V5.70641C370.396 5.49844 371.339 5.29047 372.282 5.0825C373.248 4.85967 373.899 4.71112 374.281 4.60713C375.067 4.41401 375.898 4.19118 376.752 3.93865C376.864 3.93865 376.931 3.96836 376.954 4.02778C376.976 4.0872 376.999 4.20604 376.999 4.3843V6.98395C377.987 6.04808 378.953 5.30532 379.873 4.78539C380.794 4.26546 381.76 3.99807 382.748 3.99807C383.534 3.99807 384.186 4.16147 384.68 4.48829C385.174 4.8151 385.421 5.21619 385.421 5.70641C385.421 6.13721 385.241 6.50859 384.859 6.80569C384.478 7.10279 384.006 7.25134 383.422 7.25134C382.838 7.25134 382.254 7.07308 381.648 6.7017C381.064 6.33033 380.592 6.15207 380.255 6.15207C379.716 6.15207 379.065 6.44917 378.256 7.02852C377.47 7.62273 377.066 8.23179 377.066 8.8557V15.897C377.066 16.7884 377.381 17.3974 378.032 17.7391C378.661 18.0808 379.739 18.2442 381.221 18.2293V18.7344H369.408V18.2293ZM394.404 3.99807C394.607 3.9535 394.584 4.14662 394.584 4.23575V15.4811C394.584 16.6695 394.809 17.4123 395.235 17.7094C395.685 18.0065 396.65 18.1996 398.2 18.2887V18.7492H386.656V18.2887C388.363 18.1848 389.419 17.9916 389.868 17.7243C390.317 17.442 390.519 16.7141 390.519 15.496V7.91983C390.519 7.25135 390.452 6.77598 390.317 6.52345C390.07 6.09265 389.598 5.88467 388.835 5.88467C388.655 5.88467 388.498 5.89953 388.34 5.91438C388.183 5.92924 387.712 6.01837 386.926 6.16692V5.55786C386.926 5.543 390.317 4.84481 394.404 3.99807Z" fill="#0A0F0D" fill-opacity="0.8"/>
<path d="M53.7255 4.95319H48.4068V9.88818H53.7255C56.116 9.88818 57.7295 8.96538 57.7295 7.40063C57.7295 5.83587 56.116 4.95319 53.7255 4.95319V4.95319ZM57.9088 18.6347L52.8889 11.9344H48.4068V18.6347H44.8211V2.78661H53.9646C58.4467 2.78661 61.3152 4.71246 61.3152 7.44075C61.4348 9.40672 59.4626 11.1721 56.5941 11.6535L62.0324 18.6749H57.9088V18.6347ZM73.2675 10.5301C72.4309 9.28635 70.2197 8.76477 68.3671 9.32647C67.5902 9.56721 66.9328 10.0085 66.5742 10.5301C66.2754 11.0116 66.0961 11.5332 66.1559 12.0548H73.7456C73.7456 11.5332 73.6261 11.0116 73.2675 10.5301ZM66.1559 13.6596C66.1559 15.5855 67.7097 16.8293 70.4587 16.8293C72.0125 16.8694 73.5066 16.4682 74.5225 15.6657L76.6739 17.0299C75.0604 18.2335 72.7894 18.8755 70.399 18.7952C66.1559 18.7952 62.8093 17.3107 62.8093 13.0177C62.8093 9.3666 65.6181 7.24014 69.9209 7.24014C74.4627 7.24014 77.0923 9.44684 77.0923 12.6566V13.6596H66.1559V13.6596ZM88.686 10.5301C88.4165 10.0878 87.9508 9.71189 87.3521 9.45348C86.7533 9.19506 86.0506 9.06667 85.3393 9.08574C83.9051 9.04562 82.5305 9.60733 81.9927 10.5301C81.6939 11.0116 81.5146 11.5332 81.5744 12.0548H89.1641C89.1641 11.5332 88.9848 11.0116 88.686 10.5301ZM81.5744 13.6596C81.5744 15.5855 83.1282 16.8293 85.8772 16.8293C87.431 16.9095 88.925 16.4682 89.941 15.6657L92.0924 17.0299C90.4788 18.2335 88.1481 18.8755 85.7577 18.7952C81.5146 18.7952 78.168 17.3107 78.168 13.0177C78.168 9.3666 80.9767 7.24014 85.2796 7.24014C89.8214 7.24014 92.3912 9.44684 92.3912 12.6566V13.6596H81.5744V13.6596ZM100.578 9.24623C97.5307 9.24623 97.0526 10.9715 97.0526 12.9776C97.0526 14.9837 97.5307 16.749 100.578 16.749C103.626 16.749 104.045 14.9837 104.045 12.9776C104.045 10.9715 103.686 9.24623 100.578 9.24623V9.24623ZM104.164 18.6347V17.4311C103.088 18.3539 101.415 18.8354 99.7418 18.7551C98.2478 18.7952 96.7538 18.4341 95.6183 17.7521C93.945 16.6286 93.7059 14.6627 93.7059 12.9776C93.7059 11.2924 93.8852 9.3666 95.6183 8.20306C96.7538 7.52099 98.188 7.15989 99.6821 7.20002C101.475 7.20002 102.849 7.48087 104.104 8.48392V2.78661H107.511V18.6749H104.164V18.6347ZM115.997 18.6347V2.78661H131.117V4.95319H119.583V9.56721H129.443V11.6937H119.583V16.4682H131.117V18.6347H115.997ZM137.69 18.6347C134.463 18.6347 133.089 17.1904 133.089 15.5052V2.78661H136.495V15.3849C136.495 16.2676 136.973 16.7089 138.348 16.7089H139.842V18.6347H137.69V18.6347ZM147.431 18.7952C144.682 18.7952 142.352 18.4743 140.38 17.1904L142.591 15.7058C143.906 16.5083 145.639 16.9496 147.431 16.8694C149.463 16.8694 151.137 16.3879 151.137 15.3046C151.137 14.5423 150.479 14.0609 148.866 13.9806L146.176 13.8201C143.009 13.6195 141.216 12.6967 141.216 10.6906C141.216 8.48392 144.025 7.24014 147.551 7.24014C150.061 7.24014 152.212 7.60124 153.766 8.52404L151.615 9.96842C150.42 9.3666 148.925 9.08574 147.431 9.12587C145.4 9.12587 144.384 9.72769 144.384 10.5703C144.384 11.2523 144.921 11.7739 146.714 11.8542L149.344 12.0146C152.511 12.2152 154.364 13.2183 154.364 15.2244C154.364 17.5916 151.376 18.7952 147.372 18.7952H147.431ZM165.659 10.5301C165.389 10.0878 164.924 9.71189 164.325 9.45348C163.726 9.19506 163.023 9.06667 162.312 9.08574C160.878 9.04562 159.503 9.60733 158.965 10.5301C158.667 11.0116 158.487 11.5332 158.547 12.0548H166.137C166.137 11.5332 166.017 11.0116 165.659 10.5301ZM158.547 13.6596C158.547 15.5855 160.101 16.8293 162.85 16.8293C164.404 16.8694 165.898 16.4682 166.914 15.6657L169.125 17.0299C167.511 18.2335 165.181 18.8755 162.85 18.7952C158.607 18.7952 155.26 17.3107 155.26 13.0177C155.26 9.3666 158.069 7.24014 162.432 7.24014C166.914 7.24014 169.543 9.44684 169.543 12.6566V13.6596H158.547ZM178.029 18.6347H175.221L169.065 7.3605H172.651L176.655 15.3046L180.599 7.3605H184.185L178.029 18.6347ZM188.607 18.6347H185.201V7.3605H188.607V18.6347ZM185.081 5.11368V2.70637H188.667V5.11368H185.081ZM200.5 10.5301C199.962 9.64745 198.647 9.04562 197.213 9.08574C195.778 9.04562 194.404 9.60733 193.866 10.5301C193.567 11.0116 193.388 11.5332 193.448 12.0548H201.037C200.978 11.5332 200.858 11.0116 200.5 10.5301ZM193.388 13.6596C193.388 15.5855 194.882 16.8293 197.691 16.8293C199.245 16.8694 200.739 16.4682 201.755 15.6657L203.906 17.0299C202.292 18.2335 199.962 18.8755 197.571 18.7952C193.328 18.7952 189.982 17.3107 189.982 13.0177C189.982 9.3666 192.79 7.24014 197.093 7.24014C201.575 7.24014 204.205 9.44684 204.205 12.6566V13.6596H193.388V13.6596ZM215.56 10.0085C214.962 9.52708 214.006 9.24623 213.05 9.24623C211.197 9.24623 209.703 10.2493 209.703 11.7739V18.6347H206.296V7.3605H209.583V8.60428C210.659 7.7216 212.332 7.20002 214.065 7.24014C215.56 7.20002 217.054 7.60124 218.069 8.32343L215.56 10.0085ZM13.267 10.3696C20.2591 10.3696 28.6855 9.28635 28.6855 4.91307C28.6855 1.82369 23.8448 0.660156 19.3627 0.660156C12.5499 0.660156 0 3.10759 0 11.8542C0 16.2274 5.13948 18.7551 13.267 18.7551C21.8727 18.7551 28.1476 15.104 30.06 10.2092C24.9803 15.8663 18.5858 17.6317 13.3268 17.6317C6.8128 17.6317 4.30282 14.5022 4.30282 11.7739C4.36258 4.15076 13.5658 1.54284 19.3627 1.54284C23.307 1.54284 25.5779 3.18783 25.5779 4.99332C25.5779 9.9283 14.5818 9.80794 9.56183 9.80794H7.17137L6.09567 10.5301C9.20326 10.7709 12.1913 11.3727 15.0001 12.2955C22.1715 14.6627 28.9245 20.8414 37.829 20.8414C41.0561 20.8414 41.8928 20.1995 42.4904 19.6378C38.1278 21.4433 30.7771 18.3138 26.8329 15.8663C23.6655 13.8201 20.797 11.5733 13.267 10.3696" fill="#0A0F0D" fill-opacity="0.8"/>
</svg>
