<svg width="32" height="22" viewBox="0 0 32 22" fill="none" xmlns="http://www.w3.org/2000/svg">
<ellipse cx="16" cy="10.6853" rx="16" ry="10.396" fill="#0A0F0D"/>
<path d="M11.6259 15.7154H8.53685V9.15758H11.6259V15.7154ZM10.1027 8.26976C9.10325 8.26976 8.32031 7.75481 8.32031 7.0964C8.32031 6.43798 9.10218 5.92165 10.1038 5.92165C11.1043 5.92165 11.8872 6.43729 11.8872 7.0957C11.8872 7.7264 11.1043 8.26976 10.1038 8.26976H10.1027ZM23.2419 15.7154H20.1528V12.537C20.1528 11.7635 20.1528 10.7905 18.5422 10.7905C16.9336 10.7905 16.6723 11.6207 16.6723 12.4795V15.7161H13.5832V9.15689H16.5422V10.0447H16.5848C16.9774 9.52907 18.0206 8.98501 19.5 8.98501C22.6328 8.98501 23.1982 10.3309 23.1982 12.1066V15.7147H23.2408L23.2419 15.7154Z" fill="#EBFFDB"/>
</svg>
