<svg width="91" height="25" viewBox="0 0 91 25" fill="none" xmlns="http://www.w3.org/2000/svg">
<path fill-rule="evenodd" clip-rule="evenodd" d="M89.1481 11.1244C87.991 9.62018 86.4071 8.54709 84.5671 8.02694L84.5007 8.0082H84.4296C84.4106 8.0082 84.3821 8.00351 84.3489 8.00351C84.2968 7.99883 84.2351 7.99414 84.164 7.99414C83.5095 7.99414 82.9262 8.42994 82.7413 9.05318V9.05786C82.5279 9.82637 82.9689 10.6183 83.7514 10.8573L83.7656 10.862C86.2459 11.5555 87.9768 13.8188 87.9815 16.3727C87.9815 19.5264 85.3875 22.0943 82.1959 22.0943C80.6405 22.0943 79.1751 21.4898 78.0796 20.3886C77.7998 20.1121 77.4299 19.9622 77.0316 19.9622C76.638 19.9622 76.2681 20.1121 75.9883 20.3839C75.7037 20.6557 75.5425 21.0212 75.5425 21.4148C75.5425 21.8085 75.699 22.174 75.9835 22.4458C77.6338 24.0952 79.839 24.9996 82.1959 24.9996C87.0189 24.9996 90.9407 21.1196 90.9407 16.354C90.9313 14.4468 90.3148 12.6427 89.1481 11.1244Z" fill="white"/>
<path fill-rule="evenodd" clip-rule="evenodd" d="M77.354 13.2562C78.146 12.0706 79.3268 11.2131 80.6879 10.8476C81.0625 10.7445 81.3803 10.5055 81.5794 10.1728C81.7833 9.83071 81.8355 9.43708 81.7312 9.0622L81.7264 9.04346C81.5178 8.40616 80.944 7.97974 80.2895 7.97974C80.1757 7.97974 80.0571 7.99379 79.9196 8.03128L79.9101 8.03597C77.8378 8.58892 76.0499 9.88225 74.8833 11.6676C74.6652 11.991 74.5893 12.3799 74.6746 12.7688C74.7553 13.1437 74.9829 13.4717 75.3101 13.692C75.5472 13.8466 75.8365 13.931 76.121 13.931C76.619 13.9216 77.0932 13.6685 77.354 13.2562Z" fill="white"/>
<path fill-rule="evenodd" clip-rule="evenodd" d="M66.4326 7.54346H62.8419C62.0346 7.54346 61.3774 8.18781 61.3774 8.97943C61.3774 9.77106 62.0346 10.4154 62.8419 10.4154H66.4326C67.7469 10.4154 68.8218 11.4556 68.8218 12.7397V19.2982C68.8218 20.5777 67.7516 21.6224 66.4373 21.6224H62.8325C61.5183 21.6224 60.4434 20.5823 60.4434 19.2982L60.4387 1.43137V1.41756C60.4105 0.621334 59.7675 0 58.9742 0C58.1669 0 57.5098 0.644347 57.5098 1.43597L57.5145 19.3028C57.5145 22.1655 59.8989 24.4944 62.8325 24.4944H66.4373C69.3662 24.4944 71.7507 22.1609 71.7507 19.2982V12.7397C71.7507 9.87231 69.3616 7.54346 66.4326 7.54346Z" fill="white"/>
<path fill-rule="evenodd" clip-rule="evenodd" d="M49.5119 7.40576C48.1003 7.40576 46.7863 7.96614 45.8251 8.95721C44.8639 7.96614 43.5498 7.40576 42.1383 7.40576C39.3058 7.40576 37.0027 9.6982 37.0027 12.514L37.0073 23.0499C37.0073 23.8465 37.6574 24.4949 38.4561 24.4949C39.2547 24.4949 39.9048 23.8465 39.9048 23.0499L39.9001 12.514C39.9001 11.2821 40.9031 10.2771 42.1383 10.2771C43.3734 10.2771 44.381 11.2774 44.381 12.5093L44.3856 23.0453C44.3856 23.8419 45.0357 24.4902 45.8344 24.4902C46.633 24.4902 47.2831 23.8419 47.2831 23.0453L47.2785 12.5093C47.2785 11.2774 48.2814 10.2725 49.5166 10.2725C50.7517 10.2725 51.7593 11.2728 51.7593 12.5047L51.764 23.0407C51.764 23.8372 52.414 24.4856 53.2127 24.4856C54.0114 24.4856 54.6614 23.8372 54.6614 23.0407L54.6568 12.5047C54.6521 9.69357 52.3444 7.40576 49.5119 7.40576Z" fill="white"/>
<path fill-rule="evenodd" clip-rule="evenodd" d="M28.5579 7.40576H25.1973C22.2847 7.40576 19.9136 9.75441 19.9136 12.6358V19.2695C19.9136 22.1508 22.2847 24.4949 25.2019 24.4949H28.5626C29.3654 24.4949 30.0188 23.8463 30.0188 23.0495C30.0188 22.2528 29.3654 21.6042 28.5626 21.6042H25.2019C23.895 21.6042 22.8261 20.5573 22.8261 19.2648V12.6312C22.8261 11.3433 23.8903 10.2918 25.1973 10.2918H28.5579C29.7248 10.2918 30.6723 11.2322 30.6723 12.3856C30.6723 13.5438 29.7248 14.4841 28.5626 14.4841H25.1319C24.3291 14.4841 23.6756 15.1327 23.6756 15.9295C23.6756 16.7262 24.3291 17.3748 25.1319 17.3748H28.5626C31.3351 17.3748 33.5849 15.1373 33.5849 12.3856C33.5849 9.63397 31.3304 7.40576 28.5579 7.40576Z" fill="white"/>
<path fill-rule="evenodd" clip-rule="evenodd" d="M16.7253 7.40579H13.5484V7.45205C11.3624 7.69724 9.66016 9.50607 9.66016 11.6989L9.6649 23.0515C9.6649 23.8472 10.3287 24.4949 11.1443 24.4949C11.9599 24.4949 12.6237 23.8472 12.6237 23.0515L12.619 11.6989C12.619 10.9263 13.2639 10.2971 14.0557 10.2925H16.7253C17.5409 10.2925 18.2047 9.64485 18.2047 8.84915C18.2047 8.04882 17.5409 7.40116 16.7253 7.40579Z" fill="white"/>
<path fill-rule="evenodd" clip-rule="evenodd" d="M4.93705 20.7606C3.69213 19.5131 2.97738 17.8085 2.97738 16.0903L2.97264 9.01616V9.00245C2.94424 8.21644 2.27682 7.57666 1.47685 7.57666C0.662691 7.57666 0 8.21644 0 9.00245L0.00473351 16.0765C0.00473351 18.5717 0.99877 20.9297 2.7975 22.7211L4.07555 23.9869C4.36429 24.2657 4.74297 24.4211 5.14059 24.4211C5.51453 24.4211 5.86481 24.2885 6.15356 24.0372L6.16303 24.0281C6.45177 23.763 6.61744 23.3929 6.62218 23.009C6.62691 22.6297 6.48017 22.2778 6.21036 22.0219L4.93705 20.7606Z" fill="white"/>
<path fill-rule="evenodd" clip-rule="evenodd" d="M1.59993 4.83457C2.48036 4.83457 3.19985 4.13995 3.19985 3.28996C3.19985 2.43998 2.48036 1.74536 1.59993 1.74536C0.719493 1.74536 0 2.43998 0 3.28996C0 4.13995 0.719493 4.83457 1.59993 4.83457Z" fill="white"/>
</svg>
