<svg width="363" height="128" viewBox="0 0 363 128" fill="none" xmlns="http://www.w3.org/2000/svg">
<g id="Card 12">
<rect id="BG" x="0.528358" y="3.52836" width="352.943" height="123.12" rx="7.92537" fill="#F5F1EA" stroke="#0A0F0D" stroke-width="1.05672"/>
<g id="Group 42">
<path id="Date" d="M92.3604 32.375C92.938 32.2482 93.5157 32.1496 94.0934 32.0792C94.671 31.9946 95.3826 31.9524 96.2279 31.9524C97.3551 31.9524 98.3132 32.1285 99.1022 32.4807C99.9053 32.833 100.56 33.319 101.068 33.939C101.575 34.5448 101.948 35.2423 102.188 36.0313C102.427 36.8062 102.547 37.6234 102.547 38.4829C102.547 40.1736 102.209 41.6812 101.533 43.0056C100.856 44.33 99.8983 45.3727 98.6584 46.1335C97.4185 46.8802 95.9391 47.2536 94.2202 47.2536C93.3184 47.2536 92.5153 47.1902 91.8109 47.0634C91.1064 46.9507 90.4653 46.7887 89.8876 46.5773L92.3604 32.375ZM96.0589 33.6431C95.6925 33.6431 95.3473 33.6642 95.0233 33.7065C94.6992 33.7347 94.3963 33.784 94.1145 33.8544L92.1279 45.2459C92.4519 45.3304 92.7971 45.4008 93.1635 45.4572C93.5298 45.4995 93.9243 45.5206 94.347 45.5206C95.5728 45.5206 96.6436 45.2318 97.5594 44.6541C98.4893 44.0764 99.2079 43.2733 99.7151 42.2448C100.222 41.2021 100.476 40.0045 100.476 38.6519C100.476 37.7643 100.321 36.9401 100.011 36.1792C99.701 35.4184 99.222 34.8055 98.5739 34.3405C97.9257 33.8756 97.0874 33.6431 96.0589 33.6431ZM103.796 42.6675C103.796 41.3008 104.092 40.1032 104.683 39.0746C105.289 38.032 106.121 37.2219 107.177 36.6442C108.234 36.0524 109.439 35.7565 110.791 35.7565C111.623 35.7565 112.348 35.8411 112.968 36.0101C113.602 36.1792 114.123 36.3483 114.532 36.5174L113.201 44.0201C113.187 44.0905 113.172 44.175 113.158 44.2737C113.158 44.3582 113.158 44.4498 113.158 44.5484C113.158 44.9429 113.271 45.2247 113.497 45.3938C113.722 45.5488 114.018 45.6263 114.384 45.6263L113.729 47.1057C112.968 47.1057 112.383 46.9225 111.975 46.5562C111.58 46.1758 111.383 45.591 111.383 44.802C110.989 45.4783 110.488 46.056 109.883 46.535C109.291 47.0141 108.593 47.2536 107.79 47.2536C107.1 47.2536 106.452 47.0704 105.846 46.7041C105.24 46.3237 104.747 45.7953 104.366 45.119C103.986 44.4287 103.796 43.6115 103.796 42.6675ZM112.44 37.6375C112.172 37.553 111.89 37.4896 111.594 37.4473C111.313 37.3909 110.967 37.3627 110.559 37.3627C109.587 37.3627 108.741 37.5811 108.023 38.0179C107.304 38.4547 106.741 39.0605 106.332 39.8355C105.937 40.5963 105.74 41.4628 105.74 42.435C105.74 43.1113 105.86 43.6819 106.099 44.1469C106.353 44.6118 106.677 44.9641 107.072 45.2036C107.466 45.4431 107.875 45.5629 108.297 45.5629C108.875 45.5629 109.403 45.3656 109.883 44.9711C110.362 44.5766 110.77 44.0271 111.108 43.3226C111.461 42.6181 111.714 41.815 111.869 40.9133L112.44 37.6375ZM116.683 36.4117H118.628L119.642 32.9457H121.101L120.488 36.4117H123.531L123.256 38.0602H120.192L119.304 43.1958C119.276 43.3508 119.255 43.4987 119.241 43.6396C119.227 43.7664 119.22 43.8862 119.22 43.9989C119.22 44.4921 119.368 44.8795 119.663 45.1613C119.959 45.429 120.347 45.5629 120.826 45.5629C121.234 45.5629 121.58 45.5065 121.861 45.3938C122.143 45.267 122.397 45.1402 122.622 45.0134L122.855 46.6619C122.587 46.8168 122.249 46.9507 121.84 47.0634C121.446 47.1902 121.002 47.2536 120.509 47.2536C119.987 47.2536 119.48 47.1479 118.987 46.9366C118.508 46.7253 118.114 46.3941 117.804 45.9433C117.494 45.4783 117.339 44.8795 117.339 44.1469C117.339 43.8369 117.367 43.4917 117.423 43.1113L118.29 38.0602H116.409L116.683 36.4117ZM129.086 47.2536C128.156 47.2536 127.332 47.0564 126.614 46.6619C125.909 46.2533 125.353 45.6756 124.944 44.9288C124.55 44.168 124.352 43.2733 124.352 42.2448C124.352 41.0753 124.592 39.9975 125.071 39.0112C125.564 38.025 126.254 37.2359 127.142 36.6442C128.044 36.0524 129.093 35.7565 130.291 35.7565C131.108 35.7565 131.799 35.9115 132.362 36.2215C132.94 36.5315 133.384 36.933 133.694 37.4261C134.004 37.9193 134.159 38.4476 134.159 39.0112C134.159 39.7861 133.975 40.4272 133.609 40.9344C133.243 41.4417 132.771 41.8362 132.193 42.118C131.615 42.3857 130.988 42.5759 130.312 42.6886C129.65 42.8013 129.016 42.8577 128.41 42.8577C128.03 42.8577 127.649 42.8436 127.269 42.8154C126.902 42.7731 126.578 42.7309 126.297 42.6886C126.409 43.6185 126.74 44.33 127.29 44.8232C127.839 45.3163 128.544 45.5629 129.403 45.5629C130.108 45.5629 130.735 45.4713 131.284 45.2881C131.834 45.105 132.299 44.9218 132.679 44.7386L132.848 46.4294C132.426 46.6266 131.89 46.8168 131.242 47C130.594 47.1691 129.875 47.2536 129.086 47.2536ZM130.143 37.3627C129.481 37.3627 128.882 37.5318 128.347 37.87C127.811 38.194 127.367 38.6449 127.015 39.2226C126.677 39.7861 126.452 40.4343 126.339 41.1669C126.663 41.2233 126.987 41.2726 127.311 41.3149C127.649 41.343 128.016 41.3571 128.41 41.3571C129.594 41.3571 130.531 41.1951 131.221 40.871C131.911 40.5329 132.257 39.9623 132.257 39.1592C132.257 38.666 132.059 38.2433 131.665 37.8911C131.284 37.5389 130.777 37.3627 130.143 37.3627Z" fill="#0A0F0D"/>
<path id="July 28th 9:00 AM - 10:00 PM" d="M92.0097 72.4258C91.3964 72.4258 90.8164 72.3191 90.2697 72.1058C89.7364 71.8925 89.2897 71.6125 88.9297 71.2658L89.8497 69.8058C90.1164 70.0858 90.4364 70.3191 90.8097 70.5058C91.183 70.6925 91.563 70.7858 91.9497 70.7858C92.5897 70.7858 93.0964 70.5591 93.4697 70.1058C93.843 69.6391 94.0297 68.8591 94.0297 67.7658V58.1858H95.9297V67.5658C95.9297 69.2591 95.5697 70.4925 94.8497 71.2658C94.1297 72.0391 93.183 72.4258 92.0097 72.4258ZM102.523 72.4258C101.923 72.4258 101.357 72.2991 100.823 72.0458C100.29 71.7925 99.8568 71.3858 99.5234 70.8258C99.1901 70.2525 99.0234 69.4925 99.0234 68.5458V61.7858H100.823V68.3058C100.823 69.1191 100.997 69.7458 101.343 70.1858C101.69 70.6125 102.197 70.8258 102.863 70.8258C103.41 70.8258 103.937 70.7191 104.443 70.5058C104.963 70.2791 105.423 69.9791 105.823 69.6058V61.7858H107.623V69.4858C107.623 70.0591 107.743 70.4391 107.983 70.6258C108.237 70.7991 108.51 70.8858 108.803 70.8858L108.423 72.2858C107.183 72.2858 106.417 71.7925 106.123 70.8058C105.657 71.2858 105.117 71.6791 104.503 71.9858C103.89 72.2791 103.23 72.4258 102.523 72.4258ZM114.354 72.4258C113.74 72.4258 113.187 72.3125 112.694 72.0858C112.2 71.8458 111.807 71.4658 111.514 70.9458C111.234 70.4258 111.094 69.7525 111.094 68.9258V57.3858H112.894V68.7458C112.894 69.4658 113.04 69.9991 113.334 70.3458C113.64 70.6925 114.06 70.8658 114.594 70.8658C114.847 70.8658 115.094 70.8391 115.334 70.7858C115.587 70.7191 115.8 70.6458 115.974 70.5658L116.414 72.0258C116.174 72.1325 115.874 72.2258 115.514 72.3058C115.167 72.3858 114.78 72.4258 114.354 72.4258ZM117.567 76.8258C117.167 76.8258 116.814 76.7858 116.507 76.7058C116.214 76.6258 115.98 76.5325 115.807 76.4258L116.207 74.9258C116.367 75.0191 116.567 75.0991 116.807 75.1658C117.047 75.2325 117.314 75.2658 117.607 75.2658C118.167 75.2658 118.667 75.0858 119.107 74.7258C119.547 74.3658 119.967 73.6591 120.367 72.6058L120.827 71.4058H119.867L115.807 62.2658L117.407 61.5458L121.287 70.2058L124.307 61.6258L125.967 62.2658L122.147 72.7058C121.76 73.7725 121.34 74.6058 120.887 75.2058C120.434 75.8058 119.934 76.2258 119.387 76.4658C118.84 76.7058 118.234 76.8258 117.567 76.8258ZM133.932 72.1858C133.892 71.9458 133.872 71.6991 133.872 71.4458C133.872 70.5791 134.019 69.8058 134.312 69.1258C134.619 68.4325 135.012 67.8058 135.492 67.2458C135.972 66.6725 136.479 66.1458 137.012 65.6658C137.559 65.1725 138.065 64.7058 138.532 64.2658C139.012 63.8125 139.405 63.3591 139.712 62.9058C140.019 62.4525 140.172 61.9791 140.172 61.4858C140.172 60.9258 139.965 60.4658 139.552 60.1058C139.139 59.7325 138.605 59.5458 137.952 59.5458C137.392 59.5458 136.879 59.6591 136.412 59.8858C135.959 60.0991 135.532 60.3925 135.132 60.7658L134.132 59.5458C134.665 59.0658 135.252 58.6791 135.892 58.3858C136.545 58.0925 137.299 57.9458 138.152 57.9458C138.939 57.9458 139.625 58.0991 140.212 58.4058C140.799 58.6991 141.252 59.1058 141.572 59.6258C141.905 60.1458 142.072 60.7258 142.072 61.3658C142.072 62.0058 141.932 62.5991 141.652 63.1458C141.372 63.6925 141.012 64.2058 140.572 64.6858C140.132 65.1658 139.659 65.6325 139.152 66.0858C138.645 66.5258 138.159 66.9791 137.692 67.4458C137.225 67.9125 136.825 68.3991 136.492 68.9058C136.172 69.4125 135.972 69.9591 135.892 70.5458H142.052V72.1858H133.932ZM150.264 72.4258C149.251 72.4258 148.371 72.2525 147.624 71.9058C146.877 71.5591 146.297 71.0925 145.884 70.5058C145.484 69.9058 145.284 69.2458 145.284 68.5258C145.284 67.6591 145.517 66.9058 145.984 66.2658C146.464 65.6258 147.211 65.0858 148.224 64.6458C147.517 64.2591 146.971 63.8125 146.584 63.3058C146.211 62.7858 146.024 62.1458 146.024 61.3858C146.024 60.7058 146.204 60.1125 146.564 59.6058C146.924 59.0858 147.411 58.6791 148.024 58.3858C148.651 58.0925 149.344 57.9458 150.104 57.9458C150.931 57.9458 151.657 58.0991 152.284 58.4058C152.911 58.6991 153.397 59.1058 153.744 59.6258C154.104 60.1458 154.284 60.7258 154.284 61.3658C154.284 62.1791 154.077 62.8391 153.664 63.3458C153.251 63.8525 152.697 64.2791 152.004 64.6258C152.991 65.0391 153.744 65.5591 154.264 66.1858C154.784 66.7991 155.044 67.5391 155.044 68.4058C155.044 69.2058 154.837 69.9125 154.424 70.5258C154.011 71.1258 153.444 71.5925 152.724 71.9258C152.004 72.2591 151.184 72.4258 150.264 72.4258ZM150.364 63.9658C150.951 63.7658 151.457 63.4591 151.884 63.0458C152.324 62.6325 152.544 62.1325 152.544 61.5458C152.544 60.9325 152.311 60.4258 151.844 60.0258C151.377 59.6258 150.797 59.4258 150.104 59.4258C149.424 59.4258 148.864 59.6058 148.424 59.9658C147.984 60.3125 147.764 60.7725 147.764 61.3458C147.764 61.9191 147.997 62.4391 148.464 62.9058C148.944 63.3725 149.577 63.7258 150.364 63.9658ZM150.284 70.8258C151.137 70.8258 151.837 70.6058 152.384 70.1658C152.931 69.7125 153.204 69.1391 153.204 68.4458C153.204 67.8058 152.917 67.2325 152.344 66.7258C151.784 66.2191 151.004 65.7858 150.004 65.4258C149.497 65.5458 149.024 65.7325 148.584 65.9858C148.144 66.2391 147.791 66.5525 147.524 66.9258C147.257 67.2991 147.124 67.7258 147.124 68.2058C147.124 68.6991 147.257 69.1458 147.524 69.5458C147.804 69.9458 148.184 70.2591 148.664 70.4858C149.144 70.7125 149.684 70.8258 150.284 70.8258ZM161.396 72.4258C160.396 72.4258 159.603 72.0991 159.016 71.4458C158.443 70.7791 158.156 69.8325 158.156 68.6058V63.7258H156.356V62.1658H158.196L158.576 58.8858H159.956V62.1658H162.836V63.7258H159.956V68.7458C159.956 69.5191 160.116 70.0591 160.436 70.3658C160.77 70.6725 161.163 70.8258 161.616 70.8258C161.95 70.8258 162.263 70.7725 162.556 70.6658C162.863 70.5591 163.143 70.4325 163.396 70.2858L163.896 71.7258C163.63 71.8858 163.27 72.0391 162.816 72.1858C162.363 72.3458 161.89 72.4258 161.396 72.4258ZM165.705 72.1858V57.3858H167.505V63.4458C167.879 62.8991 168.352 62.4458 168.925 62.0858C169.499 61.7258 170.172 61.5458 170.945 61.5458C172.119 61.5458 172.992 61.8991 173.565 62.6058C174.152 63.3125 174.445 64.2458 174.445 65.4058V72.1858H172.645V65.6058C172.645 64.8591 172.472 64.2591 172.125 63.8058C171.779 63.3525 171.292 63.1258 170.665 63.1258C170.052 63.1258 169.465 63.3458 168.905 63.7858C168.359 64.2125 167.892 64.7191 167.505 65.3058V72.1858H165.705ZM187.217 72.4258C186.444 72.4258 185.751 72.2925 185.138 72.0258C184.524 71.7458 183.964 71.3591 183.458 70.8658L184.638 69.5258C185.438 70.3658 186.331 70.7858 187.318 70.7858C187.864 70.7858 188.371 70.6058 188.838 70.2458C189.304 69.8725 189.678 69.2925 189.958 68.5058C190.251 67.7191 190.398 66.7058 190.398 65.4658C189.984 65.8391 189.524 66.1525 189.018 66.4058C188.511 66.6591 187.964 66.7858 187.378 66.7858C186.671 66.7858 185.998 66.6258 185.358 66.3058C184.731 65.9725 184.218 65.4925 183.818 64.8658C183.431 64.2258 183.238 63.4391 183.238 62.5058C183.238 61.6658 183.424 60.8991 183.798 60.2058C184.184 59.5125 184.718 58.9658 185.398 58.5658C186.078 58.1525 186.864 57.9458 187.758 57.9458C188.451 57.9458 189.044 58.0525 189.538 58.2658C190.031 58.4791 190.444 58.7591 190.778 59.1058C191.098 59.4391 191.364 59.8325 191.578 60.2858C191.804 60.7258 191.971 61.3125 192.078 62.0458C192.184 62.7658 192.238 63.7058 192.238 64.8658C192.238 66.6391 192.018 68.0858 191.578 69.2058C191.138 70.3125 190.538 71.1258 189.778 71.6458C189.031 72.1658 188.178 72.4258 187.217 72.4258ZM187.678 65.3058C188.184 65.3058 188.671 65.1791 189.138 64.9258C189.618 64.6725 190.038 64.3658 190.398 64.0058V63.4058C190.398 62.1391 190.151 61.1791 189.658 60.5258C189.178 59.8725 188.524 59.5458 187.698 59.5458C186.938 59.5458 186.291 59.8125 185.758 60.3458C185.238 60.8658 184.978 61.5591 184.978 62.4258C184.978 63.0258 185.104 63.5458 185.358 63.9858C185.611 64.4125 185.938 64.7391 186.338 64.9658C186.751 65.1925 187.198 65.3058 187.678 65.3058ZM196.93 64.2258C196.57 64.2258 196.256 64.0925 195.99 63.8258C195.723 63.5591 195.59 63.2458 195.59 62.8858C195.59 62.4725 195.71 62.1458 195.95 61.9058C196.19 61.6658 196.516 61.5458 196.93 61.5458C197.276 61.5458 197.583 61.6791 197.85 61.9458C198.13 62.2125 198.27 62.5258 198.27 62.8858C198.27 63.2858 198.143 63.6125 197.89 63.8658C197.636 64.1058 197.316 64.2258 196.93 64.2258ZM196.93 72.4258C196.57 72.4258 196.256 72.2925 195.99 72.0258C195.723 71.7591 195.59 71.4458 195.59 71.0858C195.59 70.6725 195.71 70.3458 195.95 70.1058C196.19 69.8658 196.516 69.7458 196.93 69.7458C197.276 69.7458 197.583 69.8791 197.85 70.1458C198.13 70.4125 198.27 70.7258 198.27 71.0858C198.27 71.4858 198.143 71.8125 197.89 72.0658C197.636 72.3058 197.316 72.4258 196.93 72.4258ZM205.906 72.4258C204.346 72.4258 203.159 71.7925 202.346 70.5258C201.532 69.2458 201.126 67.4591 201.126 65.1658C201.126 62.8591 201.539 61.0791 202.366 59.8258C203.206 58.5725 204.399 57.9458 205.946 57.9458C207.506 57.9458 208.692 58.5791 209.506 59.8458C210.319 61.1125 210.726 62.8991 210.726 65.2058C210.726 67.5125 210.306 69.2925 209.466 70.5458C208.639 71.7991 207.452 72.4258 205.906 72.4258ZM205.926 70.7858C206.526 70.7858 207.039 70.6125 207.466 70.2658C207.906 69.9058 208.239 69.3191 208.466 68.5058C208.706 67.6925 208.826 66.5991 208.826 65.2258C208.826 63.3858 208.566 61.9858 208.046 61.0258C207.539 60.0658 206.832 59.5858 205.926 59.5858C205.326 59.5858 204.806 59.7658 204.366 60.1258C203.939 60.4725 203.606 61.0525 203.366 61.8658C203.139 62.6658 203.026 63.7591 203.026 65.1458C203.026 66.9858 203.279 68.3858 203.786 69.3458C204.306 70.3058 205.019 70.7858 205.926 70.7858ZM217.898 72.4258C216.338 72.4258 215.151 71.7925 214.338 70.5258C213.525 69.2458 213.118 67.4591 213.118 65.1658C213.118 62.8591 213.531 61.0791 214.358 59.8258C215.198 58.5725 216.391 57.9458 217.938 57.9458C219.498 57.9458 220.685 58.5791 221.498 59.8458C222.311 61.1125 222.718 62.8991 222.718 65.2058C222.718 67.5125 222.298 69.2925 221.458 70.5458C220.631 71.7991 219.445 72.4258 217.898 72.4258ZM217.918 70.7858C218.518 70.7858 219.031 70.6125 219.458 70.2658C219.898 69.9058 220.231 69.3191 220.458 68.5058C220.698 67.6925 220.818 66.5991 220.818 65.2258C220.818 63.3858 220.558 61.9858 220.038 61.0258C219.531 60.0658 218.825 59.5858 217.918 59.5858C217.318 59.5858 216.798 59.7658 216.358 60.1258C215.931 60.4725 215.598 61.0525 215.358 61.8658C215.131 62.6658 215.018 63.7591 215.018 65.1458C215.018 66.9858 215.271 68.3858 215.778 69.3458C216.298 70.3058 217.011 70.7858 217.918 70.7858ZM241.326 72.3858L239.766 68.3858H233.286L231.726 72.3458L230.106 71.6858L235.586 58.1858H237.666L243.066 71.6858L241.326 72.3858ZM233.886 66.7858H239.146L236.526 60.0658L233.886 66.7858ZM245.066 72.1858V58.1858H247.726L251.606 67.0458L255.426 58.1858H258.146V72.1858H256.246V60.6058L252.506 69.0258H250.626L246.866 60.6058V72.1858H245.066ZM268.541 66.1458V64.5058H275.341V66.1458H268.541ZM286.81 72.1858V70.5858H289.67V60.4858L286.99 62.5058L286.01 61.1658L290.15 58.1858H291.47V70.5858H293.85V72.1858H286.81ZM301.902 72.4258C300.342 72.4258 299.155 71.7925 298.342 70.5258C297.529 69.2458 297.122 67.4591 297.122 65.1658C297.122 62.8591 297.535 61.0791 298.362 59.8258C299.202 58.5725 300.395 57.9458 301.942 57.9458C303.502 57.9458 304.689 58.5791 305.502 59.8458C306.315 61.1125 306.722 62.8991 306.722 65.2058C306.722 67.5125 306.302 69.2925 305.462 70.5458C304.635 71.7991 303.449 72.4258 301.902 72.4258ZM301.922 70.7858C302.522 70.7858 303.035 70.6125 303.462 70.2658C303.902 69.9058 304.235 69.3191 304.462 68.5058C304.702 67.6925 304.822 66.5991 304.822 65.2258C304.822 63.3858 304.562 61.9858 304.042 61.0258C303.535 60.0658 302.829 59.5858 301.922 59.5858C301.322 59.5858 300.802 59.7658 300.362 60.1258C299.935 60.4725 299.602 61.0525 299.362 61.8658C299.135 62.6658 299.022 63.7591 299.022 65.1458C299.022 66.9858 299.275 68.3858 299.782 69.3458C300.302 70.3058 301.015 70.7858 301.922 70.7858ZM310.914 64.2258C310.554 64.2258 310.241 64.0925 309.974 63.8258C309.707 63.5591 309.574 63.2458 309.574 62.8858C309.574 62.4725 309.694 62.1458 309.934 61.9058C310.174 61.6658 310.501 61.5458 310.914 61.5458C311.261 61.5458 311.567 61.6791 311.834 61.9458C312.114 62.2125 312.254 62.5258 312.254 62.8858C312.254 63.2858 312.127 63.6125 311.874 63.8658C311.621 64.1058 311.301 64.2258 310.914 64.2258ZM310.914 72.4258C310.554 72.4258 310.241 72.2925 309.974 72.0258C309.707 71.7591 309.574 71.4458 309.574 71.0858C309.574 70.6725 309.694 70.3458 309.934 70.1058C310.174 69.8658 310.501 69.7458 310.914 69.7458C311.261 69.7458 311.567 69.8791 311.834 70.1458C312.114 70.4125 312.254 70.7258 312.254 71.0858C312.254 71.4858 312.127 71.8125 311.874 72.0658C311.621 72.3058 311.301 72.4258 310.914 72.4258ZM319.89 72.4258C318.33 72.4258 317.143 71.7925 316.33 70.5258C315.517 69.2458 315.11 67.4591 315.11 65.1658C315.11 62.8591 315.523 61.0791 316.35 59.8258C317.19 58.5725 318.383 57.9458 319.93 57.9458C321.49 57.9458 322.677 58.5791 323.49 59.8458C324.303 61.1125 324.71 62.8991 324.71 65.2058C324.71 67.5125 324.29 69.2925 323.45 70.5458C322.623 71.7991 321.437 72.4258 319.89 72.4258ZM319.91 70.7858C320.51 70.7858 321.023 70.6125 321.45 70.2658C321.89 69.9058 322.223 69.3191 322.45 68.5058C322.69 67.6925 322.81 66.5991 322.81 65.2258C322.81 63.3858 322.55 61.9858 322.03 61.0258C321.523 60.0658 320.817 59.5858 319.91 59.5858C319.31 59.5858 318.79 59.7658 318.35 60.1258C317.923 60.4725 317.59 61.0525 317.35 61.8658C317.123 62.6658 317.01 63.7591 317.01 65.1458C317.01 66.9858 317.263 68.3858 317.77 69.3458C318.29 70.3058 319.003 70.7858 319.91 70.7858ZM331.882 72.4258C330.322 72.4258 329.136 71.7925 328.322 70.5258C327.509 69.2458 327.102 67.4591 327.102 65.1658C327.102 62.8591 327.516 61.0791 328.342 59.8258C329.182 58.5725 330.376 57.9458 331.922 57.9458C333.482 57.9458 334.669 58.5791 335.482 59.8458C336.296 61.1125 336.702 62.8991 336.702 65.2058C336.702 67.5125 336.282 69.2925 335.442 70.5458C334.616 71.7991 333.429 72.4258 331.882 72.4258ZM331.902 70.7858C332.502 70.7858 333.016 70.6125 333.442 70.2658C333.882 69.9058 334.216 69.3191 334.442 68.5058C334.682 67.6925 334.802 66.5991 334.802 65.2258C334.802 63.3858 334.542 61.9858 334.022 61.0258C333.516 60.0658 332.809 59.5858 331.902 59.5858C331.302 59.5858 330.782 59.7658 330.342 60.1258C329.916 60.4725 329.582 61.0525 329.342 61.8658C329.116 62.6658 329.002 63.7591 329.002 65.1458C329.002 66.9858 329.256 68.3858 329.762 69.3458C330.282 70.3058 330.996 70.7858 331.902 70.7858ZM90.7297 101.186V87.2258C91.2764 87.1591 91.8764 87.1125 92.5297 87.0858C93.1964 87.0458 93.883 87.0258 94.5897 87.0258C95.7497 87.0258 96.7364 87.2125 97.5497 87.5858C98.363 87.9458 98.983 88.4458 99.4097 89.0858C99.8364 89.7258 100.05 90.4591 100.05 91.2858C100.05 92.2858 99.803 93.1325 99.3097 93.8258C98.8164 94.5191 98.1297 95.0525 97.2497 95.4258C96.3697 95.7858 95.3497 95.9658 94.1897 95.9658C93.6297 95.9658 93.1097 95.9458 92.6297 95.9058V101.186H90.7297ZM94.4297 94.3858C95.6164 94.3858 96.5364 94.1191 97.1897 93.5858C97.843 93.0525 98.1697 92.3391 98.1697 91.4458C98.1697 90.5791 97.8564 89.8925 97.2297 89.3858C96.603 88.8791 95.7097 88.6258 94.5497 88.6258C94.1897 88.6258 93.8497 88.6325 93.5297 88.6458C93.2097 88.6591 92.9097 88.6791 92.6297 88.7058V94.2858C92.843 94.3125 93.103 94.3391 93.4097 94.3658C93.7164 94.3791 94.0564 94.3858 94.4297 94.3858ZM102.351 101.186V87.1858H105.011L108.891 96.0458L112.711 87.1858H115.431V101.186H113.531V89.6058L109.791 98.0258H107.911L104.151 89.6058V101.186H102.351Z" fill="#0A0F0D" fill-opacity="0.8"/>
</g>
<g id="Group 3698">
<rect id="Rectangle 21" x="13.209" y="29.4416" width="55.8318" height="71.0828" rx="7.92537" fill="#FEFEF9" stroke="#0A0F0D" stroke-width="1.05672"/>
<g id="Stack">
<path id="Vector" d="M56.3367 53.7156H25.3066V79.2825H56.3367V53.7156Z" fill="#FEFEF9"/>
<g id="Vector_2">
<path d="M29.1851 71.2925L40.8213 76.8853L52.4576 71.2925" fill="#FEFEF9"/>
<path d="M29.1851 71.2925L40.8213 76.8853L52.4576 71.2925" stroke="#0A0F0D" stroke-width="1.58507" stroke-linecap="round" stroke-linejoin="round"/>
</g>
<g id="Vector_3">
<path d="M29.1851 66.4985L40.8213 72.0913L52.4576 66.4985" fill="#FEFEF9"/>
<path d="M29.1851 66.4985L40.8213 72.0913L52.4576 66.4985" stroke="#0A0F0D" stroke-width="1.58507" stroke-linecap="round" stroke-linejoin="round"/>
</g>
<path id="Vector_4" d="M29.1851 61.7048L40.8213 67.2976L52.4576 61.7048L40.8213 56.1121L29.1851 61.7048Z" fill="#FEFEF9" stroke="#0A0F0D" stroke-width="1.58507" stroke-linecap="round" stroke-linejoin="round"/>
</g>
</g>
<path id="Vector_5" fill-rule="evenodd" clip-rule="evenodd" d="M302 100.798C302 97.9253 304.329 95.5961 307.202 95.5961C310.075 95.5961 312.404 97.9252 312.404 100.798C312.404 103.671 310.075 106 307.202 106C304.329 106 302 103.671 302 100.798ZM320.89 79.8295C320.92 79.8289 320.95 79.8289 320.98 79.8289C323.862 79.8342 326.195 82.1753 326.19 85.0583V100.736C326.191 101.088 326.156 101.44 326.086 101.785C325.514 104.606 322.765 106.429 319.944 105.858C317.499 105.367 315.83 103.065 315.83 99.2723V85.2993C315.763 82.409 318.003 79.9877 320.89 79.8295Z" fill="#00836B"/>
</g>
</svg>
