<svg xmlns="http://www.w3.org/2000/svg" width="364" height="128" fill="none" viewBox="0 0 364 128"><g id="Card 15"><rect id="BG" width="352.943" height="123.12" x=".528" y="3.528" fill="#F5F1EA" stroke="#0A0F0D" stroke-width="1.057" rx="7.925"/><g id="Group 42"><path id="Date" fill="#0A0F0D" d="M92.3604 32.375C92.938 32.2482 93.5157 32.1496 94.0934 32.0792C94.671 31.9946 95.3826 31.9524 96.2279 31.9524C97.3551 31.9524 98.3132 32.1285 99.1022 32.4807C99.9053 32.833 100.56 33.319 101.068 33.939C101.575 34.5448 101.948 35.2423 102.188 36.0313C102.427 36.8062 102.547 37.6234 102.547 38.4829C102.547 40.1736 102.209 41.6812 101.533 43.0056C100.856 44.33 99.8983 45.3727 98.6584 46.1335C97.4185 46.8802 95.9391 47.2536 94.2202 47.2536C93.3184 47.2536 92.5153 47.1902 91.8109 47.0634C91.1064 46.9507 90.4653 46.7887 89.8876 46.5773L92.3604 32.375ZM96.0589 33.6431C95.6925 33.6431 95.3473 33.6642 95.0233 33.7065C94.6992 33.7347 94.3963 33.784 94.1145 33.8544L92.1279 45.2459C92.4519 45.3304 92.7971 45.4008 93.1635 45.4572C93.5298 45.4995 93.9243 45.5206 94.347 45.5206C95.5728 45.5206 96.6436 45.2318 97.5594 44.6541C98.4893 44.0764 99.2079 43.2733 99.7151 42.2448C100.222 41.2021 100.476 40.0045 100.476 38.6519C100.476 37.7643 100.321 36.9401 100.011 36.1792C99.701 35.4184 99.222 34.8055 98.5739 34.3405C97.9257 33.8756 97.0874 33.6431 96.0589 33.6431ZM103.796 42.6675C103.796 41.3008 104.092 40.1032 104.683 39.0746C105.289 38.032 106.121 37.2219 107.177 36.6442C108.234 36.0524 109.439 35.7565 110.791 35.7565C111.623 35.7565 112.348 35.8411 112.968 36.0101C113.602 36.1792 114.123 36.3483 114.532 36.5174L113.201 44.0201C113.187 44.0905 113.172 44.175 113.158 44.2737C113.158 44.3582 113.158 44.4498 113.158 44.5484C113.158 44.9429 113.271 45.2247 113.497 45.3938C113.722 45.5488 114.018 45.6263 114.384 45.6263L113.729 47.1057C112.968 47.1057 112.383 46.9225 111.975 46.5562C111.58 46.1758 111.383 45.591 111.383 44.802C110.989 45.4783 110.488 46.056 109.883 46.535C109.291 47.0141 108.593 47.2536 107.79 47.2536C107.1 47.2536 106.452 47.0704 105.846 46.7041C105.24 46.3237 104.747 45.7953 104.366 45.119C103.986 44.4287 103.796 43.6115 103.796 42.6675ZM112.44 37.6375C112.172 37.553 111.89 37.4896 111.594 37.4473C111.313 37.3909 110.967 37.3627 110.559 37.3627C109.587 37.3627 108.741 37.5811 108.023 38.0179C107.304 38.4547 106.741 39.0605 106.332 39.8355C105.937 40.5963 105.74 41.4628 105.74 42.435C105.74 43.1113 105.86 43.6819 106.099 44.1469C106.353 44.6118 106.677 44.9641 107.072 45.2036C107.466 45.4431 107.875 45.5629 108.297 45.5629C108.875 45.5629 109.403 45.3656 109.883 44.9711C110.362 44.5766 110.77 44.0271 111.108 43.3226C111.461 42.6181 111.714 41.815 111.869 40.9133L112.44 37.6375ZM116.683 36.4117H118.628L119.642 32.9457H121.101L120.488 36.4117H123.531L123.256 38.0602H120.192L119.304 43.1958C119.276 43.3508 119.255 43.4987 119.241 43.6396C119.227 43.7664 119.22 43.8862 119.22 43.9989C119.22 44.4921 119.368 44.8795 119.663 45.1613C119.959 45.429 120.347 45.5629 120.826 45.5629C121.234 45.5629 121.58 45.5065 121.861 45.3938C122.143 45.267 122.397 45.1402 122.622 45.0134L122.855 46.6619C122.587 46.8168 122.249 46.9507 121.84 47.0634C121.446 47.1902 121.002 47.2536 120.509 47.2536C119.987 47.2536 119.48 47.1479 118.987 46.9366C118.508 46.7253 118.114 46.3941 117.804 45.9433C117.494 45.4783 117.339 44.8795 117.339 44.1469C117.339 43.8369 117.367 43.4917 117.423 43.1113L118.29 38.0602H116.409L116.683 36.4117ZM129.086 47.2536C128.156 47.2536 127.332 47.0564 126.614 46.6619C125.909 46.2533 125.353 45.6756 124.944 44.9288C124.55 44.168 124.352 43.2733 124.352 42.2448C124.352 41.0753 124.592 39.9975 125.071 39.0112C125.564 38.025 126.254 37.2359 127.142 36.6442C128.044 36.0524 129.093 35.7565 130.291 35.7565C131.108 35.7565 131.799 35.9115 132.362 36.2215C132.94 36.5315 133.384 36.933 133.694 37.4261C134.004 37.9193 134.159 38.4476 134.159 39.0112C134.159 39.7861 133.975 40.4272 133.609 40.9344C133.243 41.4417 132.771 41.8362 132.193 42.118C131.615 42.3857 130.988 42.5759 130.312 42.6886C129.65 42.8013 129.016 42.8577 128.41 42.8577C128.03 42.8577 127.649 42.8436 127.269 42.8154C126.902 42.7731 126.578 42.7309 126.297 42.6886C126.409 43.6185 126.74 44.33 127.29 44.8232C127.839 45.3163 128.544 45.5629 129.403 45.5629C130.108 45.5629 130.735 45.4713 131.284 45.2881C131.834 45.105 132.299 44.9218 132.679 44.7386L132.848 46.4294C132.426 46.6266 131.89 46.8168 131.242 47C130.594 47.1691 129.875 47.2536 129.086 47.2536ZM130.143 37.3627C129.481 37.3627 128.882 37.5318 128.347 37.87C127.811 38.194 127.367 38.6449 127.015 39.2226C126.677 39.7861 126.452 40.4343 126.339 41.1669C126.663 41.2233 126.987 41.2726 127.311 41.3149C127.649 41.343 128.016 41.3571 128.41 41.3571C129.594 41.3571 130.531 41.1951 131.221 40.871C131.911 40.5329 132.257 39.9623 132.257 39.1592C132.257 38.666 132.059 38.2433 131.665 37.8911C131.284 37.5389 130.777 37.3627 130.143 37.3627Z"/><path id="August 17th 8:00 AM - 8 PM" fill="#0A0F0D" fill-opacity=".8" d="M100.42 71.2L98.86 67.2H92.38L90.82 71.16L89.2 70.5L94.68 57H96.76L102.16 70.5L100.42 71.2ZM92.98 65.6H98.24L95.62 58.88L92.98 65.6ZM107.359 71.24C106.759 71.24 106.193 71.1133 105.659 70.86C105.126 70.6067 104.693 70.2 104.359 69.64C104.026 69.0667 103.859 68.3067 103.859 67.36V60.6H105.659V67.12C105.659 67.9333 105.833 68.56 106.179 69C106.526 69.4267 107.033 69.64 107.699 69.64C108.246 69.64 108.773 69.5333 109.279 69.32C109.799 69.0933 110.259 68.7933 110.659 68.42V60.6H112.459V68.3C112.459 68.8733 112.579 69.2533 112.819 69.44C113.073 69.6133 113.346 69.7 113.639 69.7L113.259 71.1C112.019 71.1 111.253 70.6067 110.959 69.62C110.493 70.1 109.953 70.4933 109.339 70.8C108.726 71.0933 108.066 71.24 107.359 71.24ZM119.654 75.64C119.041 75.64 118.441 75.5667 117.854 75.42C117.281 75.2733 116.768 75.0533 116.314 74.76L116.974 73.2C117.294 73.4533 117.668 73.66 118.094 73.82C118.521 73.9933 119.041 74.08 119.654 74.08C120.601 74.08 121.341 73.8267 121.874 73.32C122.421 72.8267 122.694 72.0333 122.694 70.94V69.66C122.428 69.98 122.041 70.2867 121.534 70.58C121.041 70.86 120.448 71 119.754 71C118.968 71 118.221 70.8 117.514 70.4C116.808 69.9867 116.234 69.3867 115.794 68.6C115.354 67.8133 115.134 66.8667 115.134 65.76C115.134 64.72 115.348 63.7933 115.774 62.98C116.214 62.1667 116.801 61.5267 117.534 61.06C118.268 60.5933 119.074 60.36 119.954 60.36C120.541 60.36 121.074 60.46 121.554 60.66C122.034 60.86 122.448 61.1067 122.794 61.4V60.6H124.434V70.76C124.434 71.9067 124.234 72.84 123.834 73.56C123.434 74.28 122.874 74.8067 122.154 75.14C121.448 75.4733 120.614 75.64 119.654 75.64ZM120.154 69.4C120.688 69.4 121.168 69.28 121.594 69.04C122.021 68.8 122.368 68.52 122.634 68.2V62.76C122.341 62.5467 121.988 62.3533 121.574 62.18C121.161 62.0067 120.681 61.92 120.134 61.92C119.588 61.92 119.074 62.0667 118.594 62.36C118.114 62.6533 117.721 63.08 117.414 63.64C117.121 64.1867 116.974 64.86 116.974 65.66C116.974 66.42 117.121 67.08 117.414 67.64C117.721 68.2 118.114 68.6333 118.594 68.94C119.074 69.2467 119.594 69.4 120.154 69.4ZM130.934 71.24C130.334 71.24 129.767 71.1133 129.234 70.86C128.7 70.6067 128.267 70.2 127.934 69.64C127.6 69.0667 127.434 68.3067 127.434 67.36V60.6H129.234V67.12C129.234 67.9333 129.407 68.56 129.754 69C130.1 69.4267 130.607 69.64 131.274 69.64C131.82 69.64 132.347 69.5333 132.854 69.32C133.374 69.0933 133.834 68.7933 134.234 68.42V60.6H136.034V68.3C136.034 68.8733 136.154 69.2533 136.394 69.44C136.647 69.6133 136.92 69.7 137.214 69.7L136.834 71.1C135.594 71.1 134.827 70.6067 134.534 69.62C134.067 70.1 133.527 70.4933 132.914 70.8C132.3 71.0933 131.64 71.24 130.934 71.24ZM142.404 71.24C141.617 71.24 140.904 71.14 140.264 70.94C139.637 70.74 139.117 70.48 138.704 70.16L139.464 68.66C139.811 68.9533 140.244 69.2 140.764 69.4C141.297 69.5867 141.864 69.68 142.464 69.68C143.211 69.68 143.771 69.56 144.144 69.32C144.531 69.0667 144.724 68.7467 144.724 68.36C144.724 68.08 144.651 67.8333 144.504 67.62C144.371 67.4067 144.117 67.2 143.744 67C143.371 66.7867 142.831 66.56 142.124 66.32C141.151 65.9867 140.417 65.5933 139.924 65.14C139.444 64.6733 139.204 64.0333 139.204 63.22C139.204 62.42 139.551 61.7467 140.244 61.2C140.951 60.64 141.924 60.36 143.164 60.36C143.831 60.36 144.424 60.4333 144.944 60.58C145.464 60.7133 145.931 60.8867 146.344 61.1L145.844 62.58C145.484 62.3667 145.071 62.1933 144.604 62.06C144.151 61.9267 143.644 61.86 143.084 61.86C142.391 61.86 141.864 62 141.504 62.28C141.144 62.56 140.964 62.8667 140.964 63.2C140.964 63.52 141.104 63.7933 141.384 64.02C141.664 64.2467 142.211 64.4933 143.024 64.76C144.344 65.2 145.264 65.6867 145.784 66.22C146.304 66.7533 146.564 67.42 146.564 68.22C146.564 69.1533 146.184 69.8933 145.424 70.44C144.677 70.9733 143.671 71.24 142.404 71.24ZM152.599 71.24C151.599 71.24 150.806 70.9133 150.219 70.26C149.646 69.5933 149.359 68.6467 149.359 67.42V62.54H147.559V60.98H149.399L149.779 57.7H151.159V60.98H154.039V62.54H151.159V67.56C151.159 68.3333 151.319 68.8733 151.639 69.18C151.973 69.4867 152.366 69.64 152.819 69.64C153.153 69.64 153.466 69.5867 153.759 69.48C154.066 69.3733 154.346 69.2467 154.599 69.1L155.099 70.54C154.833 70.7 154.473 70.8533 154.019 71C153.566 71.16 153.093 71.24 152.599 71.24ZM164.185 71V69.4H167.045V59.3L164.365 61.32L163.385 59.98L167.525 57H168.845V69.4H171.225V71H164.185ZM177.197 71C177.197 69.4667 177.297 68.1067 177.497 66.92C177.71 65.72 178.01 64.64 178.397 63.68C178.797 62.72 179.29 61.8333 179.877 61.02C180.464 60.2067 181.137 59.4133 181.897 58.64H175.157V57H184.037V58.44C183.117 59.3333 182.35 60.2067 181.737 61.06C181.124 61.9 180.63 62.7933 180.257 63.74C179.884 64.6733 179.617 65.7333 179.457 66.92C179.297 68.0933 179.217 69.4533 179.217 71H177.197ZM190.529 71.24C189.529 71.24 188.736 70.9133 188.149 70.26C187.576 69.5933 187.289 68.6467 187.289 67.42V62.54H185.489V60.98H187.329L187.709 57.7H189.089V60.98H191.969V62.54H189.089V67.56C189.089 68.3333 189.249 68.8733 189.569 69.18C189.902 69.4867 190.296 69.64 190.749 69.64C191.082 69.64 191.396 69.5867 191.689 69.48C191.996 69.3733 192.276 69.2467 192.529 69.1L193.029 70.54C192.762 70.7 192.402 70.8533 191.949 71C191.496 71.16 191.022 71.24 190.529 71.24ZM194.838 71V56.2H196.638V62.26C197.012 61.7133 197.485 61.26 198.058 60.9C198.632 60.54 199.305 60.36 200.078 60.36C201.252 60.36 202.125 60.7133 202.698 61.42C203.285 62.1267 203.578 63.06 203.578 64.22V71H201.778V64.42C201.778 63.6733 201.605 63.0733 201.258 62.62C200.912 62.1667 200.425 61.94 199.798 61.94C199.185 61.94 198.598 62.16 198.038 62.6C197.492 63.0267 197.025 63.5333 196.638 64.12V71H194.838ZM101.096 100.24C100.083 100.24 99.2028 100.067 98.4561 99.72C97.7094 99.3733 97.1294 98.9067 96.7161 98.32C96.3161 97.72 96.1161 97.06 96.1161 96.34C96.1161 95.4733 96.3494 94.72 96.8161 94.08C97.2961 93.44 98.0428 92.9 99.0561 92.46C98.3494 92.0733 97.8028 91.6267 97.4161 91.12C97.0428 90.6 96.8561 89.96 96.8561 89.2C96.8561 88.52 97.0361 87.9267 97.3961 87.42C97.7561 86.9 98.2428 86.4933 98.8561 86.2C99.4828 85.9067 100.176 85.76 100.936 85.76C101.763 85.76 102.489 85.9133 103.116 86.22C103.743 86.5133 104.229 86.92 104.576 87.44C104.936 87.96 105.116 88.54 105.116 89.18C105.116 89.9933 104.909 90.6533 104.496 91.16C104.083 91.6667 103.529 92.0933 102.836 92.44C103.823 92.8533 104.576 93.3733 105.096 94C105.616 94.6133 105.876 95.3533 105.876 96.22C105.876 97.02 105.669 97.7267 105.256 98.34C104.843 98.94 104.276 99.4067 103.556 99.74C102.836 100.073 102.016 100.24 101.096 100.24ZM101.196 91.78C101.783 91.58 102.289 91.2733 102.716 90.86C103.156 90.4467 103.376 89.9467 103.376 89.36C103.376 88.7467 103.143 88.24 102.676 87.84C102.209 87.44 101.629 87.24 100.936 87.24C100.256 87.24 99.6961 87.42 99.2561 87.78C98.8161 88.1267 98.5961 88.5867 98.5961 89.16C98.5961 89.7333 98.8294 90.2533 99.2961 90.72C99.7761 91.1867 100.409 91.54 101.196 91.78ZM101.116 98.64C101.969 98.64 102.669 98.42 103.216 97.98C103.763 97.5267 104.036 96.9533 104.036 96.26C104.036 95.62 103.749 95.0467 103.176 94.54C102.616 94.0333 101.836 93.6 100.836 93.24C100.329 93.36 99.8561 93.5467 99.4161 93.8C98.9761 94.0533 98.6228 94.3667 98.3561 94.74C98.0894 95.1133 97.9561 95.54 97.9561 96.02C97.9561 96.5133 98.0894 96.96 98.3561 97.36C98.6361 97.76 99.0161 98.0733 99.4961 98.3C99.9761 98.5267 100.516 98.64 101.116 98.64ZM109.988 92.04C109.628 92.04 109.315 91.9067 109.048 91.64C108.782 91.3733 108.648 91.06 108.648 90.7C108.648 90.2867 108.768 89.96 109.008 89.72C109.248 89.48 109.575 89.36 109.988 89.36C110.335 89.36 110.642 89.4933 110.908 89.76C111.188 90.0267 111.328 90.34 111.328 90.7C111.328 91.1 111.202 91.4267 110.948 91.68C110.695 91.92 110.375 92.04 109.988 92.04ZM109.988 100.24C109.628 100.24 109.315 100.107 109.048 99.84C108.782 99.5733 108.648 99.26 108.648 98.9C108.648 98.4867 108.768 98.16 109.008 97.92C109.248 97.68 109.575 97.56 109.988 97.56C110.335 97.56 110.642 97.6933 110.908 97.96C111.188 98.2267 111.328 98.54 111.328 98.9C111.328 99.3 111.202 99.6267 110.948 99.88C110.695 100.12 110.375 100.24 109.988 100.24ZM118.964 100.24C117.404 100.24 116.218 99.6067 115.404 98.34C114.591 97.06 114.184 95.2733 114.184 92.98C114.184 90.6733 114.598 88.8933 115.424 87.64C116.264 86.3867 117.458 85.76 119.004 85.76C120.564 85.76 121.751 86.3933 122.564 87.66C123.378 88.9267 123.784 90.7133 123.784 93.02C123.784 95.3267 123.364 97.1067 122.524 98.36C121.698 99.6133 120.511 100.24 118.964 100.24ZM118.984 98.6C119.584 98.6 120.098 98.4267 120.524 98.08C120.964 97.72 121.298 97.1333 121.524 96.32C121.764 95.5067 121.884 94.4133 121.884 93.04C121.884 91.2 121.624 89.8 121.104 88.84C120.598 87.88 119.891 87.4 118.984 87.4C118.384 87.4 117.864 87.58 117.424 87.94C116.998 88.2867 116.664 88.8667 116.424 89.68C116.198 90.48 116.084 91.5733 116.084 92.96C116.084 94.8 116.338 96.2 116.844 97.16C117.364 98.12 118.078 98.6 118.984 98.6ZM130.957 100.24C129.397 100.24 128.21 99.6067 127.397 98.34C126.583 97.06 126.177 95.2733 126.177 92.98C126.177 90.6733 126.59 88.8933 127.417 87.64C128.257 86.3867 129.45 85.76 130.997 85.76C132.557 85.76 133.743 86.3933 134.557 87.66C135.37 88.9267 135.777 90.7133 135.777 93.02C135.777 95.3267 135.357 97.1067 134.517 98.36C133.69 99.6133 132.503 100.24 130.957 100.24ZM130.977 98.6C131.577 98.6 132.09 98.4267 132.517 98.08C132.957 97.72 133.29 97.1333 133.517 96.32C133.757 95.5067 133.877 94.4133 133.877 93.04C133.877 91.2 133.617 89.8 133.097 88.84C132.59 87.88 131.883 87.4 130.977 87.4C130.377 87.4 129.857 87.58 129.417 87.94C128.99 88.2867 128.657 88.8667 128.417 89.68C128.19 90.48 128.077 91.5733 128.077 92.96C128.077 94.8 128.33 96.2 128.837 97.16C129.357 98.12 130.07 98.6 130.977 98.6ZM154.385 100.2L152.825 96.2H146.345L144.785 100.16L143.165 99.5L148.645 86H150.725L156.125 99.5L154.385 100.2ZM146.945 94.6H152.205L149.585 87.88L146.945 94.6ZM158.124 100V86H160.784L164.664 94.86L168.484 86H171.204V100H169.304V88.42L165.564 96.84H163.684L159.924 88.42V100H158.124ZM181.6 93.96V92.32H188.4V93.96H181.6ZM203.088 100.24C202.075 100.24 201.195 100.067 200.448 99.72C199.702 99.3733 199.122 98.9067 198.708 98.32C198.308 97.72 198.108 97.06 198.108 96.34C198.108 95.4733 198.342 94.72 198.808 94.08C199.288 93.44 200.035 92.9 201.048 92.46C200.342 92.0733 199.795 91.6267 199.408 91.12C199.035 90.6 198.848 89.96 198.848 89.2C198.848 88.52 199.028 87.9267 199.388 87.42C199.748 86.9 200.235 86.4933 200.848 86.2C201.475 85.9067 202.168 85.76 202.928 85.76C203.755 85.76 204.482 85.9133 205.108 86.22C205.735 86.5133 206.222 86.92 206.568 87.44C206.928 87.96 207.108 88.54 207.108 89.18C207.108 89.9933 206.902 90.6533 206.488 91.16C206.075 91.6667 205.522 92.0933 204.828 92.44C205.815 92.8533 206.568 93.3733 207.088 94C207.608 94.6133 207.868 95.3533 207.868 96.22C207.868 97.02 207.662 97.7267 207.248 98.34C206.835 98.94 206.268 99.4067 205.548 99.74C204.828 100.073 204.008 100.24 203.088 100.24ZM203.188 91.78C203.775 91.58 204.282 91.2733 204.708 90.86C205.148 90.4467 205.368 89.9467 205.368 89.36C205.368 88.7467 205.135 88.24 204.668 87.84C204.202 87.44 203.622 87.24 202.928 87.24C202.248 87.24 201.688 87.42 201.248 87.78C200.808 88.1267 200.588 88.5867 200.588 89.16C200.588 89.7333 200.822 90.2533 201.288 90.72C201.768 91.1867 202.402 91.54 203.188 91.78ZM203.108 98.64C203.962 98.64 204.662 98.42 205.208 97.98C205.755 97.5267 206.028 96.9533 206.028 96.26C206.028 95.62 205.742 95.0467 205.168 94.54C204.608 94.0333 203.828 93.6 202.828 93.24C202.322 93.36 201.848 93.5467 201.408 93.8C200.968 94.0533 200.615 94.3667 200.348 94.74C200.082 95.1133 199.948 95.54 199.948 96.02C199.948 96.5133 200.082 96.96 200.348 97.36C200.628 97.76 201.008 98.0733 201.488 98.3C201.968 98.5267 202.508 98.64 203.108 98.64ZM216.777 100V86.04C217.323 85.9733 217.923 85.9267 218.577 85.9C219.243 85.86 219.93 85.84 220.637 85.84C221.797 85.84 222.783 86.0267 223.597 86.4C224.41 86.76 225.03 87.26 225.457 87.9C225.883 88.54 226.097 89.2733 226.097 90.1C226.097 91.1 225.85 91.9467 225.357 92.64C224.863 93.3333 224.177 93.8667 223.297 94.24C222.417 94.6 221.397 94.78 220.237 94.78C219.677 94.78 219.157 94.76 218.677 94.72V100H216.777ZM220.477 93.2C221.663 93.2 222.583 92.9333 223.237 92.4C223.89 91.8667 224.217 91.1533 224.217 90.26C224.217 89.3933 223.903 88.7067 223.277 88.2C222.65 87.6933 221.757 87.44 220.597 87.44C220.237 87.44 219.897 87.4467 219.577 87.46C219.257 87.4733 218.957 87.4933 218.677 87.52V93.1C218.89 93.1267 219.15 93.1533 219.457 93.18C219.763 93.1933 220.103 93.2 220.477 93.2ZM228.398 100V86H231.058L234.938 94.86L238.758 86H241.478V100H239.578V88.42L235.838 96.84H233.958L230.198 88.42V100H228.398Z"/></g><g id="Group 3698"><rect id="Rectangle 21" width="55.832" height="71.083" x="13.209" y="29.442" fill="#FEFEF9" stroke="#0A0F0D" stroke-width="1.057" rx="7.925"/><g id="Stack"><path id="Vector" fill="#FEFEF9" d="M56.3367 53.7156H25.3066V79.2825H56.3367V53.7156Z"/><g id="Vector_2"><path fill="#FEFEF9" d="M29.1851 71.2926L40.8213 76.8854L52.4576 71.2926"/><path stroke="#0A0F0D" stroke-linecap="round" stroke-linejoin="round" stroke-width="1.585" d="M29.1851 71.2926L40.8213 76.8854L52.4576 71.2926"/></g><g id="Vector_3"><path fill="#FEFEF9" d="M29.1851 66.4985L40.8213 72.0913L52.4576 66.4985"/><path stroke="#0A0F0D" stroke-linecap="round" stroke-linejoin="round" stroke-width="1.585" d="M29.1851 66.4985L40.8213 72.0913L52.4576 66.4985"/></g><path id="Vector_4" fill="#FEFEF9" stroke="#0A0F0D" stroke-linecap="round" stroke-linejoin="round" stroke-width="1.585" d="M29.1851 61.705L40.8213 67.2977L52.4576 61.705L40.8213 56.1122L29.1851 61.705Z"/></g></g><path id="Vector_5" fill="#00836B" fill-rule="evenodd" d="M302 100.798C302 97.9253 304.329 95.5961 307.202 95.5961C310.075 95.5961 312.404 97.9252 312.404 100.798C312.404 103.671 310.075 106 307.202 106C304.329 106 302 103.671 302 100.798ZM320.89 79.8295C320.92 79.8289 320.95 79.8289 320.98 79.8289C323.862 79.8342 326.195 82.1753 326.19 85.0583V100.736C326.191 101.088 326.156 101.44 326.086 101.785C325.514 104.606 322.765 106.429 319.944 105.858C317.499 105.367 315.83 103.065 315.83 99.2723V85.2993C315.763 82.409 318.003 79.9877 320.89 79.8295Z" clip-rule="evenodd"/></g></svg>