<svg width="355" height="125" viewBox="0 0 355 125" fill="none" xmlns="http://www.w3.org/2000/svg">
<g id="Card 12">
<rect id="BG" x="0.528358" y="0.528358" width="352.943" height="123.12" rx="7.92537" fill="#F5F1EA" stroke="#0A0F0D" stroke-width="1.05672"/>
<g id="Group 42">
<path id="Date" d="M78.3604 24.3847C78.938 24.2579 79.5157 24.1593 80.0934 24.0888C80.671 24.0043 81.3826 23.962 82.2279 23.962C83.3551 23.962 84.3132 24.1381 85.1022 24.4904C85.9053 24.8426 86.5605 25.3287 87.0677 25.9486C87.5749 26.5545 87.9483 27.2519 88.1878 28.0409C88.4273 28.8159 88.5471 29.633 88.5471 30.4925C88.5471 32.1833 88.209 33.6908 87.5327 35.0153C86.8564 36.3397 85.8983 37.3823 84.6584 38.1431C83.4185 38.8899 81.9391 39.2633 80.2202 39.2633C79.3184 39.2633 78.5153 39.1999 77.8109 39.073C77.1064 38.9603 76.4653 38.7983 75.8876 38.587L78.3604 24.3847ZM82.0589 25.6527C81.6925 25.6527 81.3473 25.6739 81.0233 25.7162C80.6992 25.7443 80.3963 25.7936 80.1145 25.8641L78.1279 37.2555C78.4519 37.34 78.7971 37.4105 79.1635 37.4668C79.5298 37.5091 79.9243 37.5302 80.347 37.5302C81.5728 37.5302 82.6436 37.2414 83.5594 36.6637C84.4893 36.0861 85.2079 35.283 85.7151 34.2544C86.2223 33.2118 86.4759 32.0142 86.4759 30.6616C86.4759 29.7739 86.321 28.9497 86.011 28.1889C85.701 27.428 85.222 26.8151 84.5739 26.3502C83.9257 25.8852 83.0874 25.6527 82.0589 25.6527ZM89.7958 34.6771C89.7958 33.3104 90.0917 32.1128 90.6835 31.0843C91.2893 30.0416 92.1206 29.2315 93.1773 28.6538C94.2341 28.0621 95.4387 27.7662 96.7913 27.7662C97.6226 27.7662 98.3482 27.8507 98.9681 28.0198C99.6022 28.1889 100.123 28.3579 100.532 28.527L99.2006 36.0297C99.1865 36.1002 99.1724 36.1847 99.1584 36.2833C99.1584 36.3679 99.1584 36.4594 99.1584 36.5581C99.1584 36.9526 99.2711 37.2344 99.4965 37.4034C99.7219 37.5584 100.018 37.6359 100.384 37.6359L99.729 39.1153C98.9681 39.1153 98.3834 38.9322 97.9748 38.5658C97.5803 38.1854 97.3831 37.6007 97.3831 36.8117C96.9886 37.488 96.4884 38.0656 95.8825 38.5447C95.2908 39.0237 94.5933 39.2633 93.7902 39.2633C93.0998 39.2633 92.4517 39.0801 91.8459 38.7138C91.24 38.3333 90.7469 37.805 90.3665 37.1287C89.9861 36.4383 89.7958 35.6211 89.7958 34.6771ZM98.4398 29.6471C98.1721 29.5626 97.8903 29.4992 97.5944 29.4569C97.3126 29.4006 96.9674 29.3724 96.5588 29.3724C95.5867 29.3724 94.7413 29.5908 94.0227 30.0276C93.3041 30.4643 92.7406 31.0702 92.332 31.8451C91.9375 32.6059 91.7402 33.4724 91.7402 34.4446C91.7402 35.1209 91.86 35.6916 92.0995 36.1565C92.3531 36.6215 92.6772 36.9737 93.0717 37.2132C93.4662 37.4527 93.8748 37.5725 94.2975 37.5725C94.8751 37.5725 95.4035 37.3753 95.8825 36.9807C96.3616 36.5862 96.7702 36.0367 97.1083 35.3323C97.4606 34.6278 97.7142 33.8247 97.8692 32.923L98.4398 29.6471ZM102.683 28.4213H104.628L105.642 24.9553H107.101L106.488 28.4213H109.531L109.256 30.0698H106.192L105.304 35.2055C105.276 35.3604 105.255 35.5084 105.241 35.6493C105.227 35.7761 105.22 35.8959 105.22 36.0086C105.22 36.5017 105.368 36.8892 105.663 37.171C105.959 37.4387 106.347 37.5725 106.826 37.5725C107.234 37.5725 107.58 37.5162 107.861 37.4034C108.143 37.2766 108.397 37.1498 108.622 37.023L108.855 38.6715C108.587 38.8265 108.249 38.9603 107.84 39.073C107.446 39.1999 107.002 39.2633 106.509 39.2633C105.987 39.2633 105.48 39.1576 104.987 38.9462C104.508 38.7349 104.114 38.4038 103.804 37.9529C103.494 37.488 103.339 36.8892 103.339 36.1565C103.339 35.8465 103.367 35.5013 103.423 35.1209L104.29 30.0698H102.409L102.683 28.4213ZM115.086 39.2633C114.156 39.2633 113.332 39.066 112.614 38.6715C111.909 38.2629 111.353 37.6852 110.944 36.9385C110.55 36.1776 110.352 35.283 110.352 34.2544C110.352 33.085 110.592 32.0071 111.071 31.0209C111.564 30.0346 112.254 29.2456 113.142 28.6538C114.044 28.0621 115.093 27.7662 116.291 27.7662C117.108 27.7662 117.799 27.9212 118.362 28.2311C118.94 28.5411 119.384 28.9427 119.694 29.4358C120.004 29.9289 120.159 30.4573 120.159 31.0209C120.159 31.7958 119.975 32.4369 119.609 32.9441C119.243 33.4513 118.771 33.8458 118.193 34.1276C117.615 34.3953 116.988 34.5855 116.312 34.6982C115.65 34.811 115.016 34.8673 114.41 34.8673C114.03 34.8673 113.649 34.8532 113.269 34.825C112.902 34.7828 112.578 34.7405 112.297 34.6982C112.409 35.6282 112.74 36.3397 113.29 36.8328C113.839 37.3259 114.544 37.5725 115.403 37.5725C116.108 37.5725 116.735 37.4809 117.284 37.2978C117.834 37.1146 118.299 36.9314 118.679 36.7483L118.848 38.439C118.426 38.6363 117.89 38.8265 117.242 39.0096C116.594 39.1787 115.875 39.2633 115.086 39.2633ZM116.143 29.3724C115.481 29.3724 114.882 29.5415 114.347 29.8796C113.811 30.2037 113.367 30.6545 113.015 31.2322C112.677 31.7958 112.452 32.4439 112.339 33.1766C112.663 33.2329 112.987 33.2822 113.311 33.3245C113.649 33.3527 114.016 33.3668 114.41 33.3668C115.594 33.3668 116.531 33.2047 117.221 32.8807C117.911 32.5425 118.257 31.9719 118.257 31.1688C118.257 30.6757 118.059 30.253 117.665 29.9007C117.284 29.5485 116.777 29.3724 116.143 29.3724Z" fill="#0A0F0D"/>
<path id="Nov 28th 9:00 AM - 10:00 PM" d="M76.8 71V57H79.32L85.5 68.64V57H87.3V71H84.82L78.6 59.44V71H76.8ZM95.0816 71.24C94.0949 71.24 93.2082 71.0133 92.4216 70.56C91.6349 70.0933 91.0149 69.4533 90.5616 68.64C90.1216 67.8133 89.9016 66.8667 89.9016 65.8C89.9016 64.68 90.1282 63.7133 90.5816 62.9C91.0349 62.0867 91.6549 61.46 92.4416 61.02C93.2282 60.58 94.1082 60.36 95.0816 60.36C96.0549 60.36 96.9282 60.58 97.7016 61.02C98.4882 61.46 99.1082 62.0867 99.5616 62.9C100.028 63.7 100.262 64.6533 100.262 65.76C100.262 66.8667 100.035 67.8333 99.5816 68.66C99.1282 69.4733 98.5082 70.1067 97.7216 70.56C96.9482 71.0133 96.0682 71.24 95.0816 71.24ZM95.0816 69.64C96.1349 69.64 96.9549 69.2867 97.5416 68.58C98.1282 67.86 98.4216 66.9333 98.4216 65.8C98.4216 65.1067 98.2749 64.4733 97.9816 63.9C97.6882 63.3133 97.2882 62.8467 96.7816 62.5C96.2882 62.14 95.7216 61.96 95.0816 61.96C94.0282 61.96 93.2082 62.3067 92.6216 63C92.0349 63.6933 91.7416 64.6133 91.7416 65.76C91.7416 66.4533 91.8882 67.1 92.1816 67.7C92.4749 68.2867 92.8682 68.76 93.3616 69.12C93.8682 69.4667 94.4416 69.64 95.0816 69.64ZM105.044 71L100.864 61.08L102.504 60.4L106.044 68.96L109.584 60.4L111.124 61.08L106.924 71H105.044ZM119.084 71C119.044 70.76 119.024 70.5133 119.024 70.26C119.024 69.3933 119.171 68.62 119.464 67.94C119.771 67.2467 120.164 66.62 120.644 66.06C121.124 65.4867 121.631 64.96 122.164 64.48C122.711 63.9867 123.218 63.52 123.684 63.08C124.164 62.6267 124.558 62.1733 124.864 61.72C125.171 61.2667 125.324 60.7933 125.324 60.3C125.324 59.74 125.118 59.28 124.704 58.92C124.291 58.5467 123.758 58.36 123.104 58.36C122.544 58.36 122.031 58.4733 121.564 58.7C121.111 58.9133 120.684 59.2067 120.284 59.58L119.284 58.36C119.818 57.88 120.404 57.4933 121.044 57.2C121.698 56.9067 122.451 56.76 123.304 56.76C124.091 56.76 124.778 56.9133 125.364 57.22C125.951 57.5133 126.404 57.92 126.724 58.44C127.058 58.96 127.224 59.54 127.224 60.18C127.224 60.82 127.084 61.4133 126.804 61.96C126.524 62.5067 126.164 63.02 125.724 63.5C125.284 63.98 124.811 64.4467 124.304 64.9C123.798 65.34 123.311 65.7933 122.844 66.26C122.378 66.7267 121.978 67.2133 121.644 67.72C121.324 68.2267 121.124 68.7733 121.044 69.36H127.204V71H119.084ZM135.416 71.24C134.403 71.24 133.523 71.0667 132.776 70.72C132.03 70.3733 131.45 69.9067 131.036 69.32C130.636 68.72 130.436 68.06 130.436 67.34C130.436 66.4733 130.67 65.72 131.136 65.08C131.616 64.44 132.363 63.9 133.376 63.46C132.67 63.0733 132.123 62.6267 131.736 62.12C131.363 61.6 131.176 60.96 131.176 60.2C131.176 59.52 131.356 58.9267 131.716 58.42C132.076 57.9 132.563 57.4933 133.176 57.2C133.803 56.9067 134.496 56.76 135.256 56.76C136.083 56.76 136.81 56.9133 137.436 57.22C138.063 57.5133 138.55 57.92 138.896 58.44C139.256 58.96 139.436 59.54 139.436 60.18C139.436 60.9933 139.23 61.6533 138.816 62.16C138.403 62.6667 137.85 63.0933 137.156 63.44C138.143 63.8533 138.896 64.3733 139.416 65C139.936 65.6133 140.196 66.3533 140.196 67.22C140.196 68.02 139.99 68.7267 139.576 69.34C139.163 69.94 138.596 70.4067 137.876 70.74C137.156 71.0733 136.336 71.24 135.416 71.24ZM135.516 62.78C136.103 62.58 136.61 62.2733 137.036 61.86C137.476 61.4467 137.696 60.9467 137.696 60.36C137.696 59.7467 137.463 59.24 136.996 58.84C136.53 58.44 135.95 58.24 135.256 58.24C134.576 58.24 134.016 58.42 133.576 58.78C133.136 59.1267 132.916 59.5867 132.916 60.16C132.916 60.7333 133.15 61.2533 133.616 61.72C134.096 62.1867 134.73 62.54 135.516 62.78ZM135.436 69.64C136.29 69.64 136.99 69.42 137.536 68.98C138.083 68.5267 138.356 67.9533 138.356 67.26C138.356 66.62 138.07 66.0467 137.496 65.54C136.936 65.0333 136.156 64.6 135.156 64.24C134.65 64.36 134.176 64.5467 133.736 64.8C133.296 65.0533 132.943 65.3667 132.676 65.74C132.41 66.1133 132.276 66.54 132.276 67.02C132.276 67.5133 132.41 67.96 132.676 68.36C132.956 68.76 133.336 69.0733 133.816 69.3C134.296 69.5267 134.836 69.64 135.436 69.64ZM146.549 71.24C145.549 71.24 144.755 70.9133 144.169 70.26C143.595 69.5933 143.309 68.6467 143.309 67.42V62.54H141.509V60.98H143.349L143.729 57.7H145.109V60.98H147.989V62.54H145.109V67.56C145.109 68.3333 145.269 68.8733 145.589 69.18C145.922 69.4867 146.315 69.64 146.769 69.64C147.102 69.64 147.415 69.5867 147.709 69.48C148.015 69.3733 148.295 69.2467 148.549 69.1L149.049 70.54C148.782 70.7 148.422 70.8533 147.969 71C147.515 71.16 147.042 71.24 146.549 71.24ZM150.858 71V56.2H152.658V62.26C153.031 61.7133 153.504 61.26 154.078 60.9C154.651 60.54 155.324 60.36 156.098 60.36C157.271 60.36 158.144 60.7133 158.718 61.42C159.304 62.1267 159.598 63.06 159.598 64.22V71H157.798V64.42C157.798 63.6733 157.624 63.0733 157.278 62.62C156.931 62.1667 156.444 61.94 155.818 61.94C155.204 61.94 154.618 62.16 154.058 62.6C153.511 63.0267 153.044 63.5333 152.658 64.12V71H150.858ZM172.37 71.24C171.597 71.24 170.903 71.1067 170.29 70.84C169.677 70.56 169.117 70.1733 168.61 69.68L169.79 68.34C170.59 69.18 171.483 69.6 172.47 69.6C173.017 69.6 173.523 69.42 173.99 69.06C174.457 68.6867 174.83 68.1067 175.11 67.32C175.403 66.5333 175.55 65.52 175.55 64.28C175.137 64.6533 174.677 64.9667 174.17 65.22C173.663 65.4733 173.117 65.6 172.53 65.6C171.823 65.6 171.15 65.44 170.51 65.12C169.883 64.7867 169.37 64.3067 168.97 63.68C168.583 63.04 168.39 62.2533 168.39 61.32C168.39 60.48 168.577 59.7133 168.95 59.02C169.337 58.3267 169.87 57.78 170.55 57.38C171.23 56.9667 172.017 56.76 172.91 56.76C173.603 56.76 174.197 56.8667 174.69 57.08C175.183 57.2933 175.597 57.5733 175.93 57.92C176.25 58.2533 176.517 58.6467 176.73 59.1C176.957 59.54 177.123 60.1267 177.23 60.86C177.337 61.58 177.39 62.52 177.39 63.68C177.39 65.4533 177.17 66.9 176.73 68.02C176.29 69.1267 175.69 69.94 174.93 70.46C174.183 70.98 173.33 71.24 172.37 71.24ZM172.83 64.12C173.337 64.12 173.823 63.9933 174.29 63.74C174.77 63.4867 175.19 63.18 175.55 62.82V62.22C175.55 60.9533 175.303 59.9933 174.81 59.34C174.33 58.6867 173.677 58.36 172.85 58.36C172.09 58.36 171.443 58.6267 170.91 59.16C170.39 59.68 170.13 60.3733 170.13 61.24C170.13 61.84 170.257 62.36 170.51 62.8C170.763 63.2267 171.09 63.5533 171.49 63.78C171.903 64.0067 172.35 64.12 172.83 64.12ZM182.082 63.04C181.722 63.04 181.409 62.9067 181.142 62.64C180.875 62.3733 180.742 62.06 180.742 61.7C180.742 61.2867 180.862 60.96 181.102 60.72C181.342 60.48 181.669 60.36 182.082 60.36C182.429 60.36 182.735 60.4933 183.002 60.76C183.282 61.0267 183.422 61.34 183.422 61.7C183.422 62.1 183.295 62.4267 183.042 62.68C182.789 62.92 182.469 63.04 182.082 63.04ZM182.082 71.24C181.722 71.24 181.409 71.1067 181.142 70.84C180.875 70.5733 180.742 70.26 180.742 69.9C180.742 69.4867 180.862 69.16 181.102 68.92C181.342 68.68 181.669 68.56 182.082 68.56C182.429 68.56 182.735 68.6933 183.002 68.96C183.282 69.2267 183.422 69.54 183.422 69.9C183.422 70.3 183.295 70.6267 183.042 70.88C182.789 71.12 182.469 71.24 182.082 71.24ZM191.058 71.24C189.498 71.24 188.311 70.6067 187.498 69.34C186.685 68.06 186.278 66.2733 186.278 63.98C186.278 61.6733 186.691 59.8933 187.518 58.64C188.358 57.3867 189.551 56.76 191.098 56.76C192.658 56.76 193.845 57.3933 194.658 58.66C195.471 59.9267 195.878 61.7133 195.878 64.02C195.878 66.3267 195.458 68.1067 194.618 69.36C193.791 70.6133 192.605 71.24 191.058 71.24ZM191.078 69.6C191.678 69.6 192.191 69.4267 192.618 69.08C193.058 68.72 193.391 68.1333 193.618 67.32C193.858 66.5067 193.978 65.4133 193.978 64.04C193.978 62.2 193.718 60.8 193.198 59.84C192.691 58.88 191.985 58.4 191.078 58.4C190.478 58.4 189.958 58.58 189.518 58.94C189.091 59.2867 188.758 59.8667 188.518 60.68C188.291 61.48 188.178 62.5733 188.178 63.96C188.178 65.8 188.431 67.2 188.938 68.16C189.458 69.12 190.171 69.6 191.078 69.6ZM203.05 71.24C201.49 71.24 200.304 70.6067 199.49 69.34C198.677 68.06 198.27 66.2733 198.27 63.98C198.27 61.6733 198.684 59.8933 199.51 58.64C200.35 57.3867 201.544 56.76 203.09 56.76C204.65 56.76 205.837 57.3933 206.65 58.66C207.464 59.9267 207.87 61.7133 207.87 64.02C207.87 66.3267 207.45 68.1067 206.61 69.36C205.784 70.6133 204.597 71.24 203.05 71.24ZM203.07 69.6C203.67 69.6 204.184 69.4267 204.61 69.08C205.05 68.72 205.384 68.1333 205.61 67.32C205.85 66.5067 205.97 65.4133 205.97 64.04C205.97 62.2 205.71 60.8 205.19 59.84C204.684 58.88 203.977 58.4 203.07 58.4C202.47 58.4 201.95 58.58 201.51 58.94C201.084 59.2867 200.75 59.8667 200.51 60.68C200.284 61.48 200.17 62.5733 200.17 63.96C200.17 65.8 200.424 67.2 200.93 68.16C201.45 69.12 202.164 69.6 203.07 69.6ZM226.479 71.2L224.919 67.2H218.439L216.879 71.16L215.259 70.5L220.739 57H222.819L228.219 70.5L226.479 71.2ZM219.039 65.6H224.299L221.679 58.88L219.039 65.6ZM230.218 71V57H232.878L236.758 65.86L240.578 57H243.298V71H241.398V59.42L237.658 67.84H235.778L232.018 59.42V71H230.218ZM253.694 64.96V63.32H260.494V64.96H253.694ZM77.88 90V88.4H80.74V78.3L78.06 80.32L77.08 78.98L81.22 76H82.54V88.4H84.92V90H77.88ZM92.9722 90.24C91.4122 90.24 90.2255 89.6067 89.4122 88.34C88.5989 87.06 88.1922 85.2733 88.1922 82.98C88.1922 80.6733 88.6055 78.8933 89.4322 77.64C90.2722 76.3867 91.4655 75.76 93.0122 75.76C94.5722 75.76 95.7589 76.3933 96.5722 77.66C97.3855 78.9267 97.7922 80.7133 97.7922 83.02C97.7922 85.3267 97.3722 87.1067 96.5322 88.36C95.7055 89.6133 94.5189 90.24 92.9722 90.24ZM92.9922 88.6C93.5922 88.6 94.1055 88.4267 94.5322 88.08C94.9722 87.72 95.3055 87.1333 95.5322 86.32C95.7722 85.5067 95.8922 84.4133 95.8922 83.04C95.8922 81.2 95.6322 79.8 95.1122 78.84C94.6055 77.88 93.8989 77.4 92.9922 77.4C92.3922 77.4 91.8722 77.58 91.4322 77.94C91.0055 78.2867 90.6722 78.8667 90.4322 79.68C90.2055 80.48 90.0922 81.5733 90.0922 82.96C90.0922 84.8 90.3455 86.2 90.8522 87.16C91.3722 88.12 92.0855 88.6 92.9922 88.6ZM101.984 82.04C101.624 82.04 101.311 81.9067 101.044 81.64C100.778 81.3733 100.644 81.06 100.644 80.7C100.644 80.2867 100.764 79.96 101.004 79.72C101.244 79.48 101.571 79.36 101.984 79.36C102.331 79.36 102.638 79.4933 102.904 79.76C103.184 80.0267 103.324 80.34 103.324 80.7C103.324 81.1 103.198 81.4267 102.944 81.68C102.691 81.92 102.371 82.04 101.984 82.04ZM101.984 90.24C101.624 90.24 101.311 90.1067 101.044 89.84C100.778 89.5733 100.644 89.26 100.644 88.9C100.644 88.4867 100.764 88.16 101.004 87.92C101.244 87.68 101.571 87.56 101.984 87.56C102.331 87.56 102.638 87.6933 102.904 87.96C103.184 88.2267 103.324 88.54 103.324 88.9C103.324 89.3 103.198 89.6267 102.944 89.88C102.691 90.12 102.371 90.24 101.984 90.24ZM110.96 90.24C109.4 90.24 108.214 89.6067 107.4 88.34C106.587 87.06 106.18 85.2733 106.18 82.98C106.18 80.6733 106.594 78.8933 107.42 77.64C108.26 76.3867 109.454 75.76 111 75.76C112.56 75.76 113.747 76.3933 114.56 77.66C115.374 78.9267 115.78 80.7133 115.78 83.02C115.78 85.3267 115.36 87.1067 114.52 88.36C113.694 89.6133 112.507 90.24 110.96 90.24ZM110.98 88.6C111.58 88.6 112.094 88.4267 112.52 88.08C112.96 87.72 113.294 87.1333 113.52 86.32C113.76 85.5067 113.88 84.4133 113.88 83.04C113.88 81.2 113.62 79.8 113.1 78.84C112.594 77.88 111.887 77.4 110.98 77.4C110.38 77.4 109.86 77.58 109.42 77.94C108.994 78.2867 108.66 78.8667 108.42 79.68C108.194 80.48 108.08 81.5733 108.08 82.96C108.08 84.8 108.334 86.2 108.84 87.16C109.36 88.12 110.074 88.6 110.98 88.6ZM122.953 90.24C121.393 90.24 120.206 89.6067 119.393 88.34C118.579 87.06 118.173 85.2733 118.173 82.98C118.173 80.6733 118.586 78.8933 119.413 77.64C120.253 76.3867 121.446 75.76 122.993 75.76C124.553 75.76 125.739 76.3933 126.553 77.66C127.366 78.9267 127.773 80.7133 127.773 83.02C127.773 85.3267 127.353 87.1067 126.513 88.36C125.686 89.6133 124.499 90.24 122.953 90.24ZM122.973 88.6C123.573 88.6 124.086 88.4267 124.513 88.08C124.953 87.72 125.286 87.1333 125.513 86.32C125.753 85.5067 125.873 84.4133 125.873 83.04C125.873 81.2 125.613 79.8 125.093 78.84C124.586 77.88 123.879 77.4 122.973 77.4C122.373 77.4 121.853 77.58 121.413 77.94C120.986 78.2867 120.653 78.8667 120.413 79.68C120.186 80.48 120.073 81.5733 120.073 82.96C120.073 84.8 120.326 86.2 120.833 87.16C121.353 88.12 122.066 88.6 122.973 88.6ZM136.761 90V76.04C137.308 75.9733 137.908 75.9267 138.561 75.9C139.228 75.86 139.914 75.84 140.621 75.84C141.781 75.84 142.768 76.0267 143.581 76.4C144.394 76.76 145.014 77.26 145.441 77.9C145.868 78.54 146.081 79.2733 146.081 80.1C146.081 81.1 145.834 81.9467 145.341 82.64C144.848 83.3333 144.161 83.8667 143.281 84.24C142.401 84.6 141.381 84.78 140.221 84.78C139.661 84.78 139.141 84.76 138.661 84.72V90H136.761ZM140.461 83.2C141.648 83.2 142.568 82.9333 143.221 82.4C143.874 81.8667 144.201 81.1533 144.201 80.26C144.201 79.3933 143.888 78.7067 143.261 78.2C142.634 77.6933 141.741 77.44 140.581 77.44C140.221 77.44 139.881 77.4467 139.561 77.46C139.241 77.4733 138.941 77.4933 138.661 77.52V83.1C138.874 83.1267 139.134 83.1533 139.441 83.18C139.748 83.1933 140.088 83.2 140.461 83.2ZM148.382 90V76H151.042L154.922 84.86L158.742 76H161.462V90H159.562V78.42L155.822 86.84H153.942L150.182 78.42V90H148.382Z" fill="#0A0F0D" fill-opacity="0.8"/>
</g>
<g id="Group 3698">
<rect id="Rectangle 21" x="13.209" y="33.554" width="45.4388" height="57.0684" rx="7.92537" fill="#FEFEF9" stroke="#0A0F0D" stroke-width="1.05672"/>
<g id="Stack">
<path id="Vector" d="M48.3612 53.0095H23V73.6096H48.3612V53.0095Z" fill="#FEFEF9"/>
<g id="Vector_2">
<path d="M26.1699 67.1719L35.6804 71.6781L45.1908 67.1719" fill="#FEFEF9"/>
<path d="M26.1699 67.1719L35.6804 71.6781L45.1908 67.1719" stroke="#0A0F0D" stroke-width="1.58507" stroke-linecap="round" stroke-linejoin="round"/>
</g>
<g id="Vector_3">
<path d="M26.1699 63.3093L35.6804 67.8156L45.1908 63.3093" fill="#FEFEF9"/>
<path d="M26.1699 63.3093L35.6804 67.8156L45.1908 63.3093" stroke="#0A0F0D" stroke-width="1.58507" stroke-linecap="round" stroke-linejoin="round"/>
</g>
<path id="Vector_4" d="M26.1699 59.4469L35.6804 63.9532L45.1908 59.4469L35.6804 54.9407L26.1699 59.4469Z" fill="#FEFEF9" stroke="#0A0F0D" stroke-width="1.58507" stroke-linecap="round" stroke-linejoin="round"/>
</g>
</g>
<g id="Frame" clip-path="url(#clip0_134_106)">
<path id="Vector_5" fill-rule="evenodd" clip-rule="evenodd" d="M316.514 43.7981C316.514 40.9253 318.843 38.5961 321.716 38.5961C324.589 38.5961 326.918 40.9252 326.918 43.7981C326.918 46.6711 324.589 49.0002 321.716 49.0002C318.843 49.0002 316.514 46.6711 316.514 43.7981ZM335.403 22.8295C335.433 22.8289 335.463 22.8289 335.493 22.8289C338.376 22.8342 340.709 25.1753 340.703 28.0583V43.7357C340.705 44.0883 340.67 44.4399 340.6 44.7853C340.028 47.606 337.278 49.4291 334.458 48.8576C332.013 48.3667 330.344 46.0646 330.344 42.2723V28.2993C330.277 25.409 332.517 22.9877 335.403 22.8295Z" fill="#46E1C5"/>
</g>
</g>
<defs>
<clipPath id="clip0_134_106">
<rect width="38.5" height="42" fill="white" transform="translate(316 7)"/>
</clipPath>
</defs>
</svg>
