<svg width="93" height="82" viewBox="0 0 93 82" fill="none" xmlns="http://www.w3.org/2000/svg">
<path fill-rule="evenodd" clip-rule="evenodd" d="M87.0254 25.4443C93.3609 31.3871 94.8069 40.177 90.6465 47.4562L83.5796 59.8206L75.9926 71.9441C71.5259 79.0815 62.4705 83.0076 53.3157 81.776L37.7655 79.6839L22.3149 77.0822C13.2188 75.5506 6.17628 69.1871 4.67876 61.1467L2.13508 47.4894L0.173115 33.7579C-0.981937 25.6739 3.72095 17.815 11.9502 14.0774L25.9284 7.72872L40.1664 1.8439C48.5486 -1.62063 58.4977 -0.114262 65.0812 5.61618L76.2638 15.3499L87.0254 25.4443ZM48.0158 70.6111L46.718 29.6111L70.0771 68.3333L48.0158 70.6111Z" fill="#0A0F0D"/>
</svg>
